<svg width="248" height="52" viewBox="0 0 248 52" fill="none" xmlns="http://www.w3.org/2000/svg">
<path d="M239.41 4.20166C235.31 23.6475 235.136 23.9968 234.674 32.7882H240.161C243.395 23.9968 243.569 23.6475 247.669 4.20166H239.41ZM231.008 44.0248H238.891L240.623 35.3499H232.74L231.008 44.0248Z" fill="#5274EF"/>
<path d="M0 44.1799H8.08329V15.9515C8.08329 14.263 7.65786 12.944 7.17924 11.5193C7.0197 11.0445 7.17924 10.7279 7.65786 10.6224C7.92375 10.5696 8.18965 10.7279 8.29601 11.0972L18.3469 44.1799H29.3019L39.3529 11.0972C39.4592 10.7279 39.7251 10.5696 39.991 10.6224C40.4696 10.7279 40.6292 11.0445 40.4696 11.5193C39.991 12.944 39.5656 14.263 39.5656 15.9515V44.1799H47.6489V7.03446H33.184L24.7817 35.5267C24.5158 36.4764 24.4626 37.8483 24.4626 39.1146C24.4626 39.5367 24.2499 39.7477 23.8244 39.7477C23.399 39.7477 23.1863 39.5367 23.1863 39.1146C23.1863 37.8483 23.1331 36.4764 22.8672 35.5267L14.4648 7.03446H0V44.1799Z" fill="#5274EF"/>
<path d="M51.4716 36.5292C51.4716 41.2251 56.4705 44.602 62.5862 44.602C68.9677 44.602 72.2648 42.1749 75.1897 38.5342C75.4024 38.2704 75.562 37.7427 76.2001 37.9538C76.7851 38.1648 76.5192 38.6925 76.2533 39.1673C75.7215 40.1171 75.2961 40.9613 75.2961 42.2276V44.1799H82.9539V28.773C82.9539 18.0092 76.0406 15.8987 68.3296 15.8987C60.8844 15.8987 53.652 18.5896 52.482 25.6072H60.0336C60.5122 23.3383 61.8417 21.8082 68.1168 21.8082C74.3389 21.8082 75.2429 23.4966 75.2961 25.3961C75.3493 27.9815 69.6059 27.5066 63.6498 27.7705C56.4705 28.087 51.4716 30.3559 51.4716 36.5292ZM75.2961 30.3833C75.2961 34.4685 69.4995 38.8508 65.6706 39.3256C61.8948 39.8005 59.1295 38.4814 59.1295 36.1598C59.1295 33.68 60.9908 32.7302 64.6602 32.4664C69.1804 32.1498 73.2753 32.1245 75.2961 30.3833Z" fill="#5274EF"/>
<path d="M87.5313 12.944H95.1892V6.19025H87.5313V12.944ZM87.5313 44.1799H95.1892V16.3208H87.5313V44.1799Z" fill="#5274EF"/>
<path d="M99.2921 6.19025V44.1799H106.95V6.19025H99.2921Z" fill="#5274EF"/>
<path d="M142.491 29.881C142.491 19.7504 134.461 15.8987 126.75 15.8987C116.593 15.8987 110.158 21.5444 110.158 30.2503C110.158 38.5342 116.114 44.602 126.91 44.602C135.791 44.602 140.471 40.2226 141.906 34.4714H134.089C133.132 36.793 131.058 38.4814 127.016 38.4814C121.751 38.4814 118.348 36.1598 117.71 32.1498H142.279C142.438 31.3584 142.491 30.6197 142.491 29.881ZM118.082 27.0845C119.039 24.0243 121.539 21.5971 127.069 21.5971C131.962 21.5971 134.514 23.866 134.834 27.0845H118.082Z" fill="#5274EF"/>
<path d="M170.898 6.19025V17.3761C170.898 18.4841 171.217 19.2756 171.643 20.2781C171.856 20.8057 172.228 21.4389 171.696 21.7027C171.271 21.9137 170.845 21.2806 170.686 21.0695C168.452 18.1675 164.889 15.8987 159.624 15.8987C150.903 15.8987 145.372 22.2303 145.372 30.2503C145.372 38.2704 150.903 44.602 159.624 44.602C164.729 44.602 168.665 42.3859 170.686 39.3784C170.792 39.2201 171.111 38.6925 171.536 38.8508C172.175 39.1146 171.909 39.5895 171.643 40.1171C171.164 41.0668 170.898 41.911 170.898 42.9663V44.1799H178.556V6.19025H170.898ZM161.698 38.0593C155.795 38.0593 153.03 34.4714 153.03 30.2503C153.03 26.0293 155.795 22.4414 161.698 22.4414C166.538 22.4414 170.898 26.0293 170.898 30.2503C170.898 34.4714 167.229 38.0593 161.698 38.0593Z" fill="#5274EF"/>
<path fill-rule="evenodd" clip-rule="evenodd" d="M196.524 44.1406H184.146V4.38818H196.524V44.1406ZM226.579 23.5272H217.551V32.5974C217.551 32.9455 217.551 33.2314 217.557 33.4782C217.709 33.4814 217.883 33.4828 218.082 33.4828H226.579V44.1406H215.876C213.023 44.1406 210.255 43.7033 208.268 41.8318C206.251 39.9314 205.584 37.0803 205.584 33.6584V23.5272H199.018V12.8694H205.584V5.59411H217.551V12.8694H226.579V23.5272ZM201.308 15.1669H207.874V7.8916H215.26V15.1669H224.288V21.2297H215.26V32.5974C215.26 35.5277 215.312 35.7803 218.082 35.7803H224.288V41.8431H215.876C210.439 41.8431 207.874 40.0748 207.874 33.6584V21.2297H201.308V15.1669ZM194.234 6.68567V41.8431H186.437V6.68567H194.234Z" fill="#5274EF"/>
</svg>
