<svg width="220" height="44" viewBox="0 0 220 44" fill="none" xmlns="http://www.w3.org/2000/svg">
<path d="M206.215 5.00586C202.688 21.731 202.539 22.0315 202.142 29.5928H206.861C209.643 22.0315 209.792 21.731 213.318 5.00586H206.215ZM198.988 39.2574H205.768L207.258 31.7961H200.478L198.988 39.2574Z" fill="white"/>
<path d="M0.302734 39.3911H7.25505V15.1123C7.25505 13.6601 6.88914 12.5256 6.47749 11.3003C6.34027 10.8918 6.47749 10.6196 6.88914 10.5288C7.11783 10.4834 7.34653 10.6196 7.438 10.9372L16.0827 39.3911H25.5049L34.1495 10.9372C34.241 10.6196 34.4697 10.4834 34.6984 10.5288C35.11 10.6196 35.2473 10.8918 35.11 11.3003C34.6984 12.5256 34.3325 13.6601 34.3325 15.1123V39.3911H41.2848V7.44289H28.8438L21.6171 31.9486C21.3884 32.7655 21.3426 33.9454 21.3426 35.0345C21.3426 35.3975 21.1597 35.5791 20.7938 35.5791C20.4278 35.5791 20.2449 35.3975 20.2449 35.0345C20.2449 33.9454 20.1992 32.7655 19.9705 31.9486L12.7437 7.44289H0.302734V39.3911Z" fill="white"/>
<path d="M44.5727 32.8108C44.5727 36.8497 48.8721 39.7541 54.1321 39.7541C59.6208 39.7541 62.4566 37.6666 64.9722 34.5353C65.1552 34.3084 65.2924 33.8546 65.8413 34.0361C66.3444 34.2176 66.1157 34.6715 65.887 35.0799C65.4296 35.8967 65.0637 36.6228 65.0637 37.712V39.3911H71.6501V26.1398C71.6501 16.8821 65.704 15.0669 59.0719 15.0669C52.6685 15.0669 46.448 17.3813 45.4417 23.417H51.9366C52.3483 21.4656 53.4918 20.1496 58.889 20.1496C64.2404 20.1496 65.018 21.6017 65.0637 23.2355C65.1094 25.4591 60.1696 25.0507 55.0469 25.2776C48.8721 25.5499 44.5727 27.5013 44.5727 32.8108ZM65.0637 27.5248C65.0637 31.0385 60.0782 34.8076 56.785 35.216C53.5375 35.6245 51.1591 34.4899 51.1591 32.4932C51.1591 30.3603 52.7599 29.5434 55.9159 29.3165C59.8037 29.0442 63.3256 29.0224 65.0637 27.5248Z" fill="white"/>
<path d="M75.5871 12.5256H82.1735V6.7168H75.5871V12.5256ZM75.5871 39.3911H82.1735V15.4299H75.5871V39.3911Z" fill="white"/>
<path d="M85.7023 6.7168V39.3911H92.2887V6.7168H85.7023Z" fill="white"/>
<path d="M122.857 27.0928C122.857 18.3797 115.951 15.0669 109.319 15.0669C100.583 15.0669 95.0481 19.9227 95.0481 27.4105C95.0481 34.5353 100.171 39.7541 109.456 39.7541C117.094 39.7541 121.119 35.9875 122.354 31.041H115.631C114.807 33.0377 113.024 34.4899 109.547 34.4899C105.019 34.4899 102.092 32.4932 101.543 29.0442H122.674C122.812 28.3635 122.857 27.7282 122.857 27.0928ZM101.863 24.6876C102.687 22.0556 104.836 19.968 109.593 19.968C113.801 19.968 115.997 21.9194 116.271 24.6876H101.863Z" fill="white"/>
<path d="M147.29 6.7168V16.3376C147.29 17.2906 147.564 17.9713 147.93 18.8335C148.113 19.2873 148.433 19.8319 147.976 20.0588C147.61 20.2403 147.244 19.6957 147.107 19.5142C145.186 17.0183 142.121 15.0669 137.593 15.0669C130.092 15.0669 125.335 20.5126 125.335 27.4105C125.335 34.3084 130.092 39.7541 137.593 39.7541C141.984 39.7541 145.369 37.8481 147.107 35.2614C147.198 35.1253 147.473 34.6715 147.839 34.8076C148.387 35.0345 148.159 35.4429 147.93 35.8967C147.518 36.7136 147.29 37.4397 147.29 38.3473V39.3911H153.876V6.7168H147.29ZM139.377 34.1269C134.3 34.1269 131.921 31.041 131.921 27.4105C131.921 23.78 134.3 20.6941 139.377 20.6941C143.539 20.6941 147.29 23.78 147.29 27.4105C147.29 31.041 144.134 34.1269 139.377 34.1269Z" fill="white"/>
<path fill-rule="evenodd" clip-rule="evenodd" d="M169.33 39.3567H158.685V5.16602H169.33V39.3567ZM195.18 21.6273H187.415V29.4285C187.415 29.7279 187.416 29.9738 187.42 30.186C187.552 30.1888 187.701 30.19 187.872 30.19H195.18V39.3567H185.975C183.521 39.3567 181.14 38.9805 179.432 37.3709C177.696 35.7364 177.123 33.2842 177.123 30.341V21.6273H171.475V12.4606H177.123V6.20322H187.415V12.4606H195.18V21.6273ZM173.445 14.4367H179.092V8.17927H185.445V14.4367H193.21V19.6512H185.445V29.4285C185.445 31.9488 185.489 32.1661 187.872 32.1661H193.21V37.3806H185.975C181.298 37.3806 179.092 35.8597 179.092 30.341V19.6512H173.445V14.4367ZM167.36 7.14206V37.3806H160.654V7.14206H167.36Z" fill="white"/>
</svg>
