<svg width="360" height="240" viewBox="0 0 360 240" fill="none" xmlns="http://www.w3.org/2000/svg">
<g clip-path="url(#clip0_372_8484)">
<path fill-rule="evenodd" clip-rule="evenodd" d="M136.299 228.779H360.03C326.554 80.3087 296.215 6.07373 269.013 6.07373C228.21 6.07373 213.273 52.2979 190.89 70.1498C168.508 88.0016 155.495 95.8838 118.9 83.0168C82.3046 70.1498 6.15283 75.6059 6.15283 118.726C6.15283 147.472 16.8548 184.11 38.2586 228.638L136.299 228.779Z" fill="#FBF9FF"/>
<path fill-rule="evenodd" clip-rule="evenodd" d="M16.2671 201.262C16.2671 201.262 28.2467 144.386 42.1996 136.124C49.1963 131.981 66.9681 127.333 66.9681 127.333C66.9681 127.333 76.2541 145.113 86.0054 140.128C92.9534 136.576 92.6053 128.304 92.6053 128.304C92.6053 128.304 123.013 128.28 128.269 131.119C129.414 131.738 138.119 149.029 145.218 166.668C146.263 169.266 152.686 179.767 146.769 181.431C142.43 183.31 124.701 185.351 124.701 185.351C124.701 185.351 126.144 197.154 125.109 197.761C121.872 199.656 107.112 198.886 100.707 199.402C99.753 199.478 101.58 191.475 102.334 187.482C104.19 186.767 105.982 184.329 105.729 184.471C104.457 185.179 101.825 174.826 100.539 175.53C99.5385 176.078 71.7893 176.538 70.7861 177.077C65.2348 189.224 76.033 223.603 71.3892 222.318C55.9043 218.03 43.9205 216.086 43.9205 216.086C43.9205 216.086 42.4603 203.822 39.7907 203.42C34.1577 202.572 16.2671 201.262 16.2671 201.262Z" fill="#5274EF"/>
<path fill-rule="evenodd" clip-rule="evenodd" d="M75.9099 176.166C77.9163 176.555 80.0126 176.327 81.6345 175.569C81.3928 175.273 81.2212 174.857 80.9398 174.759C80.1619 174.492 76.909 175.405 75.9099 176.166ZM73.0241 178.464C78.1745 180.454 95.0801 179.626 98.3825 177.234C89.8637 176.84 81.651 177.191 73.0241 178.464ZM74.0512 215.957C74.2443 217.52 74.4357 218.863 74.571 220.213C74.6625 221.137 75.2029 221.57 76.0543 221.761C78.3577 222.277 80.6387 222.934 82.9677 223.288C85.318 223.643 87.7163 223.74 90.084 223.084C89.6129 222.846 89.1328 222.699 88.6444 222.659C87.5966 222.575 86.5398 222.588 85.4938 222.485C82.2136 222.163 80.9778 222.659 81.7096 218.004C79.9664 217.884 78.6555 217.034 77.8536 215.432C76.6021 215.605 75.4479 215.764 74.0512 215.957ZM124.704 185.354C125.794 185.354 126.599 185.471 127.358 185.334C132.979 184.326 138.605 183.335 144.196 182.184C146.109 181.791 147.933 180.972 149.787 180.32C150.368 180.116 150.883 179.761 150.783 179.046C150.588 177.653 150.342 176.267 150.099 174.759C141.22 176.675 132.591 178.537 123.761 180.442C124.059 182 124.374 183.636 124.704 185.354ZM39.6931 201.764C39.4762 199.397 39.2782 197.234 39.067 194.928C31.5076 195.244 24.176 195.384 16.804 192.776C16.9822 195.196 17.1595 197.259 17.2783 199.325C17.3435 200.48 17.9886 201.152 19.0281 201.406C20.4916 201.761 21.9741 202.097 23.4698 202.259C28.0081 202.753 32.5413 202.274 37.073 202.046C37.8526 202.006 38.6289 201.881 39.6931 201.764ZM99.5589 195.434C100.412 192.127 100.749 188.913 100.414 187.485C90.7266 189.733 80.9662 191.392 70.7884 190.748C71.1456 192.806 71.4534 194.578 71.7735 196.43C81.1576 197.18 90.3504 197.496 99.5589 195.434ZM71.9368 197.925C72.0993 199.44 72.2239 200.717 72.374 201.991C72.8006 205.615 73.2328 209.237 73.6742 212.859C73.8392 214.215 74.0735 214.386 75.4611 214.222C76.0502 214.153 76.6541 214.117 77.215 213.949C77.6531 213.816 78.0359 213.504 78.4665 213.258C76.1549 210.093 77.3347 209.485 79.5613 207.942C78.7726 206.258 79.9961 204.18 81.6345 204.037C83.4123 203.882 92.7355 203.786 98.8766 202.497C99.0623 200.613 99.2314 198.913 99.4236 196.963C90.2341 198.9 81.2855 198.476 71.9368 197.925ZM70.5682 180.153C69.8628 183.061 69.1929 185.821 68.5263 188.572C75.6616 190.53 98.3643 187.793 103.489 184.373C102.433 182.41 101.37 180.434 100.352 178.54C90.4775 182.148 80.6181 180.986 70.5682 180.153ZM99.4393 212.271C98.9138 212.48 98.4897 212.745 98.0368 212.809C96.4718 213.032 94.8969 213.187 93.3237 213.363C89.2582 213.816 85.1902 214.231 81.0991 213.644C80.4977 213.558 79.8492 213.454 79.5885 214.176C79.3047 214.961 79.5786 215.68 80.3615 215.945C81.4018 216.298 82.4982 216.615 83.5889 216.685C87.9456 216.966 92.2892 216.856 96.5659 215.842C96.9478 215.752 97.3479 215.607 97.72 215.65C97.984 215.682 98.3759 215.962 98.4122 216.179C98.4485 216.402 98.1762 216.822 97.9436 216.912C97.3356 217.146 96.6789 217.271 96.0346 217.399C92.7239 218.056 89.3836 218.375 86.0052 218.22C85.1316 218.18 82.7573 217.972 82.8992 219.952C82.933 220.426 83.7217 220.597 84.154 220.628C88.0232 220.905 91.8948 221.196 95.7706 221.308C97.4676 221.356 99.1753 220.997 100.88 220.826C103.037 220.611 103.99 218.774 104.152 217.018C104.298 215.426 104.05 213.888 103.391 212.438C102.519 210.523 102.244 208.489 102.717 206.506C103.459 203.398 102.539 203.099 99.6497 203.827C94.3681 205.159 89.0041 205.617 83.5649 205.259C83.0427 205.225 82.5073 205.222 81.9901 205.293C80.6371 205.478 80.4044 205.842 80.5628 207.684C83.4709 207.812 86.4194 208.029 89.3695 208.045C91.6729 208.058 93.9771 207.804 96.2829 207.711C96.8843 207.686 97.4915 207.813 98.2092 207.882C97.8215 209.306 96.834 209.136 96.0602 209.148C91.8445 209.213 87.6288 209.212 83.414 209.251C82.0973 209.262 80.7666 209.22 79.4706 209.399C78.2661 209.568 78.031 210.532 78.9261 211.351C79.2486 211.646 79.6991 211.887 80.1272 211.97C81.2212 212.183 82.3316 212.366 83.4428 212.434C88.0793 212.715 92.6447 211.904 97.2357 211.489C97.9956 211.42 98.7958 211.129 99.4393 212.271ZM125.154 187.343C125.538 191.643 126.864 196.007 127.109 200.446C125.565 200.933 125.875 199.338 125.237 199.164C124.157 199.281 123.246 199.431 122.329 199.471C119.167 199.611 116.003 199.719 112.84 199.83C109.281 199.955 105.723 200.063 102.164 200.194C100.67 200.25 100.575 200.386 100.801 201.931C101.126 201.931 101.457 201.908 101.783 201.935C103.754 202.108 104.776 203.149 104.374 205.044C103.779 207.846 104.187 210.43 105.179 213.072C105.685 214.423 105.661 215.968 105.905 217.618C109.409 217.288 112.881 217.029 116.335 216.622C123.532 215.773 130.724 214.882 137.907 213.93C140.449 213.593 142.977 213.103 145.479 212.541C147.649 212.054 149.107 210.717 149.47 208.452C149.645 207.362 149.779 206.258 149.822 205.156C150.088 198.333 149.008 191.642 147.703 184.98C147.574 184.317 147.205 183.702 147.047 183.313C139.608 184.682 132.439 186.003 125.154 187.343ZM91.2736 126.295C92.3857 126.49 93.3262 126.753 94.2798 126.806C98.6902 127.055 103.103 127.3 107.518 127.441C112.666 127.606 117.789 127.895 122.836 129.018C127.719 130.105 131.485 132.716 134.209 136.853C136.922 140.973 138.927 145.451 140.807 149.97C143.79 157.143 146.608 164.383 149.492 171.596C149.776 172.308 149.859 173.134 150.778 173.434C150.994 173.505 151.257 173.777 151.292 173.99C151.621 175.965 151.993 177.941 152.14 179.933C152.171 180.385 151.455 181.007 150.948 181.356C150.258 181.83 149.438 182.119 148.615 182.515C149.78 187.226 150.592 191.968 150.95 196.76C151.202 200.134 151.315 203.544 151.127 206.917C150.872 211.466 149.009 213.48 144.44 214.317C140.232 215.086 135.979 215.623 131.735 216.194C127.033 216.825 122.324 217.411 117.61 217.955C114.075 218.363 110.531 218.711 106.984 219.004C105.983 219.085 105.229 219.274 104.748 220.246C104.22 221.316 103.191 221.875 102.074 222.088C100.333 222.42 98.5648 222.629 96.801 222.827C95.957 222.922 95.25 223.152 94.4539 223.532C92.9508 224.249 91.2233 224.634 89.5494 224.844C84.4633 225.485 79.5918 224.31 74.7747 222.856C73.7765 222.554 73.3079 221.867 73.1883 220.846C72.8855 218.256 72.5234 215.673 72.2016 213.086C71.3733 206.422 70.5632 199.755 69.7234 193.092C69.6186 192.26 69.3794 191.443 69.1937 190.578C68.3522 190.318 67.5504 190.071 66.6553 189.795C67.1981 187.577 67.7228 185.436 68.2466 183.293C68.5098 182.217 68.7466 181.134 69.0411 180.066C69.4874 178.445 70.3083 177.231 72.2412 177.144C72.9433 177.112 73.6346 176.854 74.4126 176.682V174.451C76.7333 173.935 78.9929 173.306 81.3342 173.12C81.7492 173.087 82.3233 173.674 82.6368 174.108C82.9685 174.563 83.0749 175.178 83.2424 175.624C85.6291 175.624 87.9266 175.57 90.2209 175.638C93.4425 175.732 96.6632 175.883 99.8798 176.097C100.371 176.13 101.044 176.52 101.27 176.936C102.638 179.459 103.901 182.039 105.193 184.589C104.799 185.941 103.625 186.279 102.434 186.746C101.914 190.636 101.394 194.54 100.834 198.728C109.09 198.542 117.026 198.266 125.111 197.764C125.049 196.965 125.055 196.46 124.966 195.971C123.947 190.392 122.915 184.815 121.881 179.238C121.639 177.93 121.631 177.931 122.772 177.266C123.052 177.672 123.335 178.084 123.675 178.578C131.986 177.611 140.042 175.408 148.278 173.474C148.191 172.934 148.191 172.481 148.043 172.083C144.194 161.742 140.156 151.478 135.207 141.591C133.973 139.126 132.478 136.839 130.57 134.812C128.364 132.468 125.566 131.264 122.516 130.505C118.204 129.432 113.791 129.192 109.376 128.98C104.107 128.728 98.8362 128.498 93.5654 128.264C93.2494 128.251 92.9302 128.292 92.6076 128.308C91.9806 130.164 91.4171 131.96 90.7629 133.724C90.3785 134.761 89.9272 135.79 89.3737 136.747C86.9301 140.969 82.6269 142.113 78.3997 139.622C75.1361 137.698 72.3839 135.168 70.0822 132.184C69.2045 131.046 68.4727 129.801 67.6725 128.605C67.4241 128.235 67.1676 127.87 66.8541 127.414C63.96 128.219 61.099 128.959 58.2751 129.815C53.1098 131.382 47.8902 132.845 43.1366 135.46C40.7235 136.787 38.4573 138.378 36.1218 139.844C32.4415 142.157 30.0878 145.493 28.8718 149.551C27.7325 153.356 26.7632 157.22 25.9077 161.1C24.124 169.186 22.4559 177.297 20.7589 185.402C20.3085 187.56 19.9249 189.732 19.4728 192.092C25.8763 194.083 32.2897 193.685 38.8756 193.512C38.8756 192.265 38.8764 191.244 38.8756 190.222C38.8731 189.114 38.8467 188.005 38.8756 186.898C38.8904 186.319 38.9102 185.569 39.6915 185.567C40.5569 185.564 40.3581 186.331 40.3869 186.895C40.5891 190.867 40.8333 194.837 40.9991 198.81C41.1979 203.596 42.5558 208.189 43.3346 212.877C43.5128 213.957 43.7273 215.031 43.9228 216.089C43.0574 216.65 42.588 216.388 42.404 215.567C42.1458 214.423 41.9775 213.258 41.7003 212.118C41.3332 210.613 40.8456 209.133 40.5066 207.623C40.2096 206.299 40.0454 204.945 39.793 203.423C32.8548 203.633 25.9679 204.691 18.9002 203.063C18.9654 204.308 18.9481 205.337 19.0842 206.345C19.5619 209.895 20.1097 213.438 20.5774 216.989C20.6228 217.338 20.2961 217.733 20.1427 218.108C19.7986 217.87 19.2179 217.686 19.1519 217.387C18.826 215.928 18.6164 214.441 18.4036 212.959C17.9895 210.059 17.5068 207.162 17.2486 204.248C17.148 203.125 17.2132 202.069 16.2694 201.265C16.2215 201.225 16.186 201.158 16.172 201.097C15.3495 197.659 15.3569 194.195 15.5673 190.438C16.5078 190.828 17.1249 191.084 17.9862 191.441C18.2444 190.249 18.4762 189.194 18.6989 188.138C21.06 176.975 23.3931 165.806 25.7946 154.652C26.467 151.527 27.4421 148.482 28.9032 145.601C30.1076 143.223 31.7609 141.257 33.8745 139.608C39.4828 135.236 45.7031 132.033 52.5225 129.981C57.1861 128.577 61.8728 127.253 66.5571 125.92C67.9868 125.512 67.9703 125.565 68.5511 126.877C68.8926 127.65 69.2927 128.408 69.7506 129.12C71.9714 132.582 74.83 135.441 78.2438 137.756C78.8922 138.195 79.5861 138.596 80.3087 138.896C83.3488 140.162 86.1463 139.293 87.7955 136.496C89.2656 134.003 90.2341 131.3 90.8289 128.472C90.9733 127.784 91.1103 127.096 91.2736 126.295Z" fill="black"/>
<path fill-rule="evenodd" clip-rule="evenodd" d="M95.0699 87.9651C94.8744 89.286 94.4817 90.3548 93.9636 91.2155C93.9554 90.7358 93.9356 90.2536 93.9092 89.7722C94.735 88.1609 95.1566 86.3522 94.8439 85.0566C95.1285 85.9435 95.2242 86.9282 95.0699 87.9651Z" fill="black"/>
<path fill-rule="evenodd" clip-rule="evenodd" d="M87.9424 94.1611C86.3007 93.9922 83.7465 93.0132 83.2235 91.614C83.0329 91.1065 83.1261 90.5738 83.4891 90.0288C83.2334 90.8177 83.4437 91.9958 84.4667 92.7154C86.3023 94.0053 89.6014 94.1529 91.5129 92.757C91.8313 92.5253 92.1366 92.2406 92.4295 91.9257C92.427 92.2732 92.4163 92.6208 92.4055 92.9691C91.046 93.9947 89.3993 94.312 87.9424 94.1611Z" fill="black"/>
<path fill-rule="evenodd" clip-rule="evenodd" d="M85.6389 81.97C86.5447 81.2724 87.6651 80.9657 88.9793 81.0399C87.1577 81.1117 85.1678 82.0507 83.8438 84.7446C84.1358 83.7575 84.6902 82.7001 85.6389 81.97Z" fill="black"/>
<path fill-rule="evenodd" clip-rule="evenodd" d="M94.8194 84.9572C94.8094 84.9149 94.7952 84.8744 94.7827 84.833C94.7977 84.8727 94.8061 84.9166 94.8194 84.9572Z" fill="black"/>
<path fill-rule="evenodd" clip-rule="evenodd" d="M91.4151 81.3262C88.9673 80.5169 86.9799 80.6817 85.5123 81.8117C84.4208 82.652 83.8219 83.8798 83.5513 84.9812C83.487 84.9886 83.4226 84.9967 83.3583 85.0041C81.3437 84.2608 79.2672 84.5472 77.5578 85.4903C76.7906 85.9146 76.3649 86.4514 75.6026 86.8871C75.04 87.2305 74.4765 87.5732 73.9139 87.9175C72.216 89.3297 70.7946 90.9337 70.7839 93.1479C70.7806 93.7924 71.0025 95.3963 71.3358 96.9375C71.0495 96.8918 70.8796 96.8763 70.7294 96.8273C68.3328 96.0425 66.5072 97.3764 66.5995 99.8721C66.668 101.729 67.5689 103.162 69.2329 103.935C70.2047 104.388 70.4291 104.915 70.3441 105.89C69.8079 112.063 68.7932 118.162 67.5178 124.223C67.3701 124.921 67.4971 125.675 67.4971 126.455C68.7948 126.411 68.7453 125.615 68.8922 124.941C70.2666 118.632 71.3185 112.275 71.8968 105.842C72.0774 103.831 72.056 103.771 70.1008 102.77C68.5968 102 67.7248 100.345 68.2602 99.0807C68.4434 98.6499 68.8905 98.1172 69.2898 98.0487C69.6454 97.9875 70.1404 98.4615 70.5001 98.7805C70.7311 98.9861 70.7657 99.4095 70.9992 99.6086C71.3556 99.9129 71.8077 100.107 72.2193 100.348C72.2622 100.263 72.3109 100.18 72.3612 100.096C72.3918 100.145 72.4231 100.198 72.4545 100.236C72.5023 100.039 72.5576 99.8492 72.6087 99.6559C72.6822 99.5131 72.7457 99.3687 72.7696 99.2186C72.7845 99.1231 72.7968 99.0269 72.8117 98.9306C74.488 93.3706 77.9554 89.3093 83.553 86.8618C83.6033 86.9001 83.7774 87.0837 83.991 87.1848C84.2699 87.317 84.5949 87.3529 84.8738 87.4843C85.6748 87.8628 86.23 88.6273 85.7647 89.3003C85.1444 90.1945 84.3713 90.2377 84.0042 89.4088C83.9853 89.3672 83.8805 89.4374 83.8161 89.4545L83.7419 89.3844C82.992 90.1668 82.7536 90.9385 83.0307 91.681C83.6091 93.2246 86.2919 94.1921 87.9229 94.3594C88.1564 94.3831 88.3948 94.3961 88.6365 94.3961C89.8996 94.3961 91.2418 94.0494 92.3976 93.227C92.3729 93.847 92.3382 94.4663 92.2813 95.0822C91.7855 100.411 91.0785 105.707 88.6472 110.598C87.5269 112.851 86.3538 113.352 83.859 112.592C82.0251 112.032 80.2753 111.292 78.7936 110.031C78.3688 109.67 77.8366 109.063 77.3029 109.761C76.8161 110.397 77.439 110.859 77.901 111.196C78.6922 111.773 79.5023 112.35 80.3759 112.788C82.5638 113.884 84.8441 114.68 87.3396 114.224C87.5673 114.883 87.7587 115.367 87.9039 115.864C88.7759 118.868 89.6199 121.881 90.5158 124.879C90.7386 125.623 90.6874 126.603 92.2508 126.991C92.132 126.098 92.1196 125.47 91.9562 124.882C91.0504 121.618 90.0877 118.368 89.1909 115.1C88.9954 114.388 88.5755 113.693 89.1018 112.869C91.175 109.617 92.1641 105.976 92.8703 102.24C93.5369 98.7209 93.989 95.1801 93.9651 91.61C94.5863 90.6832 95.0532 89.4945 95.2752 87.9942C95.7305 84.9176 94.1796 82.2375 91.4151 81.3262Z" fill="black"/>
<path fill-rule="evenodd" clip-rule="evenodd" d="M86.0837 95.0569L87.3443 99.9887L85.5054 100.171L86.0837 95.0569Z" fill="black"/>
<path fill-rule="evenodd" clip-rule="evenodd" d="M86.0884 95.099L85.5175 100.155L87.3349 99.9753L86.0884 95.099ZM85.5068 100.174C85.5051 100.174 85.5027 100.173 85.501 100.171C85.4994 100.169 85.4985 100.166 85.4985 100.164L86.076 95.0501C86.0768 95.046 86.0801 95.0427 86.0843 95.0427C86.0884 95.0427 86.0925 95.0452 86.0933 95.0484L87.3539 99.9802C87.3547 99.9827 87.3539 99.9859 87.3531 99.9876C87.3514 99.99 87.349 99.9908 87.3465 99.9916L85.5084 100.174H85.5068Z" fill="black"/>
<path fill-rule="evenodd" clip-rule="evenodd" d="M84.6287 91.4365C84.6287 91.4365 84.7046 92.9467 84.3663 93.2632C82.9473 93.1082 79.753 93.6295 78.1509 94.3287C78.7812 92.8822 84.6287 91.4365 84.6287 91.4365Z" fill="black"/>
<path fill-rule="evenodd" clip-rule="evenodd" d="M84.6218 91.4439C84.4873 91.4782 83.0857 91.833 81.6304 92.3446C79.6397 93.0462 78.4451 93.7242 78.1696 94.3083C79.7321 93.6344 82.9033 93.0927 84.3644 93.2518C84.6787 92.9491 84.6276 91.5785 84.6218 91.4439ZM78.1523 94.3344C78.1498 94.3344 78.1481 94.3328 78.1465 94.3312C78.1432 94.3287 78.1432 94.3255 78.144 94.3214C78.4064 93.7201 79.5778 93.0495 81.6246 92.3291C83.1484 91.7931 84.6135 91.4284 84.6276 91.4251C84.6309 91.4243 84.6333 91.4251 84.635 91.4268C84.6375 91.4276 84.6391 91.43 84.6391 91.4325C84.6416 91.4945 84.7117 92.9508 84.3735 93.2665C84.3718 93.2681 84.3685 93.2698 84.366 93.2689C82.9025 93.1082 79.7107 93.6557 78.1564 94.3336C78.1547 94.3336 78.1539 94.3344 78.1523 94.3344Z" fill="black"/>
<path fill-rule="evenodd" clip-rule="evenodd" d="M82.1858 98.1977C81.7288 98.2255 81.2734 98.1414 80.8485 98.0027C81.0053 98.0484 81.1727 98.0737 81.3468 98.0737C82.2155 98.0737 82.9225 97.4602 82.9225 96.7072C82.9225 96.4037 82.6841 96.0406 82.4589 95.7893C83.5726 95.8905 84.5502 96.4641 84.9107 96.6998C84.5882 97.0784 83.5833 98.1129 82.1858 98.1977ZM79.8132 96.3319C79.7876 96.4616 79.7719 96.6036 79.7719 96.7072C79.7719 97.2538 80.144 97.7262 80.6794 97.944C79.8602 97.6438 79.1821 97.1608 78.8925 96.9356C79.0608 96.7937 79.3751 96.5554 79.8132 96.3319ZM85.2696 96.5244C85.211 96.4812 83.8135 95.4483 82.1726 95.4271C79.9171 95.4018 78.5567 96.7643 78.499 96.8222C78.466 96.8557 78.4487 96.9022 78.4503 96.9495C78.452 96.996 78.4734 97.0409 78.5089 97.0719C78.5807 97.1347 80.2199 98.5494 82.006 98.5494C82.0728 98.5494 82.1405 98.5469 82.2073 98.5428C84.0808 98.4278 85.2572 96.8312 85.3067 96.7635C85.362 96.6868 85.3455 96.5815 85.2696 96.5244Z" fill="black"/>
<path fill-rule="evenodd" clip-rule="evenodd" d="M89.8755 97.8448C89.4746 97.8725 89.0728 97.7754 88.7049 97.6237C88.7684 97.6359 88.8327 97.6441 88.8971 97.6441C89.5975 97.6441 90.1659 97.0812 90.1659 96.3893C90.1659 96.0866 90.0587 95.8027 89.8656 95.5784C89.9432 95.5735 90.0224 95.571 90.1016 95.571H90.1024C90.9851 95.571 91.7936 96.187 92.0766 96.4293C91.825 96.7744 91.0091 97.764 89.8755 97.8448ZM87.2331 96.6691C87.3247 96.5916 87.4624 96.4831 87.6398 96.364C87.6745 96.6545 87.8007 96.9465 88.0003 97.1839C88.054 97.2492 88.1117 97.3055 88.1719 97.3569C87.7471 97.1089 87.4088 96.8266 87.2331 96.6691ZM92.4305 96.2792C92.386 96.2359 91.3407 95.2251 90.1024 95.2251H90.1016C88.1851 95.2251 86.9047 96.4913 86.8511 96.5451C86.7843 96.612 86.7843 96.7197 86.8503 96.7874C86.866 96.8029 87.229 97.1693 87.7825 97.5258C88.4714 97.9704 89.1264 98.1956 89.7311 98.1956C89.7881 98.1956 89.8442 98.194 89.9003 98.1899C91.4496 98.0798 92.4157 96.5574 92.4561 96.4929C92.499 96.4244 92.4883 96.3355 92.4305 96.2792Z" fill="black"/>
<path fill-rule="evenodd" clip-rule="evenodd" d="M87.0602 91.4365C87.0602 91.4365 86.9835 92.9466 87.3225 93.2632C88.7407 93.1082 91.0251 93.4802 92.6272 94.1786C91.9969 92.7329 87.0602 91.4365 87.0602 91.4365Z" fill="black"/>
<path fill-rule="evenodd" clip-rule="evenodd" d="M88.0315 93.2167C89.4455 93.2167 91.2819 93.5839 92.611 94.159C92.3388 93.5749 91.3009 92.923 89.6048 92.2703C88.3714 91.7963 87.1925 91.4773 87.0688 91.4447C87.0638 91.5801 87.0127 92.9491 87.327 93.2518C87.5448 93.2282 87.7815 93.2167 88.0315 93.2167ZM92.6275 94.1851C92.6267 94.1851 92.625 94.1851 92.6242 94.1843C91.0609 93.5031 88.7831 93.109 87.3245 93.2689C87.322 93.2698 87.3195 93.2681 87.3179 93.2673C87.1752 93.1335 87.0877 92.7851 87.0564 92.2287C87.0333 91.8159 87.0523 91.4365 87.0523 91.4325C87.0523 91.4308 87.0539 91.4284 87.0556 91.4268C87.058 91.4251 87.0605 91.4243 87.0638 91.4251C87.0754 91.4284 88.3128 91.7547 89.6114 92.254C90.8109 92.7158 92.3091 93.4231 92.6357 94.1729C92.6374 94.1762 92.6366 94.1802 92.6341 94.1827C92.6324 94.1843 92.63 94.1851 92.6275 94.1851Z" fill="black"/>
<path fill-rule="evenodd" clip-rule="evenodd" d="M83.0737 101.998C83.9457 102.814 84.6544 103.268 85.8358 103.345C87.0171 103.424 87.8446 102.996 87.8446 102.996C87.8446 102.996 86.8992 104.583 85.7566 104.877C83.3938 105.488 83.5052 103.655 83.0737 101.998Z" fill="black"/>
<path fill-rule="evenodd" clip-rule="evenodd" d="M83.0879 102.03C83.1556 102.291 83.2092 102.557 83.2612 102.814C83.4328 103.656 83.5945 104.452 84.1612 104.801C84.5325 105.031 85.053 105.055 85.7526 104.874C86.8003 104.603 87.693 103.225 87.82 103.021C87.6674 103.093 86.8861 103.427 85.8335 103.359C84.6455 103.28 83.9476 102.831 83.0879 102.03ZM84.9285 105.011C84.6191 105.011 84.3617 104.946 84.1522 104.816C83.5788 104.462 83.4163 103.663 83.2438 102.817C83.1902 102.551 83.1341 102.275 83.064 102.005C83.0624 102.001 83.0648 101.998 83.0681 101.995C83.0706 101.994 83.0756 101.994 83.078 101.997C83.9459 102.808 84.6414 103.262 85.8351 103.341C87.0008 103.418 87.8307 102.997 87.839 102.993C87.8431 102.991 87.8472 102.992 87.8489 102.995C87.8522 102.997 87.8522 103.001 87.8505 103.005C87.8415 103.021 86.8903 104.597 85.7576 104.891C85.4474 104.97 85.1718 105.011 84.9285 105.011Z" fill="black"/>
<path fill-rule="evenodd" clip-rule="evenodd" d="M93.56 100.171C93.1181 100.556 92.5976 100.693 91.9658 100.592C89.4584 100.189 87.994 97.7473 87.429 95.5042C91.0488 95.3407 94.1657 95.2003 95.0225 95.1624C95.0133 96.0114 94.8873 99.0138 93.56 100.171ZM85.293 96.5805C85.3912 96.2682 85.4801 95.9431 85.5625 95.604C85.9302 95.6105 86.5786 95.5957 86.9797 95.5467C87.0529 95.8405 87.139 96.1361 87.2409 96.4308L85.293 96.5805ZM81.2063 100.763C78.7405 100.996 76.6082 98.9732 76.171 96.0253C78.4876 95.9144 81.8463 95.7592 85.1022 95.6105C84.6816 97.2844 83.5645 100.537 81.2063 100.763ZM95.4681 94.9241L95.4616 94.6978L95.2356 94.7079C95.1652 94.7116 91.5842 94.8714 87.3271 95.0645L87.3187 95.0276L87.1187 95.0737C86.5518 95.0996 85.9738 95.1255 85.3912 95.1523L85.2133 95.1403L85.2078 95.1606C81.7972 95.3158 78.257 95.4793 75.907 95.5929L75.6699 95.6049L75.6977 95.8405C75.8783 97.4064 76.5304 98.8171 77.5327 99.8129C78.458 100.732 79.6121 101.225 80.8219 101.225C80.9636 101.225 81.1062 101.218 81.2479 101.204C82.8884 101.048 84.2657 99.5543 85.1429 97.0378L87.4012 96.8641C88.182 98.8346 89.6483 100.669 91.8945 101.031C92.6541 101.152 93.3126 100.976 93.8527 100.505C94.5761 99.8758 95.0661 98.7395 95.3125 97.1302C95.4922 95.9514 95.469 94.9657 95.4681 94.9241Z" fill="#F7B500"/>
<path fill-rule="evenodd" clip-rule="evenodd" d="M247.454 196.429C247.436 196.562 247.419 196.695 247.403 196.829C246.31 196.829 245.213 196.891 244.128 196.809C243.26 196.744 243.337 196.204 243.689 195.501C244.996 195.824 246.225 196.126 247.454 196.429ZM220.664 193.139C221.932 191.517 222.92 190.255 223.907 188.992C224.053 189.075 224.198 189.158 224.344 189.241C223.83 190.529 223.316 191.816 222.788 193.139H220.664ZM216.292 192.651C218.195 190.703 220.303 189.291 222.472 187.912C221.732 189.506 220.578 190.789 219.501 192.133C218.669 193.171 217.724 193.276 216.292 192.651ZM212.053 193.064C212.399 192.321 212.432 192.096 212.564 191.988C214.678 190.242 216.79 188.492 218.94 186.791C219.493 186.353 220.19 186.325 221.432 186.711C220.721 187.19 220.316 187.407 219.976 187.699C218.095 189.308 216.265 190.978 214.332 192.521C213.875 192.885 213.082 192.837 212.053 193.064ZM237.983 193.847C233.503 193.592 229.048 193.804 224.49 193.124C225.397 190.764 226.226 188.608 227.111 186.305C231.41 188.097 233.936 191.989 237.983 193.847ZM241.478 196.008C239.084 196.678 199.505 195.942 197.768 195.471C198.096 194.399 198.095 194.382 199.282 194.375C212.468 194.295 225.636 194.735 238.788 195.65C239.689 195.713 240.581 195.886 241.478 196.008ZM219.824 181.174C220.053 179.627 220.191 178.498 220.397 177.379C220.517 176.73 220.995 176.367 221.662 176.387C222.177 176.402 222.701 176.486 223.202 176.615C230.576 178.515 237.948 180.424 245.317 182.341C245.865 182.484 246.391 182.711 246.99 182.919C246.89 183.925 246.804 184.797 246.691 185.914C245.598 185.431 244.771 185.072 243.949 184.699C241.323 183.508 238.697 182.319 236.076 181.117C232.794 179.613 229.434 179.275 225.899 180.175C224.075 180.639 222.171 180.8 219.824 181.174ZM306.891 178.599C316.808 180.914 326.013 180.267 334.155 173.303C334.84 175.152 335.418 176.708 336.065 178.454C335.069 178.765 334.342 179.034 333.594 179.219C325.802 181.143 317.878 181.849 309.866 181.631C307.48 181.567 307.416 181.449 306.891 178.599ZM172.762 140.933L173.074 140.761C173.331 141.071 173.657 141.349 173.834 141.7C174.717 143.446 175.616 145.187 176.412 146.974C179.437 153.764 182.41 160.577 185.432 167.369C187.5 172.013 189.674 176.613 191.693 181.279C193.168 184.687 194.471 188.169 195.843 191.622C195.959 191.913 196.016 192.227 196.109 192.555C194.716 193.31 194.46 192.248 194.121 191.452C187.164 175.136 180.217 158.818 173.275 142.497C173.062 141.992 172.931 141.454 172.762 140.933ZM205.62 187.879C205.58 187.739 205.54 187.599 205.501 187.459C205.94 187.232 206.36 186.955 206.819 186.784C212.866 184.521 219.004 182.613 225.499 182.091C225.947 182.055 226.394 181.923 226.827 181.789C229.166 181.063 231.51 180.946 233.79 181.919C237.115 183.336 240.426 184.788 243.697 186.32C245.158 187.004 246.599 187.394 248.238 187.403C254.106 187.437 259.975 187.585 265.843 187.69C267.209 187.713 268.579 187.803 269.942 187.74C283.667 187.103 297.365 187.417 311.034 188.825C312.213 188.946 313.387 189.129 314.569 189.222C315.179 189.271 316.088 189.589 316.228 188.701C316.372 187.786 315.458 187.854 314.822 187.773C314.692 187.756 314.56 187.745 314.429 187.727C312.614 187.473 310.8 187.219 308.988 186.964C308.731 185.657 308.501 184.487 308.234 183.132C316.838 183.468 325.115 182.582 333.34 180.908C333.587 181.626 333.795 182.104 333.915 182.603C335.395 188.816 336.936 195.021 337.355 201.421C337.54 204.279 337.811 207.138 337.169 209.995C336.599 212.53 335.173 214.335 332.872 215.529C330.849 216.578 328.693 217.083 326.422 217.181C320.647 217.427 315.2 215.975 309.814 214.128C299.798 210.693 290.267 206.002 280.112 202.939C277.298 202.09 274.432 201.411 271.589 200.655C271.525 200.638 271.459 200.631 271.395 200.618C268.109 199.94 264.799 199.36 261.544 198.563C255.663 197.126 249.822 195.528 243.949 194.057C239.977 193.062 236.43 191.334 233.347 188.632C232.072 187.514 230.659 186.534 229.232 185.606C228.063 184.846 226.727 184.436 225.295 184.514C221.942 184.695 218.593 184.843 215.335 185.814C213.384 186.397 211.388 186.846 209.396 187.28C208.152 187.551 206.879 187.684 205.62 187.879ZM307.485 186.777C306.902 186.802 306.645 186.837 306.391 186.821C295.267 186.116 284.148 185.73 272.988 186.093C265.023 186.352 257.036 185.989 249.06 185.89C248.821 185.887 248.584 185.732 248.264 185.618C248.481 183.37 248.643 181.161 248.918 178.967C249.299 175.919 249.242 173.701 248.51 172.304C247.207 173.602 247.843 175.166 247.658 176.524C247.45 178.042 247.309 179.57 247.116 181.296C239.019 179.161 231.212 177.102 223.272 175.007C223.429 174.435 223.529 173.936 223.7 173.463C226.29 166.284 228.827 159.086 231.509 151.941C233.412 146.871 235.556 141.89 237.512 136.84C239.15 132.614 242.006 129.853 246.597 129.053C250.551 128.365 254.505 127.678 258.471 127.071C260.405 126.776 262.368 126.663 264.39 126.46C264.633 127.337 264.756 128.045 265.023 128.694C265.814 130.616 266.401 132.685 267.539 134.39C270.281 138.498 275.026 140.389 280.092 137.46C282.214 136.234 284.201 134.844 285.801 132.988C287.461 131.064 289.051 129.082 290.748 127.032C298.908 128.214 306.65 130.855 313.92 134.8C318.336 137.196 321.511 140.82 323.49 145.406C324.395 147.499 325.243 149.629 325.938 151.798C327.787 157.575 329.532 163.385 331.331 169.177C332.559 173.131 332.586 173.16 328.859 175.193C322.599 178.606 315.945 178.994 309.104 177.489C306.156 176.841 306.176 176.756 305.153 173.947C304.797 172.967 304.49 171.964 304.052 171.019C303.907 170.706 303.428 170.543 303.101 170.311C302.974 170.702 302.748 171.093 302.745 171.486C302.743 171.855 302.983 172.223 303.104 172.595C304.393 176.563 305.688 180.531 306.958 184.505C307.171 185.172 307.279 185.873 307.485 186.777ZM221.751 174.668C219.351 175.016 219.371 175.02 218.925 177.105C218.599 178.625 218.211 180.131 217.849 181.644C216.401 182.062 214.953 182.479 213.504 182.897C210.022 183.903 206.567 184.985 203.356 186.694C202.676 187.057 201.704 187.309 201.832 188.267C201.98 189.37 203.022 189.312 203.87 189.36C206.607 189.516 209.236 188.866 211.873 188.279C212.821 188.068 213.771 187.871 215.145 187.575C214.632 188.171 214.426 188.453 214.176 188.692C212.856 189.958 211.546 191.235 210.181 192.453C209.879 192.723 209.374 192.895 208.962 192.898C205.729 192.923 202.496 192.875 199.264 192.899C198.404 192.905 197.937 192.555 197.625 191.797C196.704 189.565 195.666 187.377 194.82 185.119C192.689 179.428 190.248 173.881 187.649 168.383C184.217 161.123 181.095 153.719 177.805 146.394C176.895 144.37 175.889 142.387 174.865 140.416C174.238 139.21 172.448 138.725 171.317 139.405C170.701 139.776 170.723 140.33 170.99 140.946C171.771 142.742 172.516 144.555 173.284 146.357C180.092 162.335 186.902 178.311 193.709 194.289C193.911 194.761 194.075 195.249 194.359 196C193.514 196.029 192.832 196.08 192.15 196.072C183.511 195.953 174.873 195.826 166.233 195.704C165.705 195.696 165.158 195.63 164.658 195.747C164.347 195.82 164.109 196.191 163.838 196.427C164.088 196.667 164.307 197.052 164.597 197.116C165.167 197.242 165.776 197.201 166.37 197.21C175.142 197.345 183.914 197.481 192.686 197.611C210.099 197.871 227.511 198.125 244.924 198.384C247.825 198.427 250.736 198.638 253.624 198.469C255.141 198.381 256.412 198.713 257.724 199.558C257.049 199.558 256.374 199.566 255.698 199.556C239.406 199.329 223.113 199.091 206.821 198.874C193.431 198.696 180.039 198.539 166.648 198.39C165.917 198.382 165.185 198.533 164.453 198.611C164.418 198.762 164.384 198.914 164.349 199.065C164.663 199.311 164.946 199.679 165.301 199.772C165.797 199.904 166.347 199.836 166.875 199.843C189.501 200.141 212.127 200.437 234.752 200.736C243.328 200.849 251.904 200.979 260.479 201.065C261.378 201.074 262.276 200.81 263.18 200.731C263.627 200.693 264.097 200.736 264.537 200.831C269.685 201.948 274.87 202.933 279.961 204.267C282.935 205.046 285.763 206.374 288.645 207.483C296.137 210.361 303.582 213.366 311.126 216.104C316.16 217.931 321.399 218.975 326.829 218.649C329.299 218.502 331.643 217.927 333.82 216.74C336.25 215.412 337.703 213.432 338.585 210.788C339.696 207.455 338.951 204.206 338.731 200.92C338.284 194.256 336.61 187.811 335.052 181.349C334.992 181.103 334.997 180.841 334.977 180.631C335.107 180.489 335.175 180.357 335.282 180.309C337.764 179.198 337.832 179.104 336.955 176.473C336.566 175.302 336.065 174.163 335.556 173.035C335.374 172.632 335.077 172.065 334.735 171.986C333.429 171.69 333.289 170.661 332.985 169.678C330.998 163.261 329.106 156.811 326.956 150.446C325.939 147.434 324.596 144.498 323.093 141.687C320.963 137.704 317.535 134.896 313.547 132.855C306.539 129.269 299.085 126.907 291.36 125.348C290.272 125.129 289.785 125.735 289.254 126.414C288.084 127.909 286.924 129.412 285.748 130.903C284.062 133.041 281.951 134.687 279.629 136.102C275.6 138.555 271.948 137.349 269.269 134.177C267.399 131.962 266.584 129.273 266.067 126.487C265.788 124.988 265.608 124.775 264.175 124.919C258.274 125.513 252.4 126.204 246.582 127.452C241.281 128.589 237.985 131.648 236.119 136.526C233.088 144.45 229.972 152.341 226.964 160.274C225.16 165.033 223.494 169.841 221.751 174.668Z" fill="black"/>
<path fill-rule="evenodd" clip-rule="evenodd" d="M298.08 103.644C299.038 105.063 297.888 105.521 298.592 107.546C298.734 107.955 298.963 108.278 299.246 108.552C299.232 108.265 299.249 107.935 299.269 107.576C299.332 106.426 299.409 104.994 298.629 103.565C298.158 102.702 297.213 102.208 295.83 102.061C296.704 102.31 297.497 102.781 298.08 103.644ZM306.173 111.97C307.071 112.966 307.54 114.14 307.568 115.289C307.703 114.168 307.646 112.6 306.652 111.331C305.471 109.824 303.263 109.779 301.63 109.757C303.196 110.25 304.989 110.656 306.173 111.97ZM306.507 119.565C307.722 118.872 307.405 117.36 307.285 116.93C306.958 117.794 306.347 118.58 305.431 119.18C304.884 119.537 304.303 119.845 303.738 120.179C303.304 120.435 303.083 120.74 303.014 121.162C303.467 120.832 304.134 120.57 304.832 120.301C305.414 120.077 306.016 119.845 306.507 119.565ZM264.206 88.37C264.815 85.8034 266.616 84.0681 269.278 84.3357C270.718 84.4809 272.568 84.1668 273.981 84.0485C278.136 83.7001 281.187 85.7707 284.005 88.729C285.163 89.9438 285.883 91.3405 286.173 93.0195C286.429 94.4938 286.596 95.7991 286.55 97.1363C286.924 97.0727 287.111 97.062 287.283 97.0058C289.679 96.2217 291.505 97.5556 291.412 100.051C291.38 100.929 291.154 101.707 290.757 102.372C290.823 102.359 290.917 102.339 291.047 102.31C291.61 102.182 292.14 102.083 292.646 102.004C293.194 101.885 293.755 101.809 294.348 101.831C296.641 101.721 298.149 102.257 298.81 103.468C299.618 104.947 299.535 106.473 299.474 107.587C299.449 108.053 299.429 108.452 299.471 108.76C299.891 109.093 300.415 109.333 300.986 109.541C301.174 109.546 301.371 109.549 301.578 109.553C303.258 109.575 305.559 109.606 306.815 111.206C308.529 113.394 307.575 116.423 307.454 116.777C307.543 117.055 308.065 118.912 306.61 119.742C306.106 120.03 305.496 120.265 304.906 120.492C304.139 120.787 303.407 121.073 302.996 121.438C302.994 121.551 302.989 121.66 303.006 121.79C303.281 124.001 302.046 125.538 299.814 125.906C299.106 126.022 298.372 126.023 297.651 126.012C295.81 125.985 293.971 125.876 292.131 125.886C291.524 125.889 291.002 125.773 290.557 125.551C290.542 125.904 290.515 126.265 290.515 126.634C289.217 126.59 289.267 125.794 289.121 125.12C287.746 118.811 286.693 112.453 286.115 106.021C285.934 104.011 285.957 103.95 287.911 102.948C289.415 102.178 290.288 100.524 289.752 99.2591C289.569 98.8284 289.122 98.2964 288.722 98.2271C288.367 98.1667 287.872 98.6399 287.512 98.9589C287.307 99.1408 286.442 100.039 285.96 100.409C285.779 100.891 285.577 101.284 285.306 102.138C284.745 101.284 280.221 93.0301 275.607 90.1934C274.056 89.2389 272.948 88.2297 271.426 87.1495C270.363 88.1024 270.35 88.7225 268.484 91.0697C267.688 92.0054 266.625 92.7862 265.624 93.7301C265.649 94.2417 265.683 94.7524 265.731 95.2607C266.227 100.589 266.933 105.886 269.365 110.777C270.485 113.03 271.659 113.531 274.153 112.771C275.988 112.211 277.737 111.471 279.219 110.209C279.643 109.849 280.175 109.241 280.708 109.939C281.195 110.576 280.573 111.038 280.112 111.374C279.32 111.951 278.51 112.529 277.637 112.966C275.448 114.063 273.169 114.859 270.672 114.403C270.445 115.062 270.253 115.545 270.109 116.043C269.236 119.047 268.393 122.06 267.496 125.058C267.273 125.802 267.325 126.782 265.761 127.169C265.881 126.277 265.892 125.649 266.056 125.061C266.962 121.796 267.924 118.547 268.821 115.279C269.017 114.566 269.436 113.872 268.911 113.048C266.837 109.797 265.849 106.155 265.142 102.42C264.699 100.076 264.352 97.7229 264.173 95.3586C264.171 95.3618 264.17 95.3635 264.169 95.3659C263.819 92.9828 263.747 90.3134 264.206 88.37Z" fill="black"/>
<path fill-rule="evenodd" clip-rule="evenodd" d="M271.833 95.0696L270.573 100.001L272.412 100.183L271.833 95.0696Z" fill="black"/>
<path fill-rule="evenodd" clip-rule="evenodd" d="M271.83 95.1095L272.401 100.165L270.583 99.9858L271.83 95.1095ZM272.411 100.184C272.413 100.184 272.415 100.183 272.417 100.182C272.419 100.179 272.42 100.177 272.42 100.174L271.842 95.0606C271.841 95.0565 271.838 95.0532 271.834 95.0532C271.83 95.0532 271.826 95.0557 271.825 95.0589L270.564 99.9907C270.563 99.9932 270.564 99.9965 270.565 99.9981C270.567 100.001 270.569 100.001 270.572 100.002L272.41 100.184H272.411Z" fill="black"/>
<path fill-rule="evenodd" clip-rule="evenodd" d="M273.017 92.3985C273.017 92.3985 273.362 93.8706 273.774 94.0812C275.095 93.5395 278.309 93.1563 280.042 93.3847C279.036 92.1691 273.017 92.3985 273.017 92.3985Z" fill="black"/>
<path fill-rule="evenodd" clip-rule="evenodd" d="M273.025 92.4035C273.164 92.3992 274.609 92.3523 276.149 92.441C278.256 92.5642 279.592 92.8851 280.018 93.3701C278.33 93.155 275.133 93.5123 273.773 94.0696C273.387 93.8657 273.057 92.5345 273.025 92.4035ZM280.042 93.3904C280.044 93.3897 280.045 93.3877 280.047 93.3857C280.049 93.3824 280.048 93.3793 280.046 93.3756C279.628 92.8704 278.316 92.5502 276.15 92.4245C274.538 92.3312 273.029 92.3864 273.014 92.3871C273.011 92.3872 273.009 92.3887 273.008 92.3907C273.005 92.3922 273.005 92.395 273.005 92.3974C273.02 92.4576 273.356 93.8764 273.768 94.0862C273.77 94.0873 273.774 94.088 273.776 94.0865C275.138 93.5269 278.356 93.1695 280.038 93.3908C280.039 93.3903 280.04 93.3909 280.042 93.3904Z" fill="black"/>
<path fill-rule="evenodd" clip-rule="evenodd" d="M275.733 98.2082C276.19 98.236 276.645 98.1519 277.07 98.0132C276.913 98.0589 276.746 98.0842 276.572 98.0842C275.703 98.0842 274.996 97.4707 274.996 96.7177C274.996 96.4142 275.234 96.0511 275.46 95.7998C274.346 95.901 273.368 96.4745 273.008 96.7103C273.33 97.0889 274.335 98.1234 275.733 98.2082ZM278.105 96.3424C278.131 96.4721 278.147 96.6141 278.147 96.7177C278.147 97.2643 277.775 97.7367 277.239 97.9545C278.058 97.6543 278.737 97.1713 279.026 96.9461C278.858 96.8041 278.543 96.5659 278.105 96.3424ZM272.649 96.5349C272.708 96.4917 274.105 95.4588 275.746 95.4376C278.001 95.4123 279.362 96.7748 279.42 96.8327C279.453 96.8661 279.47 96.9127 279.468 96.96C279.467 97.0065 279.445 97.0513 279.41 97.0823C279.338 97.1452 277.699 98.5598 275.913 98.5598C275.846 98.5598 275.778 98.5574 275.711 98.5533C273.838 98.4383 272.661 96.8417 272.612 96.774C272.557 96.6973 272.573 96.592 272.649 96.5349Z" fill="black"/>
<path fill-rule="evenodd" clip-rule="evenodd" d="M268.043 97.8553C268.443 97.883 268.845 97.7859 269.213 97.6342C269.15 97.6464 269.085 97.6546 269.021 97.6546C268.321 97.6546 267.752 97.0916 267.752 96.3998C267.752 96.0971 267.859 95.8132 268.052 95.5889C267.975 95.584 267.896 95.5815 267.816 95.5815H267.816C266.933 95.5815 266.124 96.1975 265.841 96.4398C266.093 96.7849 266.909 97.7745 268.043 97.8553ZM270.685 96.6796C270.593 96.6021 270.456 96.4936 270.278 96.3745C270.244 96.665 270.117 96.957 269.918 97.1944C269.864 97.2597 269.806 97.316 269.746 97.3674C270.171 97.1194 270.509 96.8371 270.685 96.6796ZM265.488 96.2897C265.532 96.2464 266.577 95.2356 267.816 95.2356H267.816C269.733 95.2356 271.013 96.5018 271.067 96.5556C271.134 96.6225 271.134 96.7302 271.068 96.7979C271.052 96.8134 270.689 97.1798 270.136 97.5363C269.447 97.9809 268.792 98.2061 268.187 98.2061C268.13 98.2061 268.074 98.2045 268.018 98.2004C266.468 98.0902 265.502 96.5679 265.462 96.5034C265.419 96.4349 265.43 96.346 265.488 96.2897Z" fill="black"/>
<path fill-rule="evenodd" clip-rule="evenodd" d="M271.157 92.4696C271.157 92.4696 270.718 93.9165 270.291 94.0995C269.01 93.4733 266.734 93.0496 264.99 93.164C266.073 92.0172 271.157 92.4696 271.157 92.4696Z" fill="black"/>
<path fill-rule="evenodd" clip-rule="evenodd" d="M269.64 93.8157C268.31 93.3367 266.457 93.0601 265.012 93.1511C265.466 92.6937 266.663 92.4319 268.48 92.3924C269.801 92.3641 271.019 92.4633 271.146 92.4745C271.105 92.6036 270.689 93.909 270.291 94.0873C270.094 93.9913 269.875 93.9004 269.64 93.8157ZM264.988 93.1701C264.989 93.1704 264.99 93.1709 264.991 93.1704C266.693 93.059 268.969 93.4598 270.288 94.1043C270.29 94.1059 270.293 94.1052 270.294 94.105C270.474 94.0274 270.674 93.7293 270.892 93.2164C271.054 92.8358 271.164 92.4724 271.166 92.4686C271.166 92.4671 271.166 92.4642 271.165 92.4621C271.163 92.4597 271.161 92.4581 271.157 92.4578C271.145 92.4569 269.871 92.3448 268.48 92.3748C267.195 92.4029 265.545 92.561 264.984 93.1558C264.981 93.1583 264.981 93.1624 264.982 93.1656C264.983 93.1677 264.985 93.1693 264.988 93.1701Z" fill="black"/>
<path fill-rule="evenodd" clip-rule="evenodd" d="M274.843 102.009C273.971 102.825 273.263 103.278 272.081 103.356C270.9 103.434 270.073 103.007 270.073 103.007C270.073 103.007 271.018 104.593 272.161 104.888C274.523 105.499 274.412 103.666 274.843 102.009Z" fill="black"/>
<path fill-rule="evenodd" clip-rule="evenodd" d="M274.83 102.04C274.763 102.301 274.709 102.567 274.657 102.824C274.485 103.666 274.324 104.462 273.757 104.812C273.386 105.042 272.865 105.065 272.165 104.884C271.118 104.613 270.225 103.235 270.098 103.031C270.251 103.103 271.032 103.438 272.085 103.369C273.273 103.29 273.971 102.841 274.83 102.04ZM272.99 105.021C273.299 105.021 273.556 104.956 273.766 104.826C274.339 104.472 274.502 103.674 274.674 102.828C274.728 102.562 274.784 102.286 274.854 102.016C274.856 102.012 274.853 102.008 274.85 102.006C274.847 102.004 274.843 102.004 274.84 102.008C273.972 102.819 273.277 103.273 272.083 103.351C270.917 103.429 270.087 103.008 270.079 103.004C270.075 103.001 270.071 103.002 270.069 103.005C270.066 103.008 270.066 103.012 270.068 103.015C270.077 103.031 271.028 104.608 272.161 104.901C272.471 104.981 272.746 105.021 272.99 105.021Z" fill="black"/>
<path fill-rule="evenodd" clip-rule="evenodd" d="M142.102 81.4553C142.665 81.3842 143.222 81.2722 143.783 81.2511C145.001 81.2045 146.222 81.2426 147.438 81.1781C152.302 80.9198 157.163 80.6059 162.028 80.3692C166.565 80.149 171.046 79.5043 175.46 78.5062C181.906 77.0503 188.325 75.4833 194.619 73.441C200.86 71.4156 206.553 68.3918 211.913 64.687C212.697 64.1453 213.007 63.4818 212.999 62.6094C212.992 61.896 212.977 61.1788 212.904 60.4692C212.742 58.8994 212.554 57.3319 212.354 55.7663C211.827 51.6573 210.895 47.6306 209.74 43.6548C207.579 36.2089 204.466 29.1725 200.483 22.4965C199.387 20.6594 197.858 19.6641 195.789 19.298C191.542 18.5456 187.239 18.4369 182.947 18.2096C181.582 18.1371 180.202 18.1555 178.84 18.2628C174.819 18.5776 170.807 19.0048 166.786 19.2999C162.225 19.6345 157.723 20.3803 153.205 21.0255C150.306 21.4391 147.397 21.7986 144.506 22.2645C140.192 22.96 135.867 23.6273 131.586 24.4955C127.789 25.2658 124.034 26.2493 120.282 27.2205C117.637 27.9057 115.012 28.6826 112.409 29.5108C111.371 29.8412 110.388 30.3767 109.426 30.9014C108.332 31.4976 107.944 32.4754 108.191 33.6791C108.396 34.673 108.578 35.6772 108.867 36.648C109.77 39.6747 110.744 42.6807 111.644 45.7079C113.369 51.511 114.874 57.379 116.94 63.0814C118.067 66.1914 118.892 69.4082 120.394 72.3855C121.365 74.3064 122.329 76.2192 123.775 77.8554C124.419 78.5843 125.143 79.1777 126.103 79.3932C128.066 79.8337 130.032 80.2638 132.072 80.1631C132.639 80.1349 133.211 80.229 133.781 80.2365C134.633 80.2487 135.197 80.6614 135.603 81.3791C136.776 83.4538 137.847 85.5648 138.234 87.9473C138.279 88.2273 138.384 88.4974 138.528 89.0075C140.167 86.5916 141.411 84.2594 142.102 81.4553ZM143.655 82.8063C143.028 84.1206 142.437 85.297 141.903 86.4984C141.08 88.3473 139.831 89.9063 138.581 91.4747C138.08 92.1034 137.52 92.254 136.655 91.9325C136.655 91.2526 136.668 90.5491 136.653 89.846C136.6 87.2635 135.885 84.8909 134.398 82.7442C133.987 82.1522 133.503 81.9423 132.792 81.8868C130.71 81.724 128.625 81.5372 126.559 81.2402C124.153 80.8948 122.311 79.5857 121.099 77.5331C120.124 75.8814 119.193 74.1835 118.459 72.4184C115.754 65.9095 113.54 59.2373 111.78 52.413C110.774 48.5181 109.529 44.6844 108.489 40.7979C107.829 38.3312 107.309 35.8254 106.802 33.3224C106.555 32.098 107.217 31.1333 108.101 30.363C109.438 29.1993 111.085 28.5673 112.719 27.9532C115.462 26.9222 118.321 26.2865 121.174 25.6239C124.541 24.8418 127.872 23.8936 131.255 23.1906C135.235 22.3638 139.249 21.6942 143.258 21.0085C146.892 20.3874 150.541 19.8528 154.178 19.2514C158.834 18.4806 163.502 17.8237 168.218 17.5282C172.015 17.291 175.807 16.9437 179.607 16.7767C184.175 16.5753 188.741 16.6986 193.265 17.4463C194.986 17.7305 196.693 18.1037 198.398 18.4764C198.781 18.5606 199.146 18.7813 199.486 18.9921C202.148 20.6382 203.916 23.0489 205.436 25.6978C207.006 28.4327 208.065 31.3385 208.854 34.3784C209.59 37.2155 210.529 40.0008 211.364 42.8134C212.426 46.3916 213.046 50.0639 213.619 53.7396C214.118 56.9329 214.47 60.1488 214.932 63.3482C215.025 63.99 214.726 64.3411 214.305 64.6837C210.712 67.6092 206.957 70.2783 202.658 72.1403C195.39 75.2889 187.934 77.87 180.118 79.2982C175.408 80.1589 170.677 80.9584 165.923 81.5212C160.486 82.1644 155.017 82.563 149.554 82.9635C147.86 83.0877 146.14 82.867 144.433 82.8077C144.17 82.7983 143.906 82.8063 143.655 82.8063Z" fill="black"/>
<path fill-rule="evenodd" clip-rule="evenodd" d="M145.927 30.0464C145.386 32.8149 146.285 36.3972 147.784 37.6327C148.753 34.7713 147.507 32.5025 145.927 30.0464ZM148.51 38.5689C150.751 39.8432 153.004 40.2802 155.417 39.4935C156.478 39.1475 157.241 38.4102 157.762 37.4501C158.031 36.9561 158.256 36.4378 158.54 35.9527C158.976 35.2107 159.436 35.0702 159.991 35.6702C161.065 36.83 162.338 37.0089 163.764 36.6012C164.936 36.266 166.09 35.8682 167.238 35.4586C167.629 35.319 167.974 35.0646 168.444 35.4148C168.191 36.2202 167.439 36.5144 166.821 36.7857C165.996 37.148 165.059 37.2722 164.17 37.4982C162.464 37.9315 160.821 38.0217 159.429 36.5494C159.257 36.7936 159.101 36.9528 159.017 37.1415C157.434 40.7033 154.096 41.3981 150.878 40.6771C149.882 40.4539 148.939 40.0029 147.848 39.6116C147.771 39.677 147.568 39.8329 147.384 40.0071C144.754 42.4926 141.727 43.4185 138.237 41.9967C136.649 41.3495 135.297 41.4695 133.923 42.4384C133.311 42.8703 132.6 43.2 131.889 43.4624C130.781 43.8719 129.77 43.6058 128.931 42.7956C128.523 42.4015 128.16 41.9631 127.758 41.5634C127.133 40.9414 126.828 40.8807 126.23 41.5405C125.526 42.3166 124.956 43.2079 124.343 44.0601C124.121 44.3697 124.105 45.0229 123.55 44.8049C122.938 44.5653 123.27 43.9919 123.495 43.6609C124.167 42.671 124.831 41.6521 125.661 40.7939C126.63 39.7909 127.534 39.8759 128.545 40.8415C128.956 41.2333 129.349 41.6432 129.759 42.0364C130.265 42.5225 130.866 42.7177 131.548 42.4604C132.151 42.2325 132.801 42.0411 133.313 41.6778C135.061 40.4357 136.823 40.3255 138.833 41.1235C141.621 42.2306 144.771 41.4252 146.713 39.3174C146.836 39.1839 146.928 39.0242 147.047 38.8575C146.652 38.271 146.206 37.7471 145.913 37.1522C144.694 34.6817 144.505 32.0645 144.909 29.3945C144.956 29.084 145.252 28.7053 145.538 28.5723C145.717 28.4891 146.207 28.7338 146.362 28.9589C147.627 30.7921 148.789 32.6682 149.087 34.9329C149.248 36.1595 148.982 37.2974 148.51 38.5689Z" fill="black"/>
<path fill-rule="evenodd" clip-rule="evenodd" d="M177.28 49.8534C177.28 49.1324 177.367 48.4894 177.258 47.8828C177.12 47.1173 176.907 46.3395 176.569 45.6444C176.225 44.9381 175.695 45.0057 175.351 45.7083C174.565 47.3174 175.433 49.3921 177.28 49.8534ZM189.812 45.599C189.438 46.9541 188.897 48.143 187.871 49.0519C186.569 50.2059 185.046 50.9146 183.366 51.2974C181.503 51.7218 179.63 51.6906 177.818 51.34C177.071 52.0464 176.423 52.7953 175.646 53.3707C172.606 55.6228 169.362 56.165 165.905 54.3382C165.566 54.1594 164.963 54.0505 165.213 53.5116C165.455 52.9926 165.941 53.3522 166.308 53.4828C167.051 53.7468 167.763 54.1504 168.526 54.2966C171.876 54.9372 174.428 53.488 176.745 51.0197C176.327 50.7325 175.997 50.5125 175.674 50.2835C173.839 48.9862 173.811 46.8443 174.374 45.4235C174.622 44.7956 174.987 44.2615 175.728 44.2198C176.524 44.1754 177.089 44.5785 177.451 45.2787C178.075 46.4847 178.271 47.7816 178.253 49.1205C178.248 49.4579 178.207 49.7947 178.18 50.1619C178.316 50.2485 178.43 50.3762 178.559 50.3951C181.289 50.7826 183.895 50.4656 186.278 48.9743C187.545 48.1818 188.411 47.0842 188.771 45.6061C188.905 45.0549 188.852 44.5979 188.457 44.1408C188.118 43.7477 187.812 43.2821 187.65 42.7962C187.554 42.5062 187.657 42.0146 187.863 41.7894C188.195 41.426 188.693 41.5992 188.957 41.9356C189.272 42.3358 189.57 42.8184 189.665 43.3067C189.792 43.9573 190.099 44.4015 190.603 44.7791C191.85 45.713 193.154 46.5178 194.69 46.8921C195.449 47.0771 196.181 47.0804 196.907 46.787C197.012 46.7445 197.112 46.6882 197.22 46.6565C197.555 46.5581 197.96 46.4544 198.055 46.8987C198.094 47.0794 197.814 47.4371 197.596 47.5469C196.499 48.1 195.341 48.0692 194.179 47.7712C192.847 47.4281 191.662 46.779 190.534 46.0073C190.324 45.863 190.09 45.7547 189.812 45.599Z" fill="black"/>
<path fill-rule="evenodd" clip-rule="evenodd" d="M143.349 57.8843C142.92 57.6991 142.815 57.3647 143.105 57.0374C144.206 55.7925 145.421 54.6579 147.273 54.6263C147.965 54.6139 148.672 54.8022 149.352 54.9687C150.436 55.2332 151.492 55.6068 152.581 55.8441C154.712 56.3085 156.823 55.9114 158.918 55.5556C159.831 55.4006 160.715 55.0938 161.612 54.8556C161.756 54.8173 161.912 54.7212 162.04 54.7479C162.264 54.7951 162.47 54.9162 162.684 55.0066C162.591 55.1833 162.541 55.4104 162.393 55.524C162.197 55.6749 161.933 55.7591 161.685 55.8339C158.852 56.6874 155.968 57.2814 152.984 56.8865C151.777 56.7262 150.573 56.3851 149.432 55.9657C147.435 55.2314 145.785 55.5787 144.38 57.0966C144.135 57.3616 143.85 57.5944 143.576 57.8327C143.529 57.8732 143.437 57.8661 143.349 57.8843Z" fill="black"/>
</g>
<defs>
<clipPath id="clip0_372_8484">
<rect width="360" height="240" fill="white"/>
</clipPath>
</defs>
</svg>
