<svg width="360" height="240" viewBox="0 0 360 240" fill="none" xmlns="http://www.w3.org/2000/svg">
<g clip-path="url(#clip0_372_2408)">
<path fill-rule="evenodd" clip-rule="evenodd" d="M222.768 232.766H30.0593C65.3575 48.1983 72.0324 37.2929 101.311 31.9775C123.453 27.9575 131.554 40.0784 155.317 57.9004C178.918 80.0927 202.526 67.5602 241.114 51.5648C279.702 35.5693 360 42.352 360 95.9556C360 131.691 348.716 177.237 326.146 232.592L222.768 232.766Z" fill="#FBFAF8"/>
<path fill-rule="evenodd" clip-rule="evenodd" d="M3.62222 231.905C-0.565096 174.387 16.3819 135.909 54.4633 116.473C111.585 87.3191 122.664 130.596 209.246 137.389C266.967 141.917 291.97 173.423 284.255 231.905H3.62222Z" fill="#F3F8FF"/>
<path fill-rule="evenodd" clip-rule="evenodd" d="M140.707 45.2351C140.826 44.2546 140.917 43.5028 139.894 42.6001C140.429 42.5657 140.679 42.319 141.077 42.5457C142.079 43.1168 141.715 44.4172 140.707 45.2351ZM136.906 41.3658C136.934 40.6541 136.471 40.0641 135.657 39.2857C136.685 39.5169 137.458 40.474 136.906 41.3658ZM128.665 42.0062C129.241 40.8898 130.246 40.3264 131.614 41.0478C130.882 41.3295 129.76 40.9578 128.665 42.0062ZM123.215 44.6354C122.742 43.2489 123.245 42.4757 124.7 42.3883C123.953 42.8416 123.284 43.3733 123.215 44.6354ZM122.251 53.1343C121.566 53.4931 120.684 54.4204 121.781 56.1068C121.177 55.7117 120.277 55.1697 119.89 54.5532C119.523 53.9678 119.619 53.1939 119.603 52.5114C119.556 50.5757 120.583 49.2145 122.728 48.405C122.064 50.1334 121.391 51.7783 122.251 53.1343ZM142.011 45.8393C142.39 46.0582 142.676 46.6617 142.49 47.058C142.439 47.1668 142.253 47.3384 142.14 47.3799C142.25 46.99 142.091 46.3632 141.675 46.1521C141.612 45.9299 141.562 45.5796 142.011 45.8393ZM147.119 55.9468C147.078 55.8147 147.119 55.1263 146.686 54.6931C146.329 54.3375 145.772 54.4023 145.409 54.0552C144.222 52.92 143.761 51.0077 141.526 51.5523C141.627 51.1728 141.616 50.9092 141.741 50.7907C142.863 49.7345 141.883 48.089 142.823 46.9486C142.955 46.7893 142.548 46.1197 142.304 45.7415C142.16 45.5181 141.846 45.4048 141.683 45.2927C142.081 44.2229 142.327 43.2062 141.287 42.4259C141.29 42.4259 140.301 42.0392 139.756 41.8948C138.992 41.6908 138.208 41.5613 137.328 41.3787C137.763 40.1697 137.136 39.6548 136.372 39.2184C135.027 38.451 133.52 38.6647 132.052 39.7701C131.662 40.0635 131.173 40.4384 130.744 40.4203C129.984 40.3892 129.493 40.7305 128.946 41.132C127.994 41.832 127.011 42.3779 125.741 41.8249C124.94 41.4771 123.495 42.0664 122.884 42.8597C122.261 43.6679 122.41 44.4852 122.831 45.327C123.141 45.9474 124.092 46.4674 123.646 47.1798C123.324 47.692 122.472 47.9116 121.821 48.1706C119.153 49.2326 118.518 52.9232 119.955 54.9281C119.955 54.9269 119.954 54.9256 119.954 54.9243C120.073 55.226 120.447 55.5168 120.583 55.6055C121.265 56.0446 121.885 56.3172 122.45 56.8612C123.055 57.4434 123.361 58.3228 123.891 59.0002C124.126 59.2994 124.606 59.3958 124.946 59.6277C125.253 59.8362 125.39 60.9526 126.769 61.4927C127.012 61.5879 127.188 61.8087 127.236 62.0652C127.366 62.7691 127.493 63.4536 127.628 64.177C126.022 65.1075 125.609 65.8905 125.861 67.5269C126.122 69.2139 127.412 69.9767 128.825 70.7577C128.527 73.4122 128.311 76.0394 127.917 78.6401C127.516 81.2952 126.945 83.9238 126.436 86.5614C126.317 87.1766 126.15 87.7808 127.106 88.1804C127.293 87.6643 127.523 87.2161 127.616 86.7421C128.005 84.7644 128.416 82.7879 128.704 80.7947C129.16 77.6254 129.525 74.4425 129.928 71.2648C130.053 70.2798 129.798 69.5953 128.708 69.2858C127.819 69.0332 127.236 68.3533 127.059 67.3981C126.891 66.4837 127.152 65.7014 127.744 65.5201C128.619 65.2526 128.737 66.0323 129.043 66.5309C129.408 67.1287 129.786 67.6875 130.723 67.3301C130.934 66.5407 131.085 65.6761 131.395 64.8738C131.853 63.6939 132.443 62.5664 132.939 61.4008C133.41 60.2908 133.404 59.1394 134.76 58.9095C134.992 58.8706 135.559 59.3654 136.142 58.9555C136.743 58.5333 136.849 57.9355 137.518 57.9381C137.9 57.9394 138.414 58.0586 138.796 57.9304C139.175 57.8021 139.412 57.2595 139.801 57.2051C140.436 57.1163 140.815 56.812 141.643 57.014C142.125 57.1319 142.115 57.7192 143.106 57.7471C144.005 57.773 143.771 58.1907 144.041 58.9095C144.165 59.2424 144.9 59.4425 145.021 59.776C145.401 60.8199 145.818 61.9629 145.806 63.0113C145.757 67.3909 144.953 71.6449 143.011 75.623C142.252 77.1773 141.406 77.5697 139.744 77.152C139.224 77.0218 138.412 76.6948 137.941 76.4409C137.071 75.9701 136.207 75.4858 135.356 74.9819C134.956 74.7443 134.547 74.2877 134.157 74.798C133.91 75.1225 134.039 75.3854 134.256 75.5997C134.802 76.1372 135.847 76.8185 136.534 77.1559C138.273 78.0094 140.06 78.7561 142.071 78.2937C142.453 79.4729 142.814 80.4955 143.116 81.5362C143.619 83.273 144.079 85.0228 144.569 86.7641C144.742 87.3761 144.741 88.1033 145.448 88.4038C146.202 88.0334 145.901 87.5004 145.77 87.027C145.012 84.2871 144.26 81.5452 143.46 78.8176C143.257 78.1266 143.271 77.5839 143.656 76.9266C144.703 75.1354 145.496 73.2186 145.912 71.1748C146.292 69.3007 146.608 67.413 146.967 65.535C147.042 65.1399 147.076 64.6711 147.31 64.3842C148.401 63.0508 148.541 61.5193 148.544 59.8764C148.548 58.1849 147.577 57.444 147.119 55.9468Z" fill="black"/>
<path fill-rule="evenodd" clip-rule="evenodd" d="M140.991 63.0146L141.981 66.9293L140.537 67.0737L140.991 63.0146Z" fill="black"/>
<path fill-rule="evenodd" clip-rule="evenodd" d="M140.993 63.0525L140.545 67.0656L141.972 66.9231L140.993 63.0525ZM140.537 67.0805C140.535 67.0805 140.534 67.0798 140.532 67.0785C140.531 67.0766 140.53 67.0747 140.53 67.0727L140.984 63.0136C140.984 63.0104 140.987 63.0078 140.99 63.0078C140.993 63.0078 140.997 63.0098 140.997 63.0123L141.987 66.927C141.988 66.9289 141.987 66.9315 141.987 66.9328C141.985 66.9348 141.983 66.9354 141.981 66.9361L140.538 67.0805H140.537Z" fill="black"/>
<path fill-rule="evenodd" clip-rule="evenodd" d="M140.058 60.8259C140.058 60.8259 139.809 62.0001 139.488 62.1752C138.442 61.7719 135.911 61.5318 134.553 61.7473C135.325 60.7634 140.058 60.8259 140.058 60.8259Z" fill="black"/>
<path fill-rule="evenodd" clip-rule="evenodd" d="M140.049 60.8321C139.94 60.8314 138.804 60.8229 137.595 60.9238C135.942 61.0633 134.897 61.3442 134.57 61.7373C135.893 61.5333 138.41 61.7531 139.488 62.168C139.788 61.9987 140.026 60.9366 140.049 60.8321ZM134.551 61.7538C134.549 61.7534 134.549 61.7518 134.548 61.7502C134.546 61.7476 134.546 61.7451 134.548 61.7422C134.869 61.3333 135.894 61.0534 137.594 60.9107C138.86 60.8048 140.046 60.8185 140.057 60.8189C140.06 60.8189 140.062 60.82 140.063 60.8216C140.064 60.8227 140.065 60.8249 140.065 60.8268C140.054 60.8749 139.812 62.0066 139.491 62.1811C139.49 62.182 139.487 62.1826 139.485 62.1815C138.407 61.7648 135.872 61.5452 134.555 61.754C134.553 61.7537 134.553 61.7542 134.551 61.7538Z" fill="black"/>
<path fill-rule="evenodd" clip-rule="evenodd" d="M137.929 65.5049C137.57 65.5269 137.213 65.4602 136.879 65.3501C137.002 65.3864 137.134 65.4065 137.27 65.4065C137.952 65.4065 138.508 64.9195 138.508 64.3218C138.508 64.0809 138.32 63.7927 138.144 63.5932C139.018 63.6735 139.786 64.1288 140.069 64.3159C139.816 64.6164 139.027 65.4375 137.929 65.5049ZM136.066 64.0239C136.046 64.1268 136.033 64.2395 136.033 64.3218C136.033 64.7556 136.326 65.1306 136.746 65.3035C136.103 65.0652 135.57 64.6818 135.343 64.5031C135.475 64.3904 135.722 64.2013 136.066 64.0239ZM140.351 64.1767C140.305 64.1424 139.207 63.3225 137.919 63.3057C136.147 63.2856 135.079 64.3671 135.034 64.4131C135.008 64.4396 134.994 64.4765 134.996 64.5141C134.997 64.551 135.014 64.5866 135.042 64.6112C135.098 64.6611 136.385 65.784 137.788 65.784C137.84 65.784 137.893 65.7821 137.946 65.7788C139.417 65.6875 140.341 64.4202 140.38 64.3664C140.423 64.3056 140.41 64.222 140.351 64.1767Z" fill="black"/>
<path fill-rule="evenodd" clip-rule="evenodd" d="M143.969 65.2283C143.654 65.2503 143.339 65.1733 143.05 65.0528C143.1 65.0625 143.15 65.069 143.201 65.069C143.751 65.069 144.197 64.6222 144.197 64.073C144.197 63.8328 144.113 63.6074 143.961 63.4293C144.022 63.4254 144.084 63.4235 144.146 63.4235H144.147C144.84 63.4235 145.475 63.9124 145.697 64.1048C145.5 64.3787 144.859 65.1642 143.969 65.2283ZM141.894 64.2952C141.966 64.2336 142.074 64.1475 142.213 64.053C142.24 64.2835 142.34 64.5153 142.496 64.7038C142.538 64.7556 142.584 64.8003 142.631 64.8411C142.297 64.6442 142.032 64.4201 141.894 64.2952ZM145.975 63.9856C145.94 63.9513 145.12 63.1489 144.147 63.1489H144.146C142.641 63.1489 141.636 64.154 141.594 64.1967C141.541 64.2498 141.541 64.3353 141.593 64.3891C141.606 64.4014 141.891 64.6921 142.325 64.9751C142.866 65.3281 143.381 65.5068 143.856 65.5068C143.9 65.5068 143.944 65.5055 143.988 65.5023C145.205 65.4148 145.964 64.2064 145.995 64.1553C146.029 64.1009 146.021 64.0303 145.975 63.9856Z" fill="black"/>
<path fill-rule="evenodd" clip-rule="evenodd" d="M141.529 60.8715C141.529 60.8715 141.844 62.0296 142.175 62.1857C143.196 61.7228 144.993 61.4462 146.361 61.5823C145.534 60.6453 141.529 60.8715 141.529 60.8715Z" fill="black"/>
<path fill-rule="evenodd" clip-rule="evenodd" d="M142.693 61.9797C143.749 61.6348 145.21 61.4638 146.344 61.5736C145.997 61.1993 145.061 60.9606 143.634 60.8819C142.597 60.8251 141.638 60.872 141.538 60.8776C141.568 60.981 141.867 62.0264 142.176 62.1781C142.333 62.1071 142.507 62.0407 142.693 61.9797ZM146.363 61.5892C146.362 61.5894 146.361 61.5898 146.36 61.5894C145.025 61.4568 143.228 61.7151 142.179 62.1916C142.177 62.1928 142.175 62.1922 142.173 62.192C142.034 62.1258 141.883 61.8843 141.722 61.4722C141.603 61.1663 141.524 60.8755 141.522 60.8724C141.522 60.8712 141.523 60.8689 141.524 60.8673C141.525 60.8655 141.527 60.8642 141.529 60.864C141.539 60.8637 142.543 60.808 143.635 60.868C144.645 60.9238 145.937 61.092 146.366 61.578C146.368 61.5801 146.368 61.5833 146.367 61.5858C146.366 61.5874 146.365 61.5886 146.363 61.5892Z" fill="black"/>
<path fill-rule="evenodd" clip-rule="evenodd" d="M138.625 68.5286C139.31 69.1762 139.867 69.5362 140.795 69.5977C141.722 69.6599 142.372 69.3206 142.372 69.3206C142.372 69.3206 141.63 70.5801 140.732 70.8139C138.877 71.2989 138.964 69.8438 138.625 68.5286Z" fill="black"/>
<path fill-rule="evenodd" clip-rule="evenodd" d="M138.638 68.5498C138.691 68.757 138.733 68.9681 138.774 69.1721C138.909 69.8404 139.036 70.4725 139.481 70.7496C139.772 70.9322 140.181 70.951 140.73 70.8073C141.553 70.5923 142.254 69.4985 142.354 69.3366C142.234 69.3936 141.621 69.6591 140.794 69.6047C139.861 69.5419 139.313 69.1857 138.638 68.5498ZM140.083 70.9161C139.84 70.9161 139.638 70.8642 139.473 70.7613C139.023 70.4802 138.896 69.8462 138.76 69.1747C138.718 68.9636 138.674 68.7447 138.619 68.5304C138.618 68.5271 138.62 68.5245 138.622 68.5226C138.624 68.5213 138.628 68.5213 138.63 68.5239C139.312 69.1676 139.858 69.5283 140.795 69.5904C141.711 69.652 142.362 69.3178 142.369 69.3146C142.372 69.3126 142.375 69.3133 142.377 69.3159C142.379 69.3178 142.379 69.3211 142.378 69.3236C142.371 69.3366 141.624 70.5877 140.734 70.8209C140.491 70.8837 140.274 70.9161 140.083 70.9161Z" fill="black"/>
<path fill-rule="evenodd" clip-rule="evenodd" d="M146.861 67.0674C146.514 67.3724 146.106 67.4817 145.61 67.401C143.64 67.0813 142.49 65.1432 142.047 63.3628C144.889 63.233 147.337 63.1216 148.01 63.0915C148.003 63.7654 147.904 66.1486 146.861 67.0674ZM140.369 64.2171C140.446 63.9692 140.516 63.7111 140.581 63.442C140.87 63.4471 141.379 63.4354 141.694 63.3965C141.751 63.6297 141.819 63.8644 141.899 64.0983L140.369 64.2171ZM137.16 67.5367C135.224 67.7222 133.549 66.1163 133.206 63.7764C135.025 63.6884 137.663 63.5652 140.219 63.4471C139.889 64.7759 139.012 67.3578 137.16 67.5367ZM148.36 62.9023L148.355 62.7227L148.177 62.7307C148.122 62.7337 145.31 62.8605 141.967 63.0138L141.96 62.9844L141.803 63.0211C141.358 63.0416 140.904 63.0622 140.446 63.0834L140.307 63.0739L140.302 63.09C137.624 63.2132 134.844 63.343 132.998 63.4332L132.812 63.4427L132.834 63.6297C132.976 64.8727 133.488 65.9924 134.275 66.7829C135.002 67.5125 135.908 67.9033 136.858 67.9033C136.969 67.9033 137.081 67.8982 137.193 67.8872C138.481 67.7633 139.563 66.5776 140.251 64.5801L142.025 64.4422C142.638 66.0063 143.79 67.4626 145.554 67.7494C146.15 67.8461 146.667 67.7061 147.091 67.3321C147.659 66.8327 148.044 65.9308 148.238 64.6534C148.379 63.7177 148.361 62.9353 148.36 62.9023Z" fill="#F7B500"/>
<path fill-rule="evenodd" clip-rule="evenodd" d="M88.7561 101.578H106.248C101.669 113.237 99.3786 120.306 99.3786 122.785C99.3786 125.265 99.0896 128.482 98.5117 132.436L88.7561 133.31V101.578Z" fill="white"/>
<path fill-rule="evenodd" clip-rule="evenodd" d="M108.41 98.053C110.148 93.1451 111.507 90.6911 112.486 90.6911C113.465 90.6911 118.003 89.7791 126.098 87.955C130.75 92.268 134.289 94.4244 136.715 94.4244C139.141 94.4244 142.369 92.4579 146.397 88.5249C154.388 89.7331 159.223 90.7816 160.904 91.6706C163.425 93.004 168.352 98.1156 168.352 99.8957C168.352 101.083 169.45 104.514 171.645 110.191C176.541 106.062 179.237 103.611 179.733 102.837C180.477 101.676 184.438 95.9574 183.792 93.3242C183.147 90.6911 184.01 80.9059 185.283 79.7152C185.032 78.0394 185.032 76.6925 185.283 75.6746L198.959 76.0342L200.435 79.7152C202.309 80.6889 203.06 82.5006 202.688 85.1501C202.316 87.7997 200.953 92.7149 198.598 99.8957L195.831 112.963L192.864 126.516C192.162 129.38 190.723 131.73 188.547 133.564C186.371 135.398 179.639 136.46 168.352 136.752C167.547 134.626 166.517 133.564 165.262 133.564C163.38 133.564 148.422 134.535 146.397 133.564C145.048 132.916 142.606 131.205 139.071 128.432L139.736 136.752C128.22 137.047 122.463 137.195 122.463 137.195C122.463 137.195 115.512 137.163 101.611 137.1C100.019 131.25 100.019 125.764 101.611 120.644C103.203 115.524 105.469 107.993 108.41 98.053Z" fill="#B1C1FF"/>
<path fill-rule="evenodd" clip-rule="evenodd" d="M112.554 137.843C111.47 147.958 112.243 154.714 114.875 158.11C117.506 161.506 120.959 164.057 125.232 165.761L145.202 167.963L149.337 170.704L153.47 177.305L140.457 192.481L146.273 198.734L154.938 207.782L166.118 195.389L170.501 203.618L189.176 195.389L179.857 177.305C184.849 169.602 187.65 164.309 188.261 161.425C189.176 157.099 185.016 147.874 179.857 145.914C176.417 144.608 170.618 141.93 162.458 137.879L112.554 137.843Z" fill="white"/>
<path fill-rule="evenodd" clip-rule="evenodd" d="M137.347 208.383L142.437 203.249L150.952 211.524L145.91 217.496L137.347 208.383Z" fill="#93E2CB"/>
<path fill-rule="evenodd" clip-rule="evenodd" d="M135.757 209.077C133.014 212.922 131.364 215.381 130.807 216.454C130.25 217.527 128.975 219.471 126.981 222.287L131.369 225.96L135.757 224.584V227.761L158.151 228.505C159.153 227.19 158.848 226.342 157.236 225.96C155.624 225.579 151.26 224.354 144.144 222.287L146.617 218.69L135.757 209.077Z" fill="#5274EF"/>
<path fill-rule="evenodd" clip-rule="evenodd" d="M174.923 206.699L176.031 210.372L188.528 206.071L185.047 200.658L174.923 206.699Z" fill="#93E2CB"/>
<path fill-rule="evenodd" clip-rule="evenodd" d="M175.57 211.796C177.171 215.746 177.971 218.302 177.971 219.464C177.971 220.626 177.971 223.571 177.971 228.3L183.639 227.679L185.3 225.066L186.556 228.505C202.992 227.376 211.687 226.521 212.643 225.939C213.598 225.357 213.195 224.354 211.433 222.929C201.745 220.619 196.053 218.7 194.358 217.172C192.664 215.644 191.312 211.866 190.304 205.839L175.57 211.796Z" fill="#5274EF"/>
<path fill-rule="evenodd" clip-rule="evenodd" d="M185.486 74.4829C185.486 74.3294 185.441 74.1086 185.523 74.0322C186.517 73.1087 185.981 72.0026 185.882 70.9723C185.605 68.0899 185.212 65.2179 184.988 62.3322C184.709 58.7232 184.553 55.1045 184.349 51.4904C184.326 51.0785 184.267 50.6485 184.352 50.2554C184.593 49.1539 185.276 48.865 186.309 49.3494C189.165 50.6899 190.231 53.2006 190.644 56.0876C190.847 57.5019 190.88 58.9408 191.001 60.5132C192.998 59.4686 194.764 58.4959 196.578 57.6211C197.357 57.2448 198.219 56.9443 199.072 56.8362C200.372 56.6723 200.96 57.1095 201.475 58.3159C201.637 58.6954 201.798 59.0878 201.869 59.49C201.981 60.1156 202.309 60.4724 202.896 60.7146C204.215 61.2592 205.034 62.1192 204.732 63.7148C204.671 64.0341 204.952 64.4809 205.187 64.7827C206.866 66.9476 206.014 69.4466 204.335 70.8648C203.628 71.4619 202.818 71.9372 202.061 72.478C201.515 72.8685 200.954 73.2454 200.448 73.6844C199.983 74.0879 199.584 74.5664 199.169 74.9977C199.18 75.2011 199.188 75.3532 199.196 75.5054" fill="black"/>
<path fill-rule="evenodd" clip-rule="evenodd" d="M185.485 50.5425C186.07 58.3854 186.122 66.025 187.485 73.5544C187.755 73.6043 187.956 73.6587 188.16 73.6762C191.142 73.9378 194.123 74.2143 197.109 74.4274C197.505 74.4552 197.985 74.2312 198.319 73.9812C198.714 73.6859 198.995 73.2358 199.172 73.0305C198.47 72.3842 197.862 71.8228 197.069 71.093C196.57 71.0839 195.522 71.3468 195.189 70.4279C194.953 69.7764 195.25 68.9313 195.312 68.1536C194.546 68.0901 193.452 68.3161 193.136 67.2729C192.905 66.5074 193.104 65.6118 193.113 64.6637C191.775 64.6314 190.966 63.862 190.879 62.3253C190.018 62.6258 189.767 62.1738 189.736 61.4957C189.712 60.9796 189.741 60.4615 189.715 59.9461C189.606 57.7799 189.56 55.6027 188.679 53.5609C188.085 52.1854 187.169 51.1499 185.485 50.5425Z" fill="white"/>
<path fill-rule="evenodd" clip-rule="evenodd" d="M192.309 63.3265C195.62 63.3712 198.151 61.8766 200.65 60.4279C200.349 57.5455 199.283 57.6757 197.473 58.5383C196.404 59.0479 195.328 59.5589 194.318 60.1721C193.255 60.8171 192.339 61.6324 192.309 63.3265Z" fill="white"/>
<path fill-rule="evenodd" clip-rule="evenodd" d="M194.237 66.653C194.503 66.765 194.605 66.8518 194.69 66.8376C197.695 66.3428 200.393 65.0198 203.081 63.6851C203.557 63.4494 203.644 62.9514 203.356 62.48C202.972 61.8525 201.718 61.4769 201.05 61.789C199.317 62.5985 197.565 63.3736 195.873 64.2641C194.978 64.7355 194.127 65.3747 194.237 66.653Z" fill="white"/>
<path fill-rule="evenodd" clip-rule="evenodd" d="M196.471 69.7212C199.323 68.9972 202.153 68.2764 204.835 66.6044C204.317 65.9432 203.929 65.4484 203.537 64.9485C200.782 66.1193 198.222 67.2869 196.471 69.7212Z" fill="white"/>
<path fill-rule="evenodd" clip-rule="evenodd" d="M198.812 71.1319C200.892 71.5398 203.521 70.2324 203.962 68.5137C202.308 69.6236 200.226 69.5051 198.812 71.1319Z" fill="white"/>
<path fill-rule="evenodd" clip-rule="evenodd" d="M166.172 134.673C166.516 135.976 166.516 135.976 167.361 135.968C166.977 135.549 166.661 135.205 166.172 134.673ZM139.217 136.405C139.217 133.918 139.272 131.61 139.195 129.307C139.153 128.029 138.968 127.977 137.406 128.229C137.373 130.943 136.801 133.652 136.887 136.405H139.217ZM174.099 205.934C177.484 204.038 180.7 202.236 183.975 200.401C183.539 199.642 183.219 199.083 182.902 198.532C179.394 200.098 176.061 201.586 172.635 203.114C173.101 204.013 173.524 204.828 174.099 205.934ZM199.66 78.244C199.794 75.9632 199.742 75.8654 197.796 75.8032C194.229 75.6892 190.661 75.6141 187.093 75.539C186.649 75.5293 186.203 75.6199 185.79 75.6614C185.516 78.1481 185.59 78.2588 187.8 78.2841C191.216 78.323 194.632 78.3359 198.048 78.3469C198.556 78.3489 199.065 78.2841 199.66 78.244ZM184.492 201.514C181.164 203.38 178 205.153 174.748 206.976C175.416 208.097 176.034 209.135 176.701 210.256C180.139 208.829 183.442 207.459 186.831 206.053C186.018 204.475 185.313 203.108 184.492 201.514ZM145.83 199.522C144.783 200.862 143.718 202.225 142.703 203.525C145.349 205.968 147.882 208.308 150.479 210.706C151.054 210.108 151.628 209.52 152.191 208.922C152.648 208.438 153.093 207.944 153.528 207.469C152.217 205.51 146.933 200.025 145.83 199.522ZM115.234 228.584C121.661 228.492 127.977 228.402 134.189 228.312C134.108 227.409 134.043 226.685 133.968 225.855C133.49 226.073 133.03 226.261 132.589 226.488C131.818 226.884 131.12 226.856 130.445 226.263C130.059 225.923 129.641 225.605 129.194 225.353C128.713 225.083 128.174 224.7 127.673 224.717C124.323 224.838 120.965 224.935 117.633 225.276C115.394 225.504 115.022 226.208 115.234 228.584ZM149.529 211.787C147.045 209.201 144.646 206.724 141.681 204.632C140.414 206.063 139.194 207.441 137.951 208.844C140.026 211.845 142.403 214.301 145.196 216.467C146.682 214.861 148.076 213.356 149.529 211.787ZM140.521 136.718C148.724 136.797 156.939 137.112 165.449 136.325C164.1 134.67 162.554 134.117 160.902 133.936C159.106 133.74 157.288 133.682 155.479 133.675C153.46 133.668 151.442 133.845 149.424 133.836C146.528 133.823 143.771 133.229 141.328 131.554C141.149 131.431 140.901 131.408 140.521 131.286V136.718ZM120.538 175.667C120.628 178.089 120.713 180.385 120.804 182.816C124.908 183.148 128.838 183.553 133.023 183.217C132.888 180.679 133.206 178.242 132.863 175.667H120.538ZM119.665 163.706C119.274 163.365 119.094 163.188 118.894 163.038C114.737 159.907 112.445 155.706 111.806 150.59C111.37 147.091 111.31 143.575 111.564 140.056C111.618 139.305 111.644 138.553 111.688 137.714C109.833 137.668 108.177 137.744 106.436 137.97C108.552 146.534 108.348 155.1 108.957 163.706H119.665ZM126.188 223.404C125.914 222.062 125.913 222.062 126.837 221.058C129.84 217.794 129.841 217.794 129.78 213.549C129.647 204.442 129.515 195.335 129.378 186.23C129.37 185.724 129.322 185.219 129.286 184.596C127.612 184.514 126.041 184.437 124.37 184.355C124.308 185.5 124.212 186.476 124.209 187.452C124.19 192.472 124.202 197.49 124.19 202.51C124.183 205.304 124.091 208.098 124.144 210.891C124.21 214.302 124.386 217.711 124.522 221.12C124.552 221.875 124.612 222.628 124.66 223.404H126.188ZM136.439 208.981C136.188 209.324 136.054 209.478 135.952 209.653C135.095 211.125 134.361 212.687 133.365 214.058C131.574 216.526 129.64 218.891 127.736 221.276C127.036 222.153 126.966 222.508 127.849 223.196C128.613 223.791 129.566 224.146 130.321 224.749C131.388 225.603 132.256 225.323 133.241 224.624C133.976 224.102 134.783 223.599 135.926 223.724C135.74 224.83 135.566 225.864 135.385 226.943C135.833 227.055 136.175 227.183 136.526 227.22C140.431 227.632 144.332 228.111 148.246 228.4C150.509 228.567 152.797 228.463 155.072 228.4C156.067 228.372 157.057 228.141 158.166 227.985C157.686 226.954 156.99 226.486 156.221 226.217C154.566 225.638 152.897 225.066 151.194 224.665C149.434 224.251 147.595 224.162 145.847 223.711C144.086 223.257 143.244 222.105 144.628 220.612C145.217 219.977 145.768 219.306 146.325 218.663C142.224 216.263 139.34 212.743 136.439 208.981ZM154.692 206.662C158.142 202.652 161.452 198.828 164.451 194.765C161.149 188.928 157.413 183.506 153.705 177.909C149.513 182.78 145.477 187.469 141.332 192.286C145.805 197.099 150.186 201.814 154.692 206.662ZM98.1592 132.069C98.2136 131.482 98.2499 131.028 98.2985 130.575C98.4974 128.728 98.5732 126.857 98.925 125.039C100.403 117.411 102.427 109.939 105.646 102.831C105.825 102.436 105.935 102.009 106.133 101.437C100.225 101.433 94.5227 101.402 88.7178 101.535C88.8584 111.964 88.9958 122.18 89.1357 132.576C92.2429 132.402 95.1615 132.237 98.1592 132.069ZM177.561 227.997C179.124 227.913 180.466 227.808 181.809 227.783C182.545 227.768 182.973 227.473 183.162 226.776C183.298 226.278 183.418 225.767 183.626 225.298C183.738 225.049 184.046 224.688 184.223 224.711C184.516 224.748 184.826 225.011 185.032 225.26C185.222 225.487 185.289 225.819 185.404 226.107C185.744 226.959 186.082 227.812 186.428 228.684C187.177 228.684 187.796 228.712 188.413 228.68C193.626 228.41 198.84 228.182 203.984 227.165C206.062 226.755 208.183 226.564 210.272 226.202C211.045 226.068 211.914 226.066 212.529 225.423C212.123 223.764 211.196 222.898 209.499 222.737C205.984 222.401 202.55 221.617 199.25 220.364C197.861 219.837 196.499 219.152 195.257 218.337C192.845 216.754 191.406 214.485 191.014 211.59C190.813 210.105 190.595 208.62 190.366 207.139C190.314 206.797 190.183 206.468 190.064 206.048C185.288 208.047 180.609 210.007 175.852 211.998C177.27 214.512 177.729 217.025 177.661 219.662C177.607 221.783 177.591 223.905 177.562 226.027C177.554 226.638 177.561 227.25 177.561 227.997ZM94.3556 170.769C95.2334 171.036 96.0504 171.397 96.9023 171.525C101.967 172.287 107.018 173.258 112.114 173.655C118.459 174.149 124.842 174.201 131.21 174.353C134.731 174.438 138.272 174.536 141.775 174.261C144.635 174.035 147.449 174.166 150.283 174.361C150.556 174.379 150.835 174.332 151.282 174.306C150.25 172.584 149.328 171.037 147.992 169.798C147.586 169.422 147.088 169.054 146.569 168.909C144.978 168.461 143.374 167.967 141.742 167.775C138.3 167.37 134.836 167.147 131.381 166.845C128.393 166.584 125.386 166.424 122.542 165.31C122.219 165.183 121.839 165.156 121.486 165.153C112.886 165.101 104.287 165.055 95.6882 165.018C95.1414 165.016 94.5946 165.086 93.9461 165.129C94.0854 167.055 94.2124 168.801 94.3556 170.769ZM151.869 175.203C151.184 175.352 150.616 175.598 150.06 175.575C147.638 175.473 145.238 175.264 142.795 175.529C140.54 175.774 138.243 175.632 135.965 175.668C135.459 175.676 134.953 175.719 134.325 175.752C134.325 176.64 134.326 177.407 134.325 178.172C134.324 179.673 134.354 181.174 134.312 182.674C134.273 184.126 134.006 184.366 132.584 184.475C131.977 184.521 131.371 184.574 130.692 184.629C130.669 185.13 130.63 185.535 130.636 185.937C130.752 194.163 130.856 202.389 131.01 210.614C131.036 212.014 131.277 213.411 131.458 215.19C132.032 214.267 132.466 213.648 132.82 212.986C133.599 211.527 134.332 210.043 135.099 208.578C135.362 208.075 135.642 207.467 136.343 207.62C137.293 207.827 137.746 207.253 138.254 206.649C138.92 205.858 139.656 205.125 140.318 204.331C141.971 202.355 143.599 200.358 145.317 198.271C144.126 197.047 143.045 195.95 141.979 194.839C139.69 192.45 139.674 192.207 141.775 189.757C145.175 185.79 148.591 181.837 151.996 177.874C152.321 177.496 152.616 177.093 152.916 176.712C152.549 176.147 152.274 175.712 151.985 175.286C151.931 175.208 151.82 175.171 151.869 175.203ZM113.124 137.777C113.041 137.951 112.969 138.039 112.959 138.134C112.469 142.738 112.486 147.334 113.276 151.906C114.496 158.962 121.251 164.702 127.052 165.092C132.166 165.434 137.277 165.815 142.388 166.191C143.106 166.244 143.848 166.266 144.528 166.472C146.984 167.214 149.005 168.596 150.445 170.759C151.707 172.655 152.961 174.559 154.24 176.444C159.644 184.414 165.053 192.382 170.473 200.342C170.872 200.929 171.37 201.451 171.902 202.101C177.305 199.692 182.621 197.322 187.945 194.95C187.707 194.082 187.606 193.296 187.285 192.612C186.078 190.039 184.853 187.47 183.536 184.952C181.018 180.136 178.386 175.38 175.89 170.553C173.846 166.598 171.854 162.629 169.342 158.928C167.01 155.491 164.192 152.734 160.262 151.222C158.189 150.424 156.124 149.607 154.06 148.785C151.655 147.828 149.251 146.869 146.858 145.884C146.426 145.706 146.046 145.401 145.642 145.155C145.692 145.032 145.743 144.909 145.794 144.786C146.22 144.866 146.655 144.911 147.069 145.03C151.749 146.376 156.312 148.042 160.774 149.998C163.862 151.352 166.619 153.135 168.641 155.885C170.819 158.849 172.88 161.887 174.543 165.186C176.126 168.328 177.788 171.431 179.423 174.547C179.656 174.989 179.929 175.409 180.223 175.906C180.459 175.654 180.629 175.524 180.733 175.354C182.528 172.389 184.399 169.466 186.067 166.431C186.879 164.952 187.387 163.287 187.892 161.662C188.724 158.989 188.263 156.447 186.858 154.051C184.135 149.407 180.367 145.818 175.467 143.649C171.122 141.725 166.588 140.228 162.148 138.517C161.219 138.158 160.301 137.998 159.294 138.005C153.492 138.047 147.69 138.039 141.89 138.013C139.983 138.004 138.063 137.705 136.177 137.863C132.181 138.198 128.209 137.955 124.222 137.806C120.555 137.67 116.879 137.777 113.124 137.777ZM165.842 124.027C165.842 123.243 165.758 122.832 165.857 122.471C166.269 120.977 166.684 119.479 167.195 118.015C168.065 115.518 169.55 113.326 170.842 111.044C171.341 110.161 171.509 109.374 171.203 108.407C170.783 107.076 170.462 105.715 170.098 104.366C168.901 99.9413 166.455 96.3194 163.154 93.1727C161.934 92.0103 160.5 91.2967 159.013 90.9088C155.766 90.0624 152.446 89.4854 149.14 88.8883C147.487 88.5898 145.938 88.8177 144.999 90.5092C144.828 90.8175 144.529 91.059 144.272 91.3148C141.277 94.297 137.517 94.9711 133.72 93.1514C131.606 92.1379 129.641 90.8544 128.024 89.1558C127.24 88.332 126.532 88.1617 125.446 88.3728C121.944 89.0541 118.433 89.7367 114.894 90.1569C113.05 90.3765 111.95 91.1264 111.279 92.7913C110.254 95.3337 109.221 97.8768 108.07 100.364C104.553 107.962 102.029 115.875 100.349 124.067C99.7011 127.225 99.3564 130.408 99.5158 133.633C99.5871 135.083 100.176 135.897 101.444 136.059C103.338 136.302 105.25 136.525 107.155 136.535C112.283 136.561 117.412 136.414 122.54 136.441C126.216 136.461 129.89 136.66 133.566 136.751C134.164 136.766 134.764 136.632 135.502 136.553C135.695 133.647 135.882 130.867 136.06 128.088C136.112 127.279 135.601 126.811 134.935 126.594C133.71 126.194 132.471 125.762 131.204 125.579C128.438 125.178 125.651 124.932 122.873 124.609C122.103 124.519 121.328 124.428 120.572 124.258C119.462 124.008 119.349 123.716 119.742 122.642C120.099 121.672 120.457 120.7 120.742 119.707C121.196 118.119 121.563 116.506 122.03 114.923C122.125 114.602 122.5 114.137 122.751 114.133C123.422 114.123 123.315 114.715 123.279 115.174C123.259 115.431 123.224 115.691 123.157 115.94C122.812 117.238 122.473 118.539 122.094 119.829C121.79 120.864 121.432 121.883 121.051 123.052C122.021 123.175 122.885 123.291 123.751 123.392C126.423 123.706 129.11 123.934 131.765 124.36C133.126 124.579 134.541 124.952 135.73 125.617C136.782 126.205 137.728 126.826 138.978 126.877C139.781 126.91 140.325 127.349 140.403 128.231C140.499 129.313 141.19 129.991 142.038 130.549C143.349 131.415 144.762 132.056 146.318 132.307C150.086 132.913 153.843 132.313 157.75 132.291C157.754 129.52 157.418 126.917 156.982 124.331C156.51 121.53 155.961 118.741 155.436 115.949C155.323 115.349 155.522 114.853 156.095 114.735C156.762 114.599 156.755 115.207 156.836 115.662C157.708 120.603 158.728 125.522 158.99 130.551C159.02 131.139 159.179 131.719 159.262 132.21C161.107 132.392 162.754 132.527 164.394 132.723C166.08 132.923 167.427 133.711 168.344 135.173C168.476 135.384 168.653 135.565 168.666 135.581C171.296 135.533 173.715 135.499 176.134 135.439C178.982 135.369 181.829 135.296 184.676 135.187C186.304 135.125 187.7 134.486 188.753 133.226C189.347 132.514 189.943 131.78 190.396 130.976C192.166 127.832 193.166 124.414 193.826 120.887C194.168 119.06 194.317 117.166 194.913 115.424C196.244 111.541 197.215 107.584 197.871 103.544C198.562 99.2905 199.436 95.1006 201.466 91.2352C201.848 90.5079 202.054 89.69 202.347 88.9162C203.423 86.0752 202.852 83.4169 201.424 80.8706C200.94 80.008 200.225 79.5514 199.147 79.5605C195.107 79.5929 191.066 79.5605 187.025 79.5352C185.404 79.5249 185.113 79.567 184.65 81.1251C184.214 82.5931 183.967 84.1493 183.879 85.6802C183.751 87.8988 183.93 90.1349 183.818 92.3555C183.545 97.7978 181.513 102.4 177.056 105.743C175.08 107.225 173.424 108.969 172.258 111.159C171.917 111.799 171.582 112.444 171.192 113.053C169.45 115.777 168.133 118.684 167.351 121.826C167.239 122.278 167.182 122.766 166.961 123.16C166.801 123.445 166.413 123.601 165.842 124.027ZM164.753 137.928C165.452 138.218 165.912 138.41 166.374 138.598C169.969 140.056 173.582 141.474 177.155 142.986C179.413 143.94 181.553 145.222 183.204 147.004C185.586 149.575 187.801 152.33 189.02 155.706C189.672 157.511 189.668 159.361 189.259 161.215C188.686 163.813 187.722 166.268 186.358 168.545C184.789 171.163 183.138 173.732 181.525 176.324C181.336 176.628 181.16 176.939 180.965 177.268C181.992 179.271 183.02 181.24 184.015 183.225C185.8 186.787 187.569 190.357 189.336 193.927C190.019 195.308 189.947 195.471 188.491 196.094C187.159 196.664 185.827 197.235 184.499 197.813C184.412 197.851 184.353 197.954 184.202 198.107C185.442 200.531 186.699 202.987 188.003 205.537C188.751 205.208 189.362 204.947 189.967 204.673C190.647 204.365 191.109 204.602 191.256 205.287C191.515 206.5 191.712 207.725 191.914 208.949C192.065 209.868 192.167 210.794 192.321 211.713C192.72 214.085 193.916 216 195.935 217.273C197.324 218.149 198.819 218.918 200.36 219.473C203.385 220.563 206.526 221.244 209.735 221.57C212.028 221.801 213.082 222.73 213.889 225.325C214.128 226.092 213.832 226.568 213.125 226.74C211.569 227.12 209.995 227.422 208.434 227.78C207.338 228.031 206.252 228.325 205.158 228.589C204.909 228.65 204.651 228.681 204.394 228.705C200.475 229.066 196.558 229.455 192.634 229.769C190.829 229.913 189.009 229.876 187.2 229.982C186.045 230.05 185.312 229.642 185.019 228.489C184.934 228.155 184.734 227.85 184.461 227.258C183.851 229.069 182.519 229.05 181.17 229.084C180.032 229.112 178.899 229.28 177.762 229.337C176.739 229.389 176.304 229.05 176.237 228.04C176.171 227.062 176.264 226.075 176.265 225.092C176.268 222.505 176.307 219.918 176.235 217.333C176.192 215.761 175.641 214.3 174.883 212.92C174.178 211.638 174.19 211.631 175.411 210.55C174.972 209.787 174.515 208.994 174.062 208.2C173.421 207.076 172.773 205.956 172.144 204.826C171.779 204.17 171.611 203.389 170.553 203.412C170.249 203.419 169.879 202.832 169.627 202.458C168.212 200.356 166.825 198.236 165.365 196.027C165.092 196.272 164.852 196.437 164.673 196.653C161.793 200.115 158.94 203.6 156.031 207.036C155.377 207.81 154.481 208.375 153.781 209.116C151.611 211.412 149.48 213.743 147.341 216.068C147.065 216.368 146.832 216.706 146.572 217.035C148.506 218.099 148.514 218.155 147.044 219.783C146.46 220.43 145.884 221.084 145.358 221.674C145.567 222.551 146.192 222.513 146.741 222.612C148.881 222.997 151.043 223.291 153.149 223.808C154.593 224.162 156.003 224.739 157.348 225.384C158.645 226.006 159.563 227.053 159.891 228.754C159.261 228.947 158.658 229.182 158.032 229.315C153.712 230.238 149.371 229.842 145.028 229.526C143.639 229.425 142.24 229.414 140.846 229.429C137.582 229.463 134.319 229.525 131.055 229.599C125.83 229.717 120.605 229.852 115.379 229.984C114.051 230.019 113.862 229.858 113.83 228.521C113.819 228.057 113.86 227.59 113.892 227.126C113.994 225.669 114.712 224.636 116.158 224.346C117.827 224.012 119.526 223.827 121.217 223.605C121.828 223.525 122.45 223.522 123.259 223.472C122.432 210.423 123.178 197.42 122.88 184.349C122.349 184.247 121.852 184.149 121.353 184.056C119.774 183.762 119.541 183.502 119.475 181.943C119.398 180.132 119.326 178.322 119.244 176.512C119.23 176.207 119.179 175.905 119.132 175.476C118.551 175.423 117.996 175.342 117.439 175.325C110.9 175.135 104.436 174.28 98.0115 173.104C96.7429 172.871 95.4893 172.513 94.2642 172.108C92.997 171.687 92.9691 171.428 92.951 170.093C92.9309 168.596 92.756 167.1 92.6277 165.605C92.5046 164.181 92.7424 163.849 94.2169 163.813C97.6869 163.728 101.158 163.69 104.629 163.64C105.554 163.627 106.478 163.638 107.39 163.638C107.924 160.653 106.793 142.302 105.059 138.063C103.921 137.845 102.775 137.582 101.616 137.412C99.5683 137.113 98.5259 135.904 98.2797 133.912C98.2615 133.765 98.1929 133.625 98.1054 133.35C97.5709 133.35 97.0137 133.323 96.4598 133.355C94.1327 133.489 91.8068 133.646 89.4804 133.787C88.0311 133.876 87.8594 133.727 87.8406 132.278C87.7104 122.235 87.5847 112.191 87.4642 102.147C87.4428 100.364 87.5847 100.207 89.4208 100.197C94.5486 100.171 99.6771 100.169 104.805 100.158C105.424 100.157 106.044 100.158 106.765 100.158C107.249 99.0548 107.728 97.9746 108.196 96.8905C108.934 95.1803 109.661 93.4648 110.402 91.7558C111.201 89.9096 112.59 89.126 114.622 88.8903C118.058 88.4913 121.478 87.8697 124.862 87.1437C126.591 86.7733 127.777 86.941 129.084 88.3379C131.032 90.4186 133.448 91.9851 136.302 92.6994C138.648 93.2861 140.721 92.6812 142.548 91.1983C143.266 90.6154 144.011 89.9691 144.475 89.192C145.435 87.5873 146.875 87.4015 148.474 87.5459C149.4 87.6294 150.323 87.7939 151.235 87.9785C154.123 88.5593 157.053 88.9434 159.814 90.0792C164.072 91.8303 167.329 94.6738 169.2 98.8832C170.309 101.376 171.085 104.017 172 106.595C172.155 107.031 172.256 107.486 172.424 108.078C172.743 107.809 172.996 107.606 173.238 107.391C174.167 106.567 175.036 105.663 176.029 104.924C180.547 101.567 182.438 96.9417 182.599 91.4819C182.658 89.5165 182.61 87.5472 182.588 85.5805C182.564 83.2038 182.945 80.9463 184.339 78.9388C184.938 78.0749 184.471 77.1223 184.375 76.2384C184.213 74.7425 184.303 74.6 185.716 74.2911C187.933 73.8054 190.156 74.0813 192.371 74.1337C194.638 74.1875 196.901 74.4478 199.167 74.5825C200.01 74.6324 200.565 74.9898 200.711 75.8194C200.871 76.7331 200.778 77.733 201.121 78.56C201.462 79.3785 202.317 79.9685 202.76 80.7624C204.427 83.7433 204.625 86.8497 203.327 90.0274C202.819 91.2721 202.346 92.5362 201.767 93.7472C200.591 96.2054 199.988 98.8145 199.571 101.482C198.69 107.11 197.221 112.604 195.819 118.116C194.978 121.422 194.428 124.799 193.201 128.008C192.38 130.157 191.34 132.152 189.82 133.896C188.528 135.378 186.921 136.238 184.977 136.386C183.069 136.531 181.152 136.576 179.238 136.653C176.031 136.782 172.82 136.834 169.62 137.056C168.096 137.163 166.594 137.587 164.753 137.928Z" fill="black"/>
<path fill-rule="evenodd" clip-rule="evenodd" d="M133.482 135.45C115.555 135.293 97.8684 135.136 80.0299 134.979C80.0299 136.092 80.0306 137.009 80.0306 137.926C80.0306 138.831 80.0299 139.737 80.0299 140.601C82.5298 140.986 131.95 140.798 133.235 140.395C133.311 138.88 133.388 137.321 133.482 135.45ZM74.3442 229.006C74.4884 229.108 74.6319 229.209 74.7754 229.31C75.0212 229.109 75.3686 228.955 75.4888 228.697C75.6673 228.314 75.6927 227.857 75.771 227.429C76.9553 220.966 78.137 214.501 79.32 208.036C81.3448 196.977 83.3517 185.913 85.4032 174.859C87.1362 165.517 88.9138 156.185 90.6914 146.852C91.0347 145.049 91.0759 145.05 92.9084 145.035C101.032 144.97 109.156 144.902 117.28 144.849C120.4 144.829 123.521 144.845 126.788 144.845C127.026 145.749 127.339 146.67 127.507 147.615C129.64 159.647 131.748 171.683 133.871 183.716C136.494 198.582 139.126 213.448 141.754 228.314C141.981 229.598 142.199 230.883 142.434 232.165C142.558 232.839 142.843 233.283 143.845 232.802C140.333 202.612 136.816 172.376 133.29 142.067C132.646 142.067 132.212 142.067 131.778 142.067C123.929 142.085 116.08 142.112 108.231 142.119C100.821 142.125 93.411 142.108 86.0006 142.113C85.3682 142.114 84.7359 142.204 84.0156 142.259C80.7797 171.284 77.5623 200.145 74.3442 229.006ZM253.741 232.364H255.036C260.451 203.142 265.86 173.95 271.289 144.651C272.141 144.651 272.789 144.652 273.438 144.651C281.453 144.632 289.468 144.611 297.483 144.592C304.29 144.577 311.097 144.56 317.904 144.552C319.884 144.55 320.135 144.764 320.488 146.71C320.74 148.1 320.98 149.492 321.213 150.885C323.14 162.403 325.055 173.925 326.99 185.442C329.376 199.638 331.778 213.832 334.179 228.027C334.274 228.585 334.436 229.132 334.582 229.748C335.68 229.45 335.365 228.78 335.311 228.251C334.51 220.306 333.685 212.364 332.891 204.419C332.059 196.094 331.265 187.767 330.435 179.443C329.351 168.577 328.251 157.713 327.152 146.849C326.973 145.074 326.764 143.303 326.562 141.467H264.734C261.066 171.793 257.411 202.019 253.741 232.364ZM326.248 134.819C324.557 134.538 135.928 135.333 134.8 135.641V139.932C134.927 140.001 135.02 140.096 135.113 140.096C198.462 140.086 261.81 140.07 325.159 140.05C325.485 140.05 325.811 140 326.137 139.967C326.183 139.962 326.229 139.915 326.269 139.881C326.31 139.845 326.344 139.801 326.439 139.697C326.439 138.417 326.452 137.065 326.431 135.714C326.426 135.405 326.307 135.096 326.248 134.819ZM252.224 233.584C255.955 202.77 259.657 172.2 263.365 141.566H134.627C135.549 149.445 136.452 157.148 137.35 164.852C138.249 172.57 139.143 180.288 140.037 188.007C140.924 195.671 141.831 203.333 142.687 211.002C143.546 218.705 144.688 226.381 145.227 234.258C143.938 234.341 142.917 234.406 141.66 234.487C140.424 228.619 139.522 222.739 138.462 216.892C137.397 211.013 136.384 205.125 135.344 199.242C134.294 193.304 133.235 187.368 132.187 181.431C131.15 175.545 130.128 169.657 129.087 163.772C128.048 157.902 126.993 152.034 125.934 146.106C114.625 146.194 103.494 146.28 92.1518 146.368C89.2736 160.405 86.9007 174.485 84.3061 188.523C81.7203 202.512 79.1689 216.509 76.5791 230.63C75.4345 230.894 74.2447 230.622 72.8989 230.38C76.1692 200.985 79.4285 171.696 82.7077 142.226C81.9119 142.189 81.2665 142.192 80.6286 142.123C79.0625 141.953 78.7501 141.612 78.7412 140.083C78.7302 138.185 78.7391 136.287 78.7391 134.471C79.6997 133.753 80.6307 133.632 81.6503 133.643C98.6113 133.829 115.573 134.041 132.535 134.137C140.709 134.185 148.886 133.963 157.062 133.934C195.88 133.793 234.699 133.682 273.518 133.55C290.865 133.492 308.214 133.408 325.561 133.337C325.946 133.335 326.33 133.33 326.714 133.343C327.447 133.368 327.795 133.726 327.785 134.478C327.769 135.673 327.738 136.874 327.826 138.064C328.181 142.884 328.536 147.703 328.976 152.516C329.419 157.384 329.967 162.241 330.462 167.104C331.099 173.373 331.734 179.643 332.362 185.914C332.947 191.75 333.517 197.589 334.103 203.426C334.716 209.535 335.341 215.641 335.959 221.749C336.211 224.235 336.475 226.719 336.699 229.208C336.819 230.541 336.464 230.908 335.053 231.068C333.709 231.222 333.361 231.016 333.135 229.711C332.143 223.984 331.174 218.253 330.207 212.52C328.4 201.806 326.6 191.091 324.797 180.376C322.976 169.553 321.155 158.732 319.33 147.911C319.224 147.279 319.075 146.654 318.935 145.977H272.44C272.154 147.454 271.867 148.875 271.604 150.301C268.587 166.651 265.58 183.002 262.556 199.351C260.638 209.714 258.692 220.072 256.77 230.437C256.623 231.231 256.551 232.043 256.492 232.85C256.437 233.6 255.992 233.955 255.315 233.927C254.398 233.89 253.486 233.731 252.224 233.584Z" fill="black"/>
<path fill-rule="evenodd" clip-rule="evenodd" d="M283.77 134.802C280.264 134.72 276.849 134.624 273.434 134.562C269.968 134.499 266.501 134.502 263.036 134.413C259.634 134.326 256.233 134.157 252.755 134.021V135.895C256.363 136.499 282.352 136.814 283.845 136.259C283.822 135.811 283.798 135.346 283.77 134.802ZM279.288 125.255C279.217 124.128 279.147 123.031 279.077 121.935C277.733 121.672 258.238 122.554 256.215 122.98V125.655C263.99 125.521 271.635 125.388 279.288 125.255ZM281.599 129.27C279.739 129.124 277.941 128.89 276.14 128.856C269.452 128.729 262.763 128.665 256.075 128.584C255.9 128.582 255.724 128.655 255.628 128.676C255.583 129.676 255.542 130.573 255.497 131.548C264.253 131.672 272.967 131.795 281.718 131.919C282.126 131.095 281.948 130.255 281.599 129.27ZM254.273 131.392C254.819 130.162 254.825 130.077 254.454 128.631C254.164 128.539 253.835 128.428 253.502 128.333C253.065 128.208 252.633 128.053 252.685 127.485C252.74 126.883 253.208 126.886 253.659 126.891C254.244 126.898 254.829 126.893 255.326 126.893C255.275 125.527 255.133 124.261 255.205 123.009C255.289 121.567 255.399 121.547 256.83 121.326C263.024 120.368 269.255 119.854 275.513 119.656C277.717 119.586 279.92 119.517 282.123 119.449C282.438 119.439 282.753 119.439 283.067 119.446C283.46 119.453 283.892 119.41 284.044 119.911C284.211 120.457 284.135 120.999 283.63 121.287C283.198 121.532 282.689 121.681 282.197 121.758C281.583 121.855 280.952 121.833 280.299 121.864C279.913 123.035 280.112 124.097 280.534 125.215C281.095 125.215 281.604 125.196 282.11 125.219C282.939 125.259 283.45 125.612 283.563 126.185C283.692 126.839 283.383 127.233 282.458 127.607C282.356 127.649 282.266 127.721 282.073 127.839C282.95 129.44 283.21 131.132 282.51 132.949C282.942 133.023 283.199 133.088 283.459 133.108C284.512 133.189 284.618 133.258 284.7 134.275C284.758 134.991 284.773 135.715 284.752 136.433C284.729 137.203 284.535 137.424 283.749 137.455C282.097 137.521 280.442 137.583 278.79 137.548C270.879 137.38 262.969 137.178 255.059 136.992C254.353 136.976 253.646 136.99 253.062 136.99C252.77 137.345 252.541 137.621 252.312 137.898C252.046 137.658 251.779 137.418 251.513 137.177C251.15 136.759 250.372 137.239 250.073 136.423C250.423 135.771 251.08 136.156 251.639 135.899V134.121C251.42 134.055 251.108 134.013 250.853 133.866C250.643 133.745 250.502 133.5 250.331 133.311C250.534 133.169 250.721 132.949 250.942 132.903C251.279 132.834 251.642 132.885 251.925 132.885C252.206 132.379 252.347 131.788 252.707 131.568C253.097 131.33 253.691 131.44 254.273 131.392Z" fill="black"/>
<path fill-rule="evenodd" clip-rule="evenodd" d="M187.882 138.08C193.817 119.108 197.371 107.98 198.542 104.697C199.713 101.414 207.257 100.278 221.173 101.289H246.035C248.298 100.861 249.429 101.532 249.429 103.303C249.429 105.075 246.196 116.994 239.728 139.061L187.882 138.08Z" fill="white"/>
<path fill-rule="evenodd" clip-rule="evenodd" d="M187.694 137.526C187.239 137.316 187.077 137.175 186.913 137.174C181.882 137.161 176.851 137.081 171.714 137.148C172.197 138.049 172.198 138.091 173.026 138.084C177.515 138.04 182.005 137.98 186.494 137.903C186.801 137.898 187.105 137.717 187.694 137.526ZM239.661 135.689C240.083 134.478 240.502 133.375 240.854 132.251C242.424 127.238 244.003 122.228 245.522 117.199C246.637 113.505 247.668 109.786 248.725 106.075C248.879 105.53 248.993 104.971 249.074 104.411C249.302 102.844 248.766 102.052 247.173 101.862C245.38 101.648 243.569 101.469 241.766 101.463C232.078 101.435 222.39 101.464 212.702 101.476C209.81 101.48 206.927 101.497 204.037 101.801C201.071 102.112 198.948 103.312 197.917 106.207C197.295 107.953 196.475 109.633 195.923 111.398C195.001 114.347 194.22 117.339 193.388 120.314C192.527 123.389 191.677 126.468 190.817 129.543C190.236 131.619 189.646 133.693 188.998 135.988C205.989 135.888 222.809 135.789 239.661 135.689ZM239.299 137.063C238.749 137.024 238.399 136.976 238.048 136.978C225.564 137.035 213.081 137.094 200.597 137.158C197.023 137.177 193.45 137.211 189.875 137.245C189.458 137.249 188.926 137.08 188.756 137.958C189.364 137.987 189.901 138.034 190.437 138.033C203.39 138.028 216.342 138.017 229.294 138.008C231.833 138.006 234.372 138 236.91 138.023C237.436 138.027 238.079 137.833 238.386 138.532C238.074 139.259 237.429 139.062 236.9 139.067C233.43 139.095 229.96 139.098 226.491 139.107C215.983 139.134 205.474 139.149 194.966 139.191C188.082 139.219 181.199 139.288 174.315 139.326C173.488 139.332 172.651 139.321 171.834 139.209C170.7 139.054 170.337 138.592 170.396 137.598C170.466 136.417 170.946 135.913 172.116 135.911C176.778 135.905 181.442 135.921 186.104 135.927C186.668 135.928 187.232 135.928 187.893 135.928C188.247 134.787 188.604 133.726 188.905 132.649C190.456 127.095 191.99 121.536 193.534 115.98C194.224 113.496 194.793 110.968 195.663 108.548C196.3 106.773 197.244 105.084 198.218 103.457C199.473 101.359 201.549 100.585 203.894 100.53C207.259 100.45 210.626 100.431 213.993 100.416C224.715 100.368 235.437 100.339 246.159 100.285C247.12 100.281 247.994 100.409 248.785 101.016C250.266 102.154 250.792 103.907 250.1 106.188C249.07 109.59 247.933 112.96 246.864 116.351C245.812 119.69 244.795 123.04 243.746 126.381C242.62 129.966 241.473 133.544 240.34 137.127C240.154 137.715 240.033 138.331 239.784 138.89C239.7 139.078 239.312 139.13 239.062 139.244C238.967 139.027 238.763 138.789 238.798 138.594C238.877 138.149 239.073 137.724 239.299 137.063Z" fill="black"/>
<path fill-rule="evenodd" clip-rule="evenodd" d="M223.48 118.848C223.456 120.414 222.084 121.799 220.626 121.729C219.384 121.67 218.329 120.598 218.362 119.428C218.405 117.859 219.767 116.405 221.152 116.445C222.473 116.485 223.5 117.545 223.48 118.848Z" fill="black"/>
</g>
<defs>
<clipPath id="clip0_372_2408">
<rect width="360" height="240" fill="white"/>
</clipPath>
</defs>
</svg>
