<svg width="360" height="309" viewBox="0 0 360 309" fill="none" xmlns="http://www.w3.org/2000/svg">
<g clip-path="url(#clip0_592_4761)">
<path fill-rule="evenodd" clip-rule="evenodd" d="M226.275 294.375L144.96 287.133C83.7505 281.681 41.5618 222.655 58.7408 163.648C90.4399 54.7672 115.54 1.15071 134.042 2.79862C170.133 6.01313 178.125 65.5389 195.905 89.8366C213.686 114.134 224.306 125.109 258.129 111.75C291.951 98.3911 358.692 111.278 353.821 165.708C351.4 192.769 343.218 224.9 329.277 262.102C320.253 286.182 295.775 300.422 270.16 298.194L226.275 294.375Z" fill="#EDF2FF"/>
<path fill-rule="evenodd" clip-rule="evenodd" d="M62.4031 137.035C62.4433 137.3 62.4834 137.564 62.5235 137.828C59.1034 138.063 55.6848 138.302 52.2661 138.533C50.5523 138.647 49.3038 137.856 48.3941 135.997L62.4031 137.035ZM3.29935 143.954C3.26962 143.586 3.2399 143.219 3.21017 142.851C7.83127 140.397 12.818 140.016 18.5866 140.074C14.074 141.455 10.2838 142.672 6.45193 143.754C5.46201 144.035 4.35318 143.899 3.29935 143.954ZM38.1219 136.949C34.4803 136.599 30.812 136.418 27.2045 135.851C23.7086 135.301 20.2826 134.311 16.8104 133.591C13.3041 132.865 9.77841 132.234 6.15167 131.54C6.98108 129.385 8.4823 129.252 9.87057 129.316C12.4628 129.437 15.0654 129.646 17.6264 130.051C24.7758 131.181 31.5417 133.564 38.1219 136.949ZM164.448 231.694C162.672 229.934 161.008 228.596 159.721 226.963C152.624 217.957 145.598 208.897 138.605 199.812C137.603 198.512 136.925 196.968 136.072 195.555C134.985 193.757 135.306 192.185 136.773 190.773C137.439 190.131 138.116 189.5 138.929 188.731C139.764 189.432 140.668 189.898 141.145 190.638C149.387 203.474 158.948 215.329 168.709 227.071C167.23 228.677 165.973 230.042 164.448 231.694ZM345.686 245.57C337.596 250.114 302.323 254.897 294.084 252.658V241.737C302.656 241.452 311.076 241.426 319.455 240.822C327.793 240.222 336.089 239.044 344.612 238.094C344.973 240.608 345.322 243.033 345.686 245.57ZM160.295 232.795C155.21 237.385 150.018 242.214 144.658 246.849C141.345 249.717 137.93 252.516 134.287 254.937C129.365 258.211 122.167 259.565 115.911 253.835C113.819 251.92 111.6 249.994 110.06 247.663C105.429 240.653 100.613 233.696 96.756 226.263C85.6811 204.916 73.9536 183.941 61.5826 163.321C59.6474 160.095 57.2647 157.092 54.8063 154.224C51.4516 150.311 47.2913 147.769 41.8631 147.759C38.6599 147.753 35.4598 147.417 32.2567 147.377C25.9634 147.3 19.6687 147.36 13.3754 147.276C12.0169 147.258 10.6613 146.871 9.30426 146.653C9.28345 146.405 9.26114 146.157 9.23886 145.908C10.3016 145.561 11.3525 145.169 12.4301 144.872C20.5293 142.647 28.8886 142.808 37.1661 142.289C44.6277 141.823 52.0967 141.474 59.5671 141.224C66.9217 140.978 74.2836 140.905 81.6426 140.8C82.4572 140.788 83.2732 141.094 84.0966 141.203C86.3633 141.503 88.08 142.601 89.2662 144.567C90.9785 147.405 92.8275 150.165 94.4417 153.058C100.851 164.538 107.161 176.071 113.57 187.553C117.205 194.067 120.875 200.568 124.703 206.972C126.507 209.989 128.066 210.089 130.722 207.81C132.683 206.128 134.585 204.375 136.409 202.746C144.458 212.872 152.325 222.769 160.295 232.795ZM168.143 232.619C167.201 242.338 166.304 251.75 165.372 261.161C164.848 266.459 164.258 271.752 163.709 277.048C163.66 277.513 163.571 278.038 163.733 278.444C163.879 278.81 164.319 279.248 164.672 279.29C165.035 279.333 165.711 279.01 165.798 278.713C166.227 277.248 166.657 275.753 166.813 274.241C167.583 266.822 168.088 259.372 169.021 251.973C170.431 240.822 172.031 229.692 173.718 218.578C174.676 212.264 175.972 206 177.106 199.711C177.327 198.477 177.879 197.124 176.046 196.361C174.476 197.011 174.484 198.52 174.233 199.862C172.996 206.494 171.788 213.131 170.541 219.759C170.352 220.766 170.019 221.744 169.583 223.371C160.58 212.341 151.61 201.999 144.66 189.955C151.747 181.013 158.681 172.158 165.74 163.403C169.088 159.249 172.647 155.265 176.169 151.255C177.576 149.653 179.147 148.195 180.634 146.664C185.168 141.996 190.795 139.659 197.204 139.48C201.802 139.349 206.414 139.763 211.106 139.936C211.942 143.679 212.565 147.048 213.464 150.34C214.489 154.103 215.518 157.893 216.967 161.505C222.221 174.583 234.072 176.34 244.217 171.519C246.745 170.317 249.079 168.521 251.176 166.641C258.643 159.943 264.749 152.08 270.307 143.776C270.696 143.195 271.093 142.62 271.509 142.009C272.087 142.052 272.584 141.984 273.002 142.134C284.274 146.191 295.53 150.293 306.81 154.332C311.351 155.96 314.49 159.031 316.228 163.421C319.1 170.682 322.037 177.934 324.525 185.33C329.767 200.926 334.738 216.613 339.812 232.268C340.062 233.034 340.236 233.825 340.575 235.1C325.048 238.182 309.578 238.281 293.705 238.392C293.51 236.366 293.329 234.533 293.163 232.699C292.947 230.341 292.833 227.967 292.473 225.632C292.381 225.027 291.535 224.538 291.036 223.997C290.605 224.592 289.835 225.173 289.806 225.785C289.716 227.79 289.847 229.808 289.979 231.817C291.021 247.432 291.32 263.058 290.871 278.7C290.799 281.184 290.857 283.673 290.92 286.158C290.945 287.187 290.838 288.575 292.314 288.596C294.043 288.623 293.864 287.116 293.876 285.964C293.961 279.094 294.02 272.223 294.072 265.352C294.095 262.539 294.077 259.726 294.077 256.538C308.639 256.54 322.609 254.86 336.857 251.91C337.061 256.545 336.972 260.756 336.563 264.983C335.916 271.701 335.355 278.427 334.764 285.152C334.712 285.739 334.628 286.357 334.756 286.914C334.845 287.299 335.261 287.88 335.551 287.891C336.05 287.907 336.793 287.694 337.024 287.323C337.372 286.76 337.45 285.988 337.504 285.293C338.33 274.675 339.131 264.055 339.944 253.434C339.998 252.735 340.106 252.04 340.199 251.25C341.908 250.643 343.604 250.121 345.233 249.439C348.051 248.26 348.513 247.554 348.25 244.58C348.044 242.226 347.734 239.868 347.251 237.556C347.051 236.602 346.418 235.15 345.732 234.991C343.44 234.458 343.252 232.653 342.712 231.008C337.838 216.163 333.015 201.3 328.092 186.471C326.078 180.406 323.85 174.409 321.708 168.383C321.392 167.493 320.967 166.639 320.653 165.746C317.928 157.985 312.824 152.791 304.854 150.16C294.041 146.591 283.387 142.547 272.594 138.912C269.253 137.788 265.687 137.318 262.215 136.598C261.794 136.51 261.311 136.73 260.868 136.807C261.053 138.964 261.053 138.964 267.778 141.182C267.501 141.897 267.356 142.687 266.939 143.29C261.722 150.804 256.111 157.999 249.328 164.202C245.015 168.145 240.206 170.916 234.09 170.965C229.304 171.005 225.606 169.07 222.664 165.476C221.995 164.66 221.429 163.727 220.961 162.776C217.575 155.914 215.867 148.574 214.653 141.323C215.759 139.424 219.51 141.203 219.008 137.426C210.163 137.839 201.503 135.47 192.713 137.088C187.527 138.044 182.803 139.97 179.261 143.841C172.06 151.71 164.992 159.706 158.107 167.85C153.364 173.462 149.03 179.417 144.499 185.207C143.929 185.937 143.273 186.604 142.554 187.419C141.861 186.944 141.29 186.563 140.732 186.164C139.47 185.266 138.202 185.414 137.169 186.424C135.821 187.742 134.53 189.146 133.387 190.642C132.14 192.274 131.98 194.107 132.976 195.986C133.587 197.136 134.134 198.315 134.927 199.928C132.711 201.937 130.413 204.021 127.753 206.432C126.253 203.914 124.94 201.835 123.75 199.691C114.952 183.841 106.2 167.966 97.3802 152.127C95.711 149.127 93.7149 146.308 92.0338 143.315C90.2412 140.129 87.3651 138.315 83.9926 138.245C77.836 138.121 72.1418 135.971 66.1934 135.003C59.145 133.855 52.0759 132.897 44.9205 133.773C42.3342 134.089 40.0274 133.296 37.6195 132.628C30.5414 130.664 23.4559 128.714 16.3036 127.05C13.8094 126.468 11.1132 126.619 8.51202 126.654C6.13385 126.687 4.56573 128.056 3.71405 130.264C2.79102 132.656 3.35583 133.79 5.89008 134.339C7.27835 134.642 8.69632 134.808 10.101 135.036C10.804 135.15 11.513 135.234 12.2071 135.388C12.8924 135.54 13.5642 135.763 14.7399 136.095C11.2841 137.093 8.26825 137.866 5.32675 138.856C3.8909 139.341 2.43726 140.038 1.27194 140.982C-0.385345 142.322 -0.444794 145.13 1.22141 145.88C4.28183 147.257 6.78339 149.872 10.4562 149.955C13.6578 150.028 16.852 150.443 20.0536 150.496C26.9429 150.612 33.8352 150.677 40.7245 150.6C45.625 150.546 49.4822 152.622 52.5634 156.14C54.7394 158.625 56.798 161.281 58.4762 164.117C71.0211 185.337 83.1349 206.793 94.4655 228.693C98.1532 235.82 102.805 242.464 107.235 249.188C108.781 251.533 110.841 253.603 112.919 255.525C119.838 261.92 127.319 262.746 136.362 257.067C140.352 254.561 143.9 251.305 147.472 248.19C152.031 244.211 156.419 240.04 160.858 235.929C161.823 235.039 162.697 234.4 164.213 234.369C165.471 234.342 166.704 233.302 168.143 232.619Z" fill="black"/>
<path fill-rule="evenodd" clip-rule="evenodd" d="M214.519 67.8476C215.613 63.5932 218.508 61.074 222.715 60.539C226.056 60.1138 229.599 59.9152 232.869 60.5553C239.739 61.9024 245.787 65.1239 250.7 70.2496C251.213 70.7876 251.825 71.2351 252.4 71.7137C253.427 75.2998 254.669 78.8444 255.428 82.4883C255.658 83.5849 255.718 84.6429 255.657 85.6802C255.803 85.655 255.935 85.6283 256.055 85.5883C260.375 84.1643 263.662 86.5871 263.496 91.1201C263.373 94.4913 261.75 97.0935 258.753 98.4997C256.999 99.3207 256.598 100.279 256.749 102.049C257.716 113.263 259.544 124.339 261.843 135.349C262.109 136.616 261.879 137.985 261.879 139.403C259.541 139.322 259.631 137.877 259.367 136.653C256.891 125.194 254.994 113.646 253.952 101.963C253.627 98.3115 253.667 98.2019 257.188 96.3822C259.898 94.9833 261.47 91.9781 260.502 89.6812C260.175 88.8988 259.37 87.9326 258.649 87.8067C258.01 87.697 257.117 88.5565 256.47 89.1359C256.153 89.4204 254.955 90.6622 254.074 91.4357C253.494 92.7042 252.805 93.9756 252.035 95.2737C251.242 91.8788 250.823 89.0529 249.914 86.393C247.717 79.9558 243.146 75.3946 237.586 71.7063C234.183 69.4509 230.41 69.3857 228.329 66.2234C228.323 66.2234 228.317 66.2234 228.311 66.222C226.422 68.1617 225.066 68.0372 223.14 69.6851C220.646 71.8145 218.398 74.0699 216.956 76.9165C216.974 78.7555 217.058 80.5945 217.226 82.4186C218.119 92.0966 219.393 101.717 223.774 110.602C225.791 114.693 227.907 115.603 232.4 114.222C235.705 113.206 238.857 111.862 241.528 109.571C242.293 108.916 243.25 107.812 244.212 109.08C245.087 110.236 243.967 111.076 243.136 111.687C241.709 112.734 240.251 113.784 238.677 114.578C234.735 116.568 230.627 118.014 226.13 117.187C225.719 118.385 225.374 119.262 225.114 120.166C223.541 125.622 222.022 131.096 220.406 136.54C220.005 137.892 220.099 139.672 217.281 140.376C217.496 138.754 217.518 137.613 217.811 136.546C219.445 130.616 221.178 124.714 222.793 118.779C223.147 117.484 223.901 116.223 222.955 114.726C219.219 108.821 217.438 102.207 216.164 95.4204C215.317 90.9052 214.665 86.3693 214.364 81.8096C214.336 81.8437 214.315 81.8644 214.288 81.9C213.733 76.6898 213.38 72.2665 214.519 67.8476Z" fill="black"/>
<path fill-rule="evenodd" clip-rule="evenodd" d="M273.324 61.404C273.415 56.588 272.901 54.6675 271.95 53.6509C272.442 56.099 272.302 58.5752 271.822 60.2022C270.862 63.4638 269.109 66.4616 266.722 68.225C265.515 69.1141 264.317 69.8906 263.092 70.5322C268.207 69.4653 273.22 67.0336 273.324 61.404ZM263.303 44.0663C262.745 41.9636 262.261 40.1498 259.69 38.5686C257.86 37.4439 255.582 37.4528 253.122 37.7092C257.385 38.1582 259.574 41.313 263.341 44.2086C263.329 44.1612 263.317 44.1123 263.303 44.0663ZM237.377 35.928C234.196 34.4194 230.908 32.8576 226.697 33.8163C223.304 34.5884 220.749 37.3772 219.866 41.276C219.589 42.503 219.511 43.7225 219.603 44.8502C219.759 42.537 221.603 35.2626 229.126 35.2626C233.618 35.2626 236.993 37.0571 241.903 37.7862C240.327 37.3194 238.833 36.6185 237.377 35.928ZM252.398 71.6911C252.435 71.7029 252.471 71.7059 252.508 71.7162L252.478 71.4406C252.483 71.4391 252.495 71.4391 252.5 71.4391C252.508 70.344 253.149 69.1838 252.023 68.1968C247.109 63.8906 242.114 59.7014 235.644 57.8846C232.249 56.9318 228.765 55.8663 226.138 59.3842C223.013 56.5835 220.725 52.5677 219.916 48.5356C218.842 46.6655 218.512 43.8915 219.141 41.113C220.089 36.9282 222.851 33.9304 226.532 33.0947C230.997 32.0781 234.403 33.6963 237.696 35.2582C239.74 36.2273 241.668 37.1416 243.829 37.4706C246.215 37.8307 248.664 37.515 251.032 37.2113C254.378 36.783 257.539 36.377 260.081 37.9388C262.904 39.6741 263.448 41.7146 264.021 43.8752C264.113 44.2189 264.207 44.5642 264.31 44.9125C265.161 45.5052 266.087 46.0787 267.14 46.5973C269.552 47.7902 270.948 50.0426 271.658 52.4655C273.336 53.5176 274.181 55.2884 274.068 61.4159C273.932 68.7303 266.356 71.0153 260.154 71.7592C258.376 72.2823 256.488 72.4453 254.4 72.1252C254.165 72.1297 253.944 72.1341 253.742 72.1386C253.172 72.1475 252.764 72.1549 252.56 72.1771L252.52 71.8081C252.481 71.7755 252.44 71.7444 252.401 71.7133C252.399 71.7044 252.396 71.697 252.395 71.6881L252.398 71.6911Z" fill="black"/>
<path fill-rule="evenodd" clip-rule="evenodd" d="M228.481 82.8162L226.209 91.774L229.522 92.1044L228.481 82.8162Z" fill="black"/>
<path fill-rule="evenodd" clip-rule="evenodd" d="M228.475 82.8991L229.504 92.0822L226.23 91.7562L228.475 82.8991ZM229.523 92.1163C229.526 92.1163 229.531 92.1148 229.534 92.1118C229.537 92.1074 229.538 92.1029 229.538 92.0985L228.498 82.8102C228.496 82.8028 228.49 82.7969 228.483 82.7969C228.475 82.7969 228.468 82.8013 228.467 82.8072L226.195 91.7651C226.194 91.7695 226.195 91.7754 226.197 91.7784C226.2 91.7828 226.204 91.7843 226.209 91.7858L229.52 92.1163H229.523Z" fill="black"/>
<path fill-rule="evenodd" clip-rule="evenodd" d="M231.1 76.235C231.1 76.235 230.963 78.9779 231.573 79.5529C234.129 79.2713 239.884 80.2182 242.771 81.4882C241.635 78.8608 231.1 76.235 231.1 76.235Z" fill="black"/>
<path fill-rule="evenodd" clip-rule="evenodd" d="M231.116 76.2505C231.358 76.3127 233.883 76.9573 236.505 77.8865C240.092 79.1609 242.244 80.3923 242.741 81.4533C239.925 80.2293 234.212 79.2453 231.579 79.5343C231.013 78.9845 231.105 76.495 231.116 76.2505ZM242.772 81.5007C242.776 81.5007 242.779 81.4977 242.782 81.4948C242.788 81.4903 242.788 81.4844 242.787 81.477C242.314 80.3849 240.203 79.1668 236.516 77.8583C233.77 76.8847 231.131 76.2223 231.105 76.2164C231.099 76.2149 231.095 76.2164 231.092 76.2194C231.087 76.2208 231.084 76.2253 231.084 76.2297C231.08 76.3424 230.954 78.9875 231.563 79.561C231.566 79.5639 231.572 79.5669 231.576 79.5654C234.213 79.2735 239.964 80.2678 242.764 81.4992C242.767 81.4992 242.769 81.5007 242.772 81.5007Z" fill="black"/>
<path fill-rule="evenodd" clip-rule="evenodd" d="M235.503 88.5102C236.326 88.5606 237.147 88.4079 237.912 88.156C237.63 88.239 237.328 88.285 237.014 88.285C235.449 88.285 234.175 87.1706 234.175 85.8028C234.175 85.2516 234.605 84.5922 235.011 84.1357C233.004 84.3195 231.243 85.3612 230.593 85.7895C231.175 86.4771 232.985 88.3561 235.503 88.5102ZM239.778 85.1212C239.824 85.3568 239.852 85.6146 239.852 85.8028C239.852 86.7957 239.182 87.6537 238.217 88.0493C239.693 87.504 240.915 86.6268 241.436 86.2178C241.133 85.9599 240.567 85.5272 239.778 85.1212ZM229.947 85.4709C230.052 85.3924 232.57 83.5163 235.527 83.4778C239.59 83.4319 242.041 85.9066 242.145 86.0118C242.205 86.0725 242.236 86.157 242.233 86.243C242.23 86.3274 242.191 86.4089 242.128 86.4652C241.998 86.5793 239.045 89.1489 235.827 89.1489C235.706 89.1489 235.585 89.1444 235.464 89.137C232.089 88.9281 229.969 86.0281 229.88 85.9051C229.78 85.7658 229.81 85.5746 229.947 85.4709Z" fill="black"/>
<path fill-rule="evenodd" clip-rule="evenodd" d="M221.647 87.8793C222.37 87.9297 223.094 87.7534 223.757 87.4777C223.642 87.5 223.526 87.5148 223.41 87.5148C222.148 87.5148 221.124 86.4923 221.124 85.2357C221.124 84.6859 221.317 84.1702 221.665 83.7627C221.526 83.7538 221.383 83.7494 221.24 83.7494H221.239C219.648 83.7494 218.192 84.8682 217.682 85.3083C218.135 85.9351 219.605 87.7326 221.647 87.8793ZM226.408 85.744C226.243 85.6032 225.995 85.4061 225.675 85.1898C225.613 85.7173 225.386 86.2478 225.026 86.679C224.929 86.7976 224.825 86.8998 224.717 86.9932C225.482 86.5427 226.092 86.03 226.408 85.744ZM217.044 85.0356C217.124 84.9571 219.008 83.1211 221.239 83.1211H221.24C224.693 83.1211 227 85.4209 227.096 85.5187C227.217 85.6402 227.217 85.8359 227.098 85.9588C227.07 85.987 226.416 86.6524 225.418 87.2999C224.177 88.1075 222.997 88.5165 221.908 88.5165C221.805 88.5165 221.704 88.5136 221.603 88.5062C218.811 88.3061 217.071 85.541 216.998 85.4239C216.921 85.2994 216.94 85.1379 217.044 85.0356Z" fill="black"/>
<path fill-rule="evenodd" clip-rule="evenodd" d="M226.718 76.235C226.718 76.235 226.856 78.9779 226.245 79.5529C223.69 79.2713 219.575 79.947 216.688 81.2155C217.824 78.5897 226.718 76.235 226.718 76.235Z" fill="black"/>
<path fill-rule="evenodd" clip-rule="evenodd" d="M224.969 79.4706C222.422 79.4706 219.113 80.1374 216.718 81.1821C217.209 80.1211 219.079 78.9371 222.135 77.7516C224.357 76.8906 226.481 76.3112 226.704 76.252C226.713 76.498 226.805 78.9845 226.239 79.5343C225.846 79.4913 225.42 79.4706 224.969 79.4706ZM216.689 81.2295C216.69 81.2295 216.693 81.2295 216.695 81.228C219.511 79.9907 223.615 79.2749 226.243 79.5654C226.247 79.5669 226.252 79.5639 226.255 79.5624C226.512 79.3194 226.67 78.6867 226.726 77.676C226.768 76.9262 226.733 76.2371 226.733 76.2297C226.733 76.2268 226.731 76.2223 226.728 76.2194C226.723 76.2164 226.719 76.2149 226.713 76.2164C226.692 76.2223 224.462 76.8151 222.123 77.722C219.962 78.5607 217.262 79.8455 216.674 81.2073C216.671 81.2132 216.672 81.2206 216.677 81.2251C216.68 81.228 216.684 81.2295 216.689 81.2295Z" fill="black"/>
<path fill-rule="evenodd" clip-rule="evenodd" d="M233.908 95.4303C232.337 96.9122 231.06 97.7361 228.932 97.8768C226.803 98.0191 225.312 97.2426 225.312 97.2426C225.312 97.2426 227.016 100.125 229.074 100.66C233.331 101.77 233.13 98.4399 233.908 95.4303Z" fill="black"/>
<path fill-rule="evenodd" clip-rule="evenodd" d="M233.877 95.4774C233.755 95.9516 233.658 96.4347 233.565 96.9015C233.256 98.4307 232.964 99.877 231.943 100.511C231.274 100.929 230.336 100.972 229.076 100.643C227.188 100.151 225.58 97.6483 225.351 97.2778C225.626 97.4082 227.034 98.0158 228.93 97.8913C231.071 97.7476 232.328 96.9326 233.877 95.4774ZM230.561 100.892C231.118 100.892 231.582 100.774 231.96 100.538C232.993 99.8948 233.285 98.4441 233.596 96.9074C233.693 96.4243 233.794 95.9234 233.92 95.4329C233.923 95.4255 233.919 95.4196 233.913 95.4152C233.908 95.4122 233.899 95.4122 233.895 95.4181C232.331 96.8911 231.078 97.7165 228.927 97.8587C226.827 97.9995 225.332 97.2349 225.317 97.2275C225.31 97.223 225.302 97.2245 225.299 97.2304C225.293 97.2349 225.293 97.2423 225.296 97.2482C225.313 97.2778 227.026 100.141 229.067 100.674C229.626 100.818 230.122 100.892 230.561 100.892Z" fill="black"/>
</g>
<defs>
<clipPath id="clip0_592_4761">
<rect width="360" height="309" fill="white"/>
</clipPath>
</defs>
</svg>
