<svg width="79" height="16" viewBox="0 0 79 16" fill="none" xmlns="http://www.w3.org/2000/svg">
<path d="M75.6937 1.3291C74.3973 7.47729 74.3425 7.58773 74.1964 10.3673H75.9312C76.9537 7.58773 77.0085 7.47729 78.3049 1.3291H75.6937ZM73.0371 13.92H75.5295L76.0773 11.1772H73.5849L73.0371 13.92Z" fill="#343A40"/>
<path d="M0 13.9692H2.5557V5.04422C2.5557 4.51038 2.42119 4.09333 2.26986 3.64291C2.21942 3.49277 2.26986 3.39268 2.42119 3.35931C2.50525 3.34263 2.58932 3.39268 2.62295 3.50945L5.80076 13.9692H9.2644L12.4422 3.50945C12.4758 3.39268 12.5599 3.34263 12.644 3.35931C12.7953 3.39268 12.8457 3.49277 12.7953 3.64291C12.644 4.09333 12.5095 4.51038 12.5095 5.04422V13.9692H15.0652V2.22492H10.4918L7.83523 11.2333C7.75116 11.5336 7.73434 11.9673 7.73434 12.3677C7.73434 12.5012 7.66709 12.5679 7.53258 12.5679C7.39807 12.5679 7.33081 12.5012 7.33081 12.3677C7.33081 11.9673 7.314 11.5336 7.22993 11.2333L4.57335 2.22492H0V13.9692Z" fill="#343A40"/>
<path d="M16.2738 11.5503C16.2738 13.035 17.8543 14.1027 19.7879 14.1027C21.8055 14.1027 22.848 13.3353 23.7728 12.1842C23.84 12.1008 23.8904 11.934 24.0922 12.0007C24.2772 12.0674 24.1931 12.2342 24.109 12.3844C23.9409 12.6847 23.8064 12.9516 23.8064 13.352V13.9692H26.2276V9.09799C26.2276 5.69482 24.0418 5.02753 21.6038 5.02753C19.2498 5.02753 16.9632 5.87833 16.5933 8.09706H18.9808C19.1321 7.37972 19.5525 6.89594 21.5365 6.89594C23.5037 6.89594 23.7896 7.42977 23.8064 8.03033C23.8232 8.84776 22.0073 8.69762 20.1242 8.78103C17.8543 8.88112 16.2738 9.59846 16.2738 11.5503ZM23.8064 9.60712C23.8064 10.8987 21.9737 12.2843 20.7631 12.4344C19.5693 12.5846 18.695 12.1675 18.695 11.4335C18.695 10.6494 19.2835 10.3492 20.4436 10.2657C21.8728 10.1657 23.1675 10.1576 23.8064 9.60712Z" fill="#343A40"/>
<path d="M27.6748 4.09333H30.096V1.95801H27.6748V4.09333ZM27.6748 13.9692H30.096V5.16099H27.6748V13.9692Z" fill="#343A40"/>
<path d="M31.3932 1.95801V13.9692H33.8144V1.95801H31.3932Z" fill="#343A40"/>
<path d="M45.0515 9.44832C45.0515 6.24533 42.5127 5.02753 40.0747 5.02753C36.8632 5.02753 34.8288 6.81253 34.8288 9.56509C34.8288 12.1842 36.7119 14.1027 40.1251 14.1027C42.933 14.1027 44.4126 12.718 44.8666 10.8997H42.395C42.0923 11.6337 41.4366 12.1675 40.1587 12.1675C38.4942 12.1675 37.4181 11.4335 37.2163 10.1657H44.9843C45.0347 9.91542 45.0515 9.68187 45.0515 9.44832ZM37.334 8.56416C37.6367 7.59659 38.4269 6.82921 40.1755 6.82921C41.7224 6.82921 42.5295 7.54655 42.6304 8.56416H37.334Z" fill="#343A40"/>
<path d="M54.033 1.95801V5.49463C54.033 5.84496 54.1339 6.09519 54.2684 6.41216C54.3356 6.57898 54.4533 6.77916 54.2852 6.86258C54.1507 6.9293 54.0161 6.72912 53.9657 6.66239C53.2595 5.74487 52.133 5.02753 50.4684 5.02753C47.711 5.02753 45.9623 7.0294 45.9623 9.56509C45.9623 12.1008 47.711 14.1027 50.4684 14.1027C52.0826 14.1027 53.3268 13.402 53.9657 12.4511C53.9993 12.4011 54.1002 12.2342 54.2347 12.2843C54.4365 12.3677 54.3524 12.5178 54.2684 12.6847C54.117 12.9849 54.033 13.2519 54.033 13.5855V13.9692H56.4542V1.95801H54.033ZM51.1242 12.0341C49.2578 12.0341 48.3835 10.8997 48.3835 9.56509C48.3835 8.23052 49.2578 7.09613 51.1242 7.09613C52.6542 7.09613 54.033 8.23052 54.033 9.56509C54.033 10.8997 52.8728 12.0341 51.1242 12.0341Z" fill="#343A40"/>
<path fill-rule="evenodd" clip-rule="evenodd" d="M62.134 13.9572H58.2207V1.38867H62.134V13.9572ZM71.6365 7.43985H68.7821V10.3076C68.7821 10.4177 68.7824 10.5081 68.784 10.5861C68.8323 10.5871 68.8871 10.5875 68.95 10.5875H71.6365V13.9572H68.2526C67.3507 13.9572 66.4755 13.8189 65.8473 13.2272C65.2094 12.6264 64.9985 11.725 64.9985 10.643V7.43985H62.9226V4.07019H64.9985V1.76995H68.7821V4.07019H71.6365V7.43985ZM63.6467 4.79659H65.7226V2.49635H68.058V4.79659H70.9124V6.71345H68.058V10.3076C68.058 11.2341 68.0742 11.3139 68.95 11.3139H70.9124V13.2308H68.2526C66.5335 13.2308 65.7226 12.6717 65.7226 10.643V6.71345H63.6467V4.79659ZM61.4099 2.11507V13.2308H58.9448V2.11507H61.4099Z" fill="#343A40"/>
</svg>
