<svg width="228" height="153" viewBox="0 0 228 153" fill="none" xmlns="http://www.w3.org/2000/svg">
<path fill-rule="evenodd" clip-rule="evenodd" d="M140.047 148.39H17.9982C40.3537 30.7277 44.5811 23.7755 63.124 20.3869C77.1476 17.8242 82.2782 25.5513 97.328 36.9128C112.275 51.0604 127.227 43.0709 151.666 32.8738C176.105 22.6767 226.961 27.0007 226.961 61.173C226.961 83.9545 219.814 112.99 205.52 148.279L140.047 148.39Z" fill="#FBFAF8"/>
<path fill-rule="evenodd" clip-rule="evenodd" d="M1.25735 147.841C-1.39461 111.173 9.3385 86.6435 33.4567 74.2529C69.634 55.6671 76.6505 83.2561 131.486 87.5864C168.042 90.4733 183.877 110.558 178.991 147.841H1.25735Z" fill="#F3F8FF"/>
<path fill-rule="evenodd" clip-rule="evenodd" d="M88.0688 28.8332C88.1439 28.2081 88.2018 27.7288 87.5539 27.1534C87.8924 27.1315 88.0512 26.9742 88.3027 27.1187C88.9379 27.4828 88.7069 28.3118 88.0688 28.8332ZM85.6611 26.3665C85.6791 25.9128 85.3862 25.5367 84.8704 25.0405C85.5212 25.1878 86.0111 25.798 85.6611 26.3665ZM80.4419 26.7748C80.8066 26.0631 81.4435 25.7039 82.3096 26.1638C81.846 26.3434 81.1353 26.1064 80.4419 26.7748ZM76.9903 28.4509C76.6908 27.567 77.0096 27.0741 77.9307 27.0184C77.4577 27.3073 77.0338 27.6463 76.9903 28.4509ZM76.3802 33.869C75.9461 34.0977 75.3876 34.6888 76.0823 35.7639C75.6999 35.512 75.1299 35.1665 74.8846 34.7735C74.6519 34.4003 74.7131 33.9069 74.7028 33.4718C74.6728 32.2378 75.3236 31.3701 76.6822 30.854C76.2612 31.9559 75.8353 33.0045 76.3802 33.869ZM88.8948 29.2184C89.1348 29.3579 89.3158 29.7427 89.198 29.9953C89.1656 30.0647 89.0478 30.1741 88.976 30.2005C89.0462 29.952 88.9453 29.5523 88.6814 29.4178C88.642 29.2762 88.61 29.0528 88.8948 29.2184ZM92.1293 35.6619C92.1039 35.5777 92.1293 35.1388 91.8552 34.8626C91.6295 34.636 91.2763 34.6773 91.0465 34.456C90.2948 33.7323 90.0026 32.5132 88.5875 32.8604C88.6511 32.6185 88.6441 32.4504 88.7237 32.3749C89.4339 31.7016 88.8135 30.6525 89.4089 29.9255C89.4926 29.824 89.2345 29.3971 89.0802 29.156C88.9887 29.0136 88.7897 28.9413 88.6868 28.8699C88.9391 28.1879 89.0946 27.5398 88.4361 27.0423C88.4381 27.0423 87.8116 26.7958 87.4665 26.7038C86.9823 26.5737 86.4858 26.4912 85.9286 26.3747C86.2043 25.604 85.8068 25.2758 85.323 24.9975C84.4716 24.5083 83.5172 24.6445 82.587 25.3493C82.34 25.5363 82.0306 25.7753 81.759 25.7637C81.2773 25.7439 80.9663 25.9615 80.62 26.2175C80.0168 26.6637 79.3948 27.0117 78.5901 26.6592C78.083 26.4375 77.168 26.8132 76.7806 27.3189C76.3863 27.8341 76.4807 28.3551 76.747 28.8918C76.9435 29.2873 77.5459 29.6188 77.2632 30.0729C77.0596 30.3995 76.5201 30.5394 76.1073 30.7046C74.4176 31.3816 74.0155 33.7344 74.9256 35.0125C74.9256 35.0117 74.9252 35.0109 74.9252 35.01C75.0007 35.2024 75.237 35.3878 75.3236 35.4443C75.7557 35.7242 76.1479 35.898 76.5061 36.2448C76.889 36.616 77.083 37.1766 77.4187 37.6084C77.5676 37.7992 77.8713 37.8607 78.0867 38.0085C78.2812 38.1414 78.3677 38.8531 79.2413 39.1974C79.3952 39.2581 79.5064 39.3989 79.5367 39.5624C79.6196 40.0111 79.7 40.4475 79.7854 40.9086C78.7682 41.5019 78.5064 42.001 78.6664 43.0442C78.8314 44.1197 79.6487 44.606 80.5432 45.1039C80.3545 46.7961 80.2178 48.471 79.9684 50.1289C79.7144 51.8215 79.3525 53.4972 79.0304 55.1787C78.9549 55.5709 78.849 55.9561 79.4547 56.2108C79.5732 55.8818 79.7185 55.5961 79.7776 55.2939C80.0242 54.0331 80.2843 52.7731 80.4665 51.5024C80.7558 49.482 80.9868 47.4529 81.242 45.4271C81.3212 44.7992 81.1599 44.3628 80.4694 44.1655C79.9064 44.0045 79.5367 43.571 79.4251 42.9621C79.3184 42.3792 79.4838 41.8804 79.8588 41.7649C80.4132 41.5944 80.4878 42.0914 80.6815 42.4093C80.9129 42.7903 81.1517 43.1466 81.7455 42.9187C81.8788 42.4155 81.9748 41.8643 82.1714 41.3528C82.461 40.6007 82.8348 39.8819 83.1487 39.1388C83.4474 38.4312 83.4433 37.6972 84.3025 37.5506C84.449 37.5259 84.808 37.8413 85.1777 37.5799C85.5581 37.3108 85.6254 36.9297 86.0488 36.9314C86.2909 36.9322 86.6167 37.0082 86.8584 36.9264C87.0984 36.8447 87.2486 36.4987 87.4948 36.464C87.8969 36.4075 88.1369 36.2134 88.6617 36.3423C88.967 36.4174 88.9604 36.7918 89.5878 36.8096C90.1573 36.8261 90.0092 37.0924 90.1799 37.5506C90.2587 37.7628 90.7244 37.8904 90.8011 38.103C91.0416 38.7685 91.3054 39.4971 91.298 40.1655C91.2672 42.9575 90.758 45.6695 89.5279 48.2055C89.047 49.1963 88.5111 49.4465 87.4587 49.1802C87.1296 49.0972 86.6155 48.8887 86.3172 48.7269C85.7657 48.4268 85.2188 48.118 84.6796 47.7968C84.4265 47.6453 84.1671 47.3542 83.9205 47.6796C83.7638 47.8864 83.8454 48.054 83.9829 48.1906C84.3288 48.5333 84.9906 48.9676 85.426 49.1827C86.5269 49.7268 87.6589 50.2028 88.9325 49.908C89.1746 50.6598 89.4032 51.3117 89.5944 51.9751C89.9132 53.0823 90.2041 54.1978 90.5147 55.3079C90.6243 55.6981 90.6234 56.1617 91.0715 56.3532C91.5491 56.1171 91.3579 55.7773 91.275 55.4755C90.7954 53.7288 90.319 51.9809 89.8123 50.242C89.6838 49.8015 89.6924 49.4556 89.9362 49.0365C90.5996 47.8946 91.1015 46.6726 91.3649 45.3697C91.6062 44.175 91.806 42.9716 92.0333 41.7743C92.0809 41.5225 92.1026 41.2236 92.2508 41.0407C92.9417 40.1907 93.0299 39.2144 93.0324 38.167C93.0349 37.0887 92.4194 36.6164 92.1293 35.6619Z" fill="black"/>
<path fill-rule="evenodd" clip-rule="evenodd" d="M88.2566 40.1709L88.884 42.6665L87.9688 42.7586L88.2566 40.1709Z" fill="black"/>
<path fill-rule="evenodd" clip-rule="evenodd" d="M88.2663 40.1974L87.9821 42.7558L88.8867 42.665L88.2663 40.1974ZM87.9768 42.7653C87.9759 42.7653 87.9747 42.7649 87.9739 42.764C87.9731 42.7628 87.9727 42.7616 87.9727 42.7603L88.2601 40.1727C88.2605 40.1706 88.2621 40.1689 88.2642 40.1689C88.2663 40.1689 88.2683 40.1702 88.2687 40.1718L88.8961 42.6674C88.8966 42.6687 88.8961 42.6703 88.8957 42.6711C88.8949 42.6724 88.8937 42.6728 88.8925 42.6732L87.9776 42.7653H87.9768Z" fill="black"/>
<path fill-rule="evenodd" clip-rule="evenodd" d="M87.6737 38.7779C87.6737 38.7779 87.5164 39.5264 87.3132 39.6381C86.6507 39.3809 85.0477 39.2279 84.1875 39.3652C84.6762 38.738 87.6737 38.7779 87.6737 38.7779Z" fill="black"/>
<path fill-rule="evenodd" clip-rule="evenodd" d="M87.6676 38.7851C87.5985 38.7846 86.8787 38.7782 86.1131 38.8414C85.0656 38.9287 84.4042 39.1066 84.1971 39.3565C85.035 39.2277 86.6301 39.3698 87.3129 39.6348C87.5028 39.5273 87.6532 38.8515 87.6676 38.7851ZM84.1854 39.367C84.1842 39.3667 84.1836 39.3657 84.183 39.3646C84.1818 39.363 84.1822 39.3614 84.1831 39.3595C84.3861 39.0996 85.0354 38.9224 86.1123 38.833C86.914 38.7667 87.6656 38.7765 87.6728 38.7767C87.6744 38.7767 87.6755 38.7774 87.6761 38.7784C87.6772 38.7791 87.6777 38.7805 87.6774 38.7817C87.6706 38.8123 87.5184 39.5323 87.3154 39.6431C87.3144 39.6437 87.3126 39.644 87.3115 39.6433C86.6278 39.3773 85.022 39.2354 84.1875 39.3671C84.1867 39.3669 84.1862 39.3672 84.1854 39.367Z" fill="black"/>
<path fill-rule="evenodd" clip-rule="evenodd" d="M86.3228 41.7606C86.0955 41.7746 85.869 41.7321 85.6577 41.6619C85.7356 41.685 85.8189 41.6978 85.9055 41.6978C86.3376 41.6978 86.6892 41.3874 86.6892 41.0063C86.6892 40.8527 86.5706 40.669 86.4586 40.5419C87.0125 40.5931 87.4988 40.8833 87.6781 41.0026C87.5176 41.1942 87.0179 41.7176 86.3228 41.7606ZM85.1427 40.8164C85.13 40.8821 85.1222 40.9539 85.1222 41.0063C85.1222 41.2829 85.3073 41.5219 85.5736 41.6322C85.1661 41.4802 84.8288 41.2359 84.6848 41.1219C84.7685 41.0501 84.9249 40.9295 85.1427 40.8164ZM87.8566 40.9138C87.8274 40.892 87.1324 40.3693 86.3162 40.3586C85.1944 40.3458 84.5178 41.0352 84.4891 41.0645C84.4727 41.0815 84.4641 41.105 84.4649 41.1289C84.4657 41.1525 84.4764 41.1752 84.494 41.1909C84.5297 41.2226 85.345 41.9385 86.2334 41.9385C86.2666 41.9385 86.3002 41.9373 86.3335 41.9352C87.2653 41.877 87.8504 41.0691 87.875 41.0348C87.9025 40.996 87.8943 40.9427 87.8566 40.9138Z" fill="black"/>
<path fill-rule="evenodd" clip-rule="evenodd" d="M90.1483 41.5844C89.9489 41.5984 89.7491 41.5493 89.5661 41.4725C89.5977 41.4787 89.6297 41.4828 89.6617 41.4828C90.0101 41.4828 90.2928 41.198 90.2928 40.8479C90.2928 40.6947 90.2394 40.5511 90.1434 40.4375C90.182 40.4351 90.2214 40.4338 90.2608 40.4338H90.2612C90.7002 40.4338 91.1023 40.7455 91.2431 40.8681C91.1179 41.0428 90.7121 41.5435 90.1483 41.5844ZM88.8341 40.9895C88.8796 40.9503 88.9482 40.8954 89.0364 40.8351C89.0536 40.9821 89.1164 41.1299 89.2157 41.25C89.2424 41.283 89.2711 41.3115 89.301 41.3375C89.0897 41.212 88.9215 41.0692 88.8341 40.9895ZM91.4191 40.7922C91.3969 40.7703 90.8771 40.2588 90.2612 40.2588H90.2608C89.3076 40.2588 88.6708 40.8995 88.6441 40.9268C88.6109 40.9606 88.6109 41.0151 88.6437 41.0494C88.6515 41.0572 88.832 41.2426 89.1074 41.423C89.45 41.648 89.7758 41.7619 90.0765 41.7619C90.1048 41.7619 90.1327 41.7611 90.1606 41.759C90.9312 41.7033 91.4117 40.9329 91.4318 40.9003C91.4531 40.8657 91.4478 40.8207 91.4191 40.7922Z" fill="black"/>
<path fill-rule="evenodd" clip-rule="evenodd" d="M88.6051 38.8055C88.6051 38.8055 88.8046 39.5438 89.0144 39.6433C89.6606 39.3482 90.7986 39.1719 91.6651 39.2587C91.1414 38.6613 88.6051 38.8055 88.6051 38.8055Z" fill="black"/>
<path fill-rule="evenodd" clip-rule="evenodd" d="M89.341 39.5148C90.01 39.2942 90.9359 39.1839 91.6541 39.2526C91.4345 39.0147 90.8421 38.8637 89.9382 38.8151C89.281 38.78 88.6737 38.8108 88.6101 38.8144C88.6288 38.8802 88.8174 39.5453 89.0131 39.6415C89.1125 39.5962 89.2228 39.5538 89.341 39.5148ZM91.666 39.2626C91.6656 39.2627 91.6648 39.263 91.6643 39.2627C90.8187 39.1796 89.6798 39.3458 89.0146 39.6501C89.0136 39.6509 89.0122 39.6505 89.0113 39.6504C88.9229 39.6084 88.8274 39.4549 88.7261 39.1927C88.651 38.9981 88.601 38.8131 88.6004 38.8111C88.6001 38.8103 88.6005 38.8089 88.601 38.8079C88.602 38.8067 88.603 38.8059 88.6047 38.8058C88.6107 38.8056 89.2468 38.7691 89.9388 38.8062C90.5781 38.8407 91.3968 38.9465 91.668 39.2554C91.6692 39.2567 91.6695 39.2588 91.6687 39.2604C91.6682 39.2614 91.6671 39.2622 91.666 39.2626Z" fill="black"/>
<path fill-rule="evenodd" clip-rule="evenodd" d="M86.7656 43.6885C87.1993 44.1013 87.5518 44.3308 88.1394 44.3701C88.7269 44.4097 89.1385 44.1934 89.1385 44.1934C89.1385 44.1934 88.6683 44.9963 88.1 45.1454C86.9248 45.4546 86.9802 44.5269 86.7656 43.6885Z" fill="black"/>
<path fill-rule="evenodd" clip-rule="evenodd" d="M86.7739 43.7015C86.8075 43.8336 86.8342 43.9682 86.86 44.0982C86.9454 44.5243 87.0258 44.9272 87.3077 45.1039C87.4923 45.2203 87.7513 45.2323 88.0992 45.1406C88.6203 45.0036 89.0643 44.3063 89.1274 44.2031C89.0515 44.2394 88.663 44.4087 88.1394 44.374C87.5486 44.3339 87.2014 44.1069 86.7739 43.7015ZM87.6893 45.21C87.5354 45.21 87.4074 45.177 87.3032 45.1113C87.018 44.9321 86.9372 44.528 86.8514 44.0999C86.8248 43.9653 86.7969 43.8257 86.762 43.6891C86.7612 43.687 86.7624 43.6854 86.764 43.6841C86.7653 43.6833 86.7677 43.6833 86.769 43.685C87.2006 44.0953 87.5465 44.3253 88.1402 44.3649C88.72 44.4041 89.1328 44.1911 89.1369 44.189C89.1389 44.1878 89.141 44.1882 89.1418 44.1899C89.1435 44.1911 89.1435 44.1932 89.1426 44.1948C89.1381 44.2031 88.665 45.0007 88.1017 45.1493C87.9474 45.1893 87.8103 45.21 87.6893 45.21Z" fill="black"/>
<path fill-rule="evenodd" clip-rule="evenodd" d="M91.9623 42.7532C91.7425 42.9476 91.4836 43.0173 91.1694 42.9659C89.9223 42.762 89.194 41.5265 88.913 40.3915C90.7133 40.3088 92.2636 40.2377 92.6897 40.2185C92.6851 40.6481 92.6225 42.1674 91.9623 42.7532ZM87.8506 40.9361C87.8994 40.7781 87.9437 40.6136 87.9847 40.442C88.1676 40.4453 88.49 40.4378 88.6895 40.413C88.7259 40.5617 88.7688 40.7113 88.8194 40.8604L87.8506 40.9361ZM85.818 43.0524C84.5917 43.1706 83.5311 42.1469 83.3137 40.6552C84.4659 40.5991 86.1364 40.5205 87.7557 40.4453C87.5465 41.2923 86.9909 42.9383 85.818 43.0524ZM92.9113 40.0979L92.9081 39.9834L92.7957 39.9885C92.7607 39.9904 90.9796 40.0713 88.8623 40.169L88.8581 40.1503L88.7586 40.1737C88.4767 40.1867 88.1892 40.1998 87.8994 40.2134L87.811 40.2073L87.8082 40.2176C86.1119 40.2961 84.3512 40.3789 83.1824 40.4364L83.0645 40.4425L83.0783 40.5617C83.1681 41.354 83.4924 42.0679 83.9909 42.5718C84.4511 43.0369 85.0252 43.2861 85.6268 43.2861C85.6973 43.2861 85.7683 43.2828 85.8387 43.2758C86.6546 43.1968 87.3397 42.4409 87.776 41.1675L88.8991 41.0796C89.2875 42.0767 90.0168 43.0051 91.134 43.1879C91.5117 43.2496 91.8393 43.1603 92.1079 42.9219C92.4677 42.6036 92.7114 42.0286 92.8339 41.2143C92.9233 40.6178 92.9118 40.119 92.9113 40.0979Z" fill="#F7B500"/>
<path fill-rule="evenodd" clip-rule="evenodd" d="M55.1621 64.7529H66.2406C63.34 72.1853 61.8897 76.6918 61.8897 78.2724C61.8897 79.8531 61.7067 81.9039 61.3407 84.4249L55.1621 84.9819V64.7529Z" fill="white"/>
<path fill-rule="evenodd" clip-rule="evenodd" d="M67.6109 62.5065C68.7116 59.3777 69.572 57.8133 70.1923 57.8133C70.8125 57.8133 73.6861 57.2319 78.8131 56.069C81.7594 58.8185 84.0009 60.1933 85.5375 60.1933C87.074 60.1933 89.118 58.9396 91.6696 56.4323C96.73 57.2025 99.7925 57.871 100.857 58.4377C102.453 59.2878 105.574 62.5464 105.574 63.6812C105.574 64.4378 106.269 66.6256 107.66 70.2446C110.76 67.6124 112.468 66.0496 112.782 65.5562C113.253 64.8161 115.762 61.1705 115.353 59.4919C114.944 57.8133 115.491 51.5752 116.297 50.8161C116.138 49.7478 116.138 48.8892 116.297 48.2402L124.958 48.4695L125.894 50.8161C127.08 51.4369 127.556 52.5918 127.32 54.2809C127.085 55.97 126.221 59.1035 124.73 63.6812L122.977 72.0118L121.098 80.6513C120.654 82.4776 119.742 83.9753 118.364 85.1445C116.986 86.3137 112.723 86.9912 105.574 87.177C105.064 85.822 104.412 85.1445 103.617 85.1445C102.425 85.1445 92.9515 85.764 91.6696 85.1445C90.8149 84.7315 89.2682 83.641 87.0295 81.873L87.4505 87.177C80.1574 87.3654 76.5109 87.4596 76.5109 87.4596C76.5109 87.4596 72.1089 87.4394 63.305 87.3989C62.2968 83.6693 62.2968 80.1724 63.305 76.9082C64.3131 73.6439 65.7484 68.8434 67.6109 62.5065Z" fill="#B1C1FF"/>
<path fill-rule="evenodd" clip-rule="evenodd" d="M70.2344 87.8721C69.5474 94.3208 70.0372 98.6277 71.7038 100.793C73.3704 102.958 75.5569 104.583 78.2634 105.67L90.9113 107.074L93.5297 108.821L96.1473 113.029L87.9058 122.704L91.5893 126.69L97.0771 132.458L104.158 124.558L106.934 129.804L118.761 124.558L112.859 113.029C116.021 108.119 117.795 104.744 118.182 102.906C118.761 100.148 116.126 94.267 112.859 93.0178C110.681 92.1849 107.008 90.4774 101.84 87.8951L70.2344 87.8721Z" fill="white"/>
<path fill-rule="evenodd" clip-rule="evenodd" d="M85.9375 132.842L89.1611 129.569L94.5541 134.845L91.3608 138.652L85.9375 132.842Z" fill="#93E2CB"/>
<path fill-rule="evenodd" clip-rule="evenodd" d="M84.931 133.284C83.1939 135.735 82.1488 137.303 81.796 137.987C81.4431 138.671 80.6354 139.91 79.373 141.705L82.152 144.047L84.931 143.17V145.195L99.1137 145.669C99.7482 144.831 99.555 144.291 98.5341 144.047C97.5131 143.804 94.7494 143.023 90.2429 141.705L91.8088 139.412L84.931 133.284Z" fill="#5274EF"/>
<path fill-rule="evenodd" clip-rule="evenodd" d="M109.734 131.767L110.436 134.109L118.351 131.367L116.146 127.916L109.734 131.767Z" fill="#93E2CB"/>
<path fill-rule="evenodd" clip-rule="evenodd" d="M110.145 135.017C111.158 137.535 111.665 139.165 111.665 139.906C111.665 140.646 111.665 142.524 111.665 145.538L115.254 145.142L116.307 143.477L117.102 145.669C127.511 144.949 133.019 144.404 133.624 144.033C134.229 143.662 133.973 143.023 132.857 142.115C126.722 140.642 123.117 139.419 122.044 138.444C120.97 137.47 120.114 135.062 119.476 131.22L110.145 135.017Z" fill="#5274EF"/>
<path fill-rule="evenodd" clip-rule="evenodd" d="M116.42 47.4774C116.42 47.3796 116.392 47.2388 116.444 47.1901C117.073 46.6014 116.734 45.8963 116.671 45.2395C116.495 43.4019 116.246 41.571 116.105 39.7314C115.928 37.4307 115.829 35.1237 115.7 32.8197C115.685 32.5571 115.648 32.283 115.702 32.0324C115.854 31.3302 116.287 31.1461 116.941 31.4549C118.75 32.3094 119.425 33.91 119.687 35.7504C119.815 36.6521 119.836 37.5694 119.913 38.5718C121.178 37.9058 122.296 37.2858 123.445 36.728C123.938 36.4882 124.484 36.2966 125.025 36.2277C125.848 36.1232 126.221 36.4019 126.546 37.171C126.649 37.4129 126.751 37.6631 126.796 37.9195C126.867 38.3183 127.075 38.5457 127.447 38.7001C128.282 39.0473 128.801 39.5956 128.609 40.6128C128.571 40.8163 128.749 41.1012 128.897 41.2936C129.961 42.6737 129.422 44.2668 128.358 45.1709C127.91 45.5516 127.397 45.8546 126.918 46.1993C126.572 46.4482 126.217 46.6885 125.896 46.9684C125.601 47.2256 125.349 47.5307 125.086 47.8057C125.093 47.9353 125.098 48.0323 125.103 48.1293" fill="black"/>
<path fill-rule="evenodd" clip-rule="evenodd" d="M116.424 32.2158C116.794 37.2157 116.827 42.0859 117.69 46.8859C117.862 46.9177 117.988 46.9524 118.118 46.9636C120.006 47.1303 121.895 47.3066 123.786 47.4424C124.036 47.4602 124.34 47.3174 124.552 47.158C124.802 46.9697 124.98 46.6828 125.092 46.552C124.647 46.1399 124.262 45.782 123.76 45.3168C123.444 45.311 122.78 45.4786 122.57 44.8928C122.42 44.4775 122.608 43.9387 122.647 43.4429C122.163 43.4024 121.469 43.5465 121.269 42.8814C121.123 42.3935 121.249 41.8225 121.255 41.2181C120.408 41.1975 119.895 40.707 119.84 39.7274C119.294 39.9189 119.136 39.6308 119.116 39.1985C119.101 38.8695 119.119 38.5392 119.102 38.2106C119.034 36.8297 119.005 35.4417 118.446 34.14C118.07 33.2632 117.49 32.6031 116.424 32.2158Z" fill="white"/>
<path fill-rule="evenodd" clip-rule="evenodd" d="M120.746 40.3663C122.843 40.3948 124.446 39.4419 126.028 38.5184C125.838 36.6809 125.163 36.7639 124.016 37.3138C123.339 37.6387 122.658 37.9644 122.018 38.3553C121.345 38.7665 120.765 39.2863 120.746 40.3663Z" fill="white"/>
<path fill-rule="evenodd" clip-rule="evenodd" d="M121.965 42.4867C122.134 42.5581 122.198 42.6134 122.252 42.6043C124.155 42.2889 125.864 41.4455 127.567 40.5946C127.868 40.4444 127.923 40.1269 127.741 39.8263C127.497 39.4263 126.703 39.1869 126.28 39.3858C125.182 39.9019 124.073 40.3961 123.001 40.9637C122.434 41.2642 121.896 41.6717 121.965 42.4867Z" fill="white"/>
<path fill-rule="evenodd" clip-rule="evenodd" d="M123.377 44.443C125.183 43.9814 126.975 43.522 128.674 42.456C128.346 42.0345 128.101 41.7191 127.852 41.4004C126.107 42.1468 124.486 42.8911 123.377 44.443Z" fill="white"/>
<path fill-rule="evenodd" clip-rule="evenodd" d="M124.863 45.3429C126.18 45.603 127.846 44.7695 128.125 43.6738C127.077 44.3814 125.759 44.3059 124.863 45.3429Z" fill="white"/>
<path fill-rule="evenodd" clip-rule="evenodd" d="M104.189 85.8493C104.407 86.6803 104.407 86.6803 104.942 86.675C104.699 86.4083 104.499 86.1886 104.189 85.8493ZM87.1178 86.9536C87.1178 85.3679 87.1527 83.897 87.1038 82.4289C87.0772 81.614 86.9598 81.581 85.9706 81.7416C85.9496 83.4714 85.5873 85.1987 85.6423 86.9536H87.1178ZM109.21 131.279C111.353 130.07 113.39 128.921 115.464 127.751C115.188 127.267 114.986 126.911 114.785 126.56C112.564 127.558 110.452 128.506 108.282 129.481C108.578 130.054 108.846 130.573 109.21 131.279ZM125.398 49.876C125.484 48.422 125.45 48.3597 124.218 48.32C121.959 48.2474 119.699 48.1995 117.439 48.1516C117.158 48.1454 116.876 48.2032 116.614 48.2296C116.44 49.8149 116.487 49.8855 117.887 49.9016C120.051 49.9264 122.214 49.9346 124.378 49.9417C124.699 49.9429 125.021 49.9016 125.398 49.876ZM115.792 128.461C113.684 129.65 111.681 130.78 109.621 131.942C110.044 132.657 110.435 133.319 110.857 134.033C113.035 133.124 115.127 132.25 117.273 131.354C116.758 130.348 116.312 129.477 115.792 128.461ZM91.3059 127.191C90.6428 128.045 89.9687 128.914 89.3257 129.743C91.0014 131.3 92.6058 132.792 94.2503 134.32C94.6143 133.939 94.9778 133.564 95.3348 133.183C95.624 132.875 95.9059 132.56 96.1817 132.257C95.3512 131.008 92.0047 127.511 91.3059 127.191ZM71.9287 145.718C75.9991 145.659 79.9992 145.602 83.9333 145.545C83.882 144.969 83.841 144.507 83.7934 143.978C83.4906 144.117 83.1993 144.237 82.9203 144.382C82.432 144.634 81.9897 144.616 81.5621 144.238C81.3176 144.022 81.0529 143.818 80.7698 143.658C80.4654 143.486 80.124 143.242 79.8068 143.253C77.6851 143.33 75.558 143.392 73.4481 143.609C72.0297 143.754 71.7946 144.203 71.9287 145.718ZM93.6488 135.01C92.0752 133.361 90.5558 131.782 88.6782 130.448C87.8756 131.361 87.1034 132.239 86.316 133.134C87.6303 135.047 89.1353 136.612 90.9042 137.993C91.8459 136.969 92.7284 136.01 93.6488 135.01ZM87.9434 87.1534C93.1388 87.2034 98.342 87.4044 103.731 86.9028C102.877 85.8476 101.898 85.4951 100.852 85.3799C99.7141 85.2548 98.5627 85.2177 97.4167 85.2135C96.1386 85.209 94.8604 85.3217 93.5823 85.3159C91.7478 85.3077 90.0019 84.9291 88.455 83.8611C88.3414 83.7826 88.1842 83.7682 87.9434 83.6906V87.1534ZM75.288 111.983C75.345 113.527 75.3988 114.991 75.4562 116.541C78.0552 116.753 80.5441 117.011 83.1948 116.796C83.1094 115.178 83.3109 113.624 83.0934 111.983H75.288ZM74.7349 104.358C74.4871 104.141 74.373 104.028 74.2466 103.932C71.614 101.936 70.1619 99.2578 69.7574 95.9964C69.4812 93.7658 69.4431 91.5245 69.6039 89.2812C69.6384 88.8023 69.6548 88.323 69.6827 87.788C68.5079 87.7587 67.4592 87.8074 66.3562 87.9515C67.6963 93.4108 67.5675 98.8718 67.9532 104.358H74.7349ZM78.8659 142.415C78.6924 141.56 78.692 141.56 79.2771 140.92C81.1789 138.839 81.1797 138.839 81.1407 136.133C81.057 130.327 80.9729 124.522 80.8863 118.717C80.8814 118.394 80.851 118.073 80.8281 117.676C79.7678 117.623 78.7728 117.574 77.7146 117.522C77.6752 118.252 77.6149 118.874 77.6128 119.496C77.6009 122.696 77.6083 125.896 77.6005 129.096C77.596 130.876 77.5378 132.658 77.5718 134.438C77.6133 136.613 77.7249 138.786 77.8106 140.96C77.8299 141.441 77.8681 141.921 77.8984 142.415H78.8659ZM85.3584 133.221C85.1996 133.439 85.1142 133.538 85.0498 133.649C84.507 134.588 84.0425 135.583 83.4114 136.458C82.2769 138.031 81.0521 139.539 79.8466 141.059C79.403 141.618 79.3587 141.844 79.918 142.283C80.4018 142.662 81.0053 142.888 81.4833 143.273C82.1591 143.817 82.709 143.639 83.333 143.193C83.7988 142.86 84.3096 142.54 85.0334 142.62C84.9156 143.325 84.8057 143.984 84.6908 144.671C84.9747 144.743 85.191 144.825 85.4138 144.849C87.8867 145.111 90.3572 145.416 92.8364 145.6C94.2696 145.707 95.7184 145.641 97.159 145.601C97.7897 145.583 98.4162 145.435 99.1191 145.336C98.8151 144.678 98.374 144.38 97.8869 144.209C96.8386 143.84 95.782 143.475 94.7033 143.219C93.5885 142.956 92.4236 142.899 91.3166 142.611C90.2013 142.322 89.6683 141.588 90.5448 140.636C90.9177 140.231 91.2665 139.803 91.6194 139.393C89.0221 137.863 87.1958 135.619 85.3584 133.221ZM96.9186 131.743C99.1035 129.186 101.2 126.749 103.099 124.158C101.008 120.437 98.6419 116.981 96.2937 113.412C93.6385 116.518 91.0827 119.507 88.4571 122.578C91.2899 125.646 94.0648 128.652 96.9186 131.743ZM61.1145 84.1893C61.1489 83.8153 61.1719 83.5259 61.2027 83.2373C61.3287 82.0599 61.3767 80.8668 61.5995 79.7079C62.5354 74.8447 63.8176 70.0814 65.8561 65.5506C65.9697 65.2983 66.0391 65.0263 66.1646 64.6613C62.4226 64.6593 58.8114 64.639 55.1349 64.7241C55.224 71.3728 55.311 77.8853 55.3996 84.5129C57.3675 84.4015 59.2159 84.2966 61.1145 84.1893ZM111.402 145.343C112.392 145.29 113.242 145.223 114.093 145.207C114.559 145.197 114.83 145.01 114.95 144.565C115.036 144.247 115.112 143.922 115.244 143.623C115.314 143.464 115.51 143.234 115.622 143.249C115.807 143.272 116.003 143.44 116.134 143.598C116.254 143.744 116.297 143.955 116.37 144.138C116.585 144.682 116.799 145.226 117.018 145.782C117.492 145.782 117.884 145.799 118.275 145.779C121.576 145.607 124.879 145.462 128.137 144.813C129.453 144.552 130.796 144.43 132.119 144.2C132.609 144.114 133.159 144.113 133.549 143.702C133.291 142.645 132.704 142.093 131.63 141.99C129.404 141.776 127.229 141.277 125.139 140.478C124.259 140.141 123.396 139.705 122.61 139.185C121.082 138.176 120.171 136.73 119.923 134.884C119.795 133.937 119.657 132.991 119.512 132.046C119.479 131.828 119.396 131.619 119.321 131.351C116.296 132.626 113.332 133.875 110.32 135.144C111.218 136.747 111.509 138.349 111.466 140.03C111.431 141.382 111.421 142.735 111.403 144.088C111.398 144.477 111.402 144.867 111.402 145.343ZM58.7055 108.861C59.2615 109.031 59.7789 109.261 60.3185 109.343C63.5259 109.828 66.7251 110.448 69.9523 110.701C73.9713 111.016 78.0133 111.048 82.0467 111.146C84.2768 111.199 86.5191 111.262 88.7377 111.087C90.5493 110.943 92.3313 111.027 94.126 111.15C94.2991 111.162 94.4756 111.132 94.7591 111.115C94.1055 110.018 93.5216 109.031 92.6751 108.242C92.4183 108.002 92.1027 107.768 91.7741 107.675C90.7663 107.389 89.7508 107.074 88.7168 106.952C86.5368 106.694 84.3428 106.552 82.155 106.359C80.2622 106.193 78.3584 106.091 76.5571 105.381C76.3524 105.3 76.1119 105.282 75.8879 105.281C70.4418 105.247 64.9956 105.218 59.5495 105.195C59.2032 105.193 58.8569 105.238 58.4462 105.265C58.5344 106.493 58.6148 107.606 58.7055 108.861ZM95.1304 111.687C94.6967 111.782 94.3373 111.939 93.9848 111.924C92.4511 111.86 90.9309 111.726 89.3836 111.896C87.9557 112.052 86.5011 111.961 85.0584 111.984C84.738 111.989 84.4175 112.016 84.0195 112.037C84.0195 112.604 84.0199 113.092 84.0195 113.58C84.0187 114.537 84.0376 115.494 84.0113 116.45C83.9863 117.376 83.8172 117.529 82.9166 117.598C82.5325 117.627 82.1489 117.661 81.7185 117.697C81.7041 118.016 81.6795 118.274 81.6832 118.531C81.7566 123.774 81.8227 129.019 81.9199 134.262C81.9367 135.155 82.0894 136.045 82.2034 137.179C82.5674 136.591 82.8423 136.196 83.0663 135.774C83.56 134.844 84.024 133.898 84.5098 132.964C84.6764 132.643 84.8537 132.256 85.2976 132.353C85.8992 132.485 86.1864 132.12 86.5081 131.734C86.9299 131.23 87.3956 130.763 87.8153 130.257C88.862 128.997 89.8928 127.724 90.9813 126.393C90.2268 125.613 89.5419 124.913 88.867 124.205C87.4173 122.682 87.4075 122.528 88.7381 120.966C90.8915 118.437 93.0546 115.917 95.2113 113.39C95.4168 113.149 95.6035 112.892 95.7939 112.649C95.5617 112.289 95.3873 112.012 95.2039 111.74C95.1702 111.691 95.0997 111.667 95.1304 111.687ZM70.5919 87.8284C70.5398 87.9395 70.4939 87.9956 70.4877 88.0559C70.1771 90.9912 70.1882 93.9207 70.6888 96.8353C71.461 101.334 75.7393 104.993 79.4133 105.241C82.6519 105.46 85.8889 105.703 89.1263 105.942C89.5805 105.976 90.0507 105.99 90.4816 106.121C92.0371 106.594 93.3168 107.475 94.229 108.855C95.0283 110.063 95.8222 111.277 96.6322 112.478C100.055 117.56 103.48 122.639 106.913 127.713C107.166 128.088 107.481 128.421 107.818 128.835C111.24 127.299 114.607 125.788 117.979 124.276C117.828 123.723 117.764 123.222 117.561 122.786C116.796 121.146 116.02 119.508 115.186 117.902C113.592 114.832 111.925 111.8 110.344 108.723C109.049 106.202 107.788 103.671 106.197 101.312C104.72 99.1211 102.935 97.3633 100.446 96.3997C99.1331 95.8911 97.8254 95.3697 96.5185 94.8458C94.9954 94.2361 93.4728 93.6242 91.9571 92.9963C91.6834 92.8832 91.4429 92.6887 91.1869 92.5319C91.2189 92.4534 91.2509 92.375 91.2833 92.2966C91.5529 92.3473 91.8286 92.3762 92.0908 92.4522C95.0549 93.3105 97.9448 94.3723 100.77 95.6195C102.726 96.4827 104.472 97.6192 105.753 99.3721C107.132 101.262 108.438 103.198 109.491 105.301C110.493 107.304 111.546 109.283 112.582 111.269C112.729 111.551 112.902 111.819 113.088 112.136C113.238 111.975 113.346 111.892 113.411 111.784C114.548 109.894 115.733 108.03 116.789 106.095C117.304 105.152 117.625 104.091 117.945 103.055C118.472 101.351 118.18 99.7305 117.29 98.203C115.566 95.2425 113.179 92.9542 110.076 91.5716C107.324 90.3455 104.453 89.391 101.64 88.2999C101.052 88.0712 100.471 87.9692 99.8331 87.9737C96.1587 88.0002 92.4843 87.9952 88.8103 87.9787C87.6032 87.9729 86.387 87.7822 85.1922 87.8829C82.6614 88.0968 80.1457 87.942 77.6206 87.847C75.2983 87.7599 72.9705 87.8284 70.5919 87.8284ZM103.981 79.0627C103.981 78.5632 103.927 78.301 103.99 78.0711C104.251 77.1182 104.514 76.1633 104.837 75.2303C105.388 73.6384 106.329 72.241 107.147 70.7857C107.463 70.223 107.57 69.7214 107.376 69.1047C107.11 68.2567 106.906 67.3885 106.675 66.529C105.918 63.7081 104.369 61.3991 102.278 59.3931C101.506 58.6521 100.597 58.1971 99.655 57.9498C97.5989 57.4103 95.496 57.0424 93.4022 56.6618C92.3555 56.4715 91.3744 56.6168 90.7795 57.6951C90.6711 57.8916 90.482 58.0456 90.3195 58.2087C88.4226 60.1098 86.0411 60.5396 83.6363 59.3795C82.2974 58.7334 81.0529 57.9152 80.0288 56.8323C79.5323 56.3072 79.0842 56.1986 78.3961 56.3332C76.178 56.7675 73.9545 57.2026 71.7133 57.4705C70.5452 57.6105 69.8489 58.0886 69.4238 59.15C68.7746 60.7707 68.1202 62.392 67.3915 63.9772C65.1639 68.8211 63.5653 73.8655 62.5013 79.0883C62.091 81.1017 61.8727 83.1308 61.9737 85.1863C62.0188 86.111 62.3918 86.63 63.1948 86.7332C64.3945 86.888 65.6054 87.0304 66.8121 87.0366C70.0598 87.0531 73.3078 86.9594 76.5555 86.9767C78.8836 86.9891 81.2109 87.1163 83.539 87.1741C83.9173 87.1836 84.2977 87.0985 84.765 87.0478C84.8869 85.1954 85.0055 83.4235 85.1183 81.6516C85.1516 81.1359 84.8274 80.8375 84.406 80.6992C83.6297 80.4444 82.8452 80.1687 82.0426 80.0518C80.291 79.7967 78.5258 79.6394 76.7668 79.4338C76.2789 79.3764 75.7878 79.3182 75.3093 79.2097C74.606 79.0503 74.5347 78.8645 74.7837 78.18C75.0094 77.5616 75.2367 76.9415 75.4168 76.3087C75.7045 75.2964 75.9367 74.268 76.233 73.2586C76.2929 73.0543 76.53 72.7579 76.6892 72.7554C77.1143 72.7488 77.0466 73.1261 77.0236 73.4188C77.0109 73.5827 76.9888 73.7487 76.9465 73.9072C76.7278 74.7349 76.5132 75.5643 76.2732 76.3863C76.0807 77.046 75.8538 77.6958 75.6126 78.4414C76.2272 78.5198 76.7742 78.5933 77.3223 78.6581C79.0149 78.8583 80.7165 79.0036 82.3979 79.2753C83.2604 79.4144 84.1561 79.6526 84.9091 80.0762C85.5758 80.451 86.1745 80.8474 86.9664 80.8796C87.4748 80.9006 87.8194 81.1805 87.8687 81.7428C87.9294 82.4327 88.3672 82.8645 88.9043 83.2208C89.7348 83.7723 90.6297 84.1814 91.6149 84.3412C94.0012 84.7276 96.3811 84.3449 98.8553 84.3313C98.8582 82.5644 98.6452 80.9052 98.3691 79.2563C98.0699 77.4708 97.722 75.6931 97.3896 73.913C97.3182 73.5307 97.4442 73.214 97.8069 73.1393C98.2295 73.0522 98.2254 73.4403 98.2763 73.7301C98.829 76.8796 99.4744 80.0155 99.6406 83.222C99.6599 83.5964 99.7604 83.9663 99.813 84.2793C100.981 84.3953 102.025 84.4816 103.063 84.6062C104.131 84.7342 104.984 85.2362 105.565 86.1684C105.648 86.3026 105.76 86.4182 105.769 86.4285C107.434 86.3975 108.967 86.3761 110.499 86.3381C112.302 86.2935 114.105 86.2464 115.908 86.1771C116.94 86.1379 117.824 85.7304 118.491 84.927C118.867 84.4729 119.244 84.0052 119.531 83.4924C120.652 81.4881 121.285 79.3096 121.704 77.0608C121.92 75.8962 122.015 74.6887 122.392 73.5786C123.235 71.1028 123.85 68.5804 124.265 66.0051C124.703 63.2932 125.257 60.6221 126.542 58.1579C126.784 57.6943 126.915 57.1729 127.1 56.6795C127.781 54.8684 127.42 53.1737 126.515 51.5505C126.209 51.0006 125.756 50.7095 125.073 50.7153C122.514 50.7359 119.955 50.7153 117.396 50.6992C116.37 50.6926 116.185 50.7194 115.892 51.7127C115.616 52.6486 115.46 53.6407 115.404 54.6166C115.322 56.031 115.436 57.4565 115.365 58.8721C115.192 62.3416 113.905 65.2752 111.083 67.4067C109.831 68.3512 108.782 69.463 108.043 70.8596C107.828 71.2671 107.616 71.6783 107.368 72.0668C106.266 73.8036 105.431 75.6564 104.936 77.6595C104.865 77.9476 104.829 78.2589 104.689 78.5103C104.588 78.6915 104.342 78.791 103.981 79.0627ZM103.291 87.9246C103.734 88.1092 104.024 88.2318 104.317 88.3515C106.594 89.2812 108.882 90.1853 111.145 91.1489C112.575 91.7574 113.93 92.5744 114.976 93.7105C116.485 95.3495 117.888 97.1061 118.66 99.2578C119.073 100.409 119.07 101.588 118.811 102.77C118.448 104.426 117.838 105.991 116.974 107.443C115.98 109.112 114.935 110.75 113.913 112.402C113.793 112.596 113.682 112.794 113.558 113.004C114.208 114.28 114.86 115.536 115.49 116.801C116.62 119.072 117.74 121.348 118.86 123.624C119.293 124.504 119.247 124.608 118.324 125.006C117.481 125.369 116.638 125.733 115.796 126.101C115.741 126.126 115.704 126.191 115.608 126.289C116.394 127.834 117.19 129.4 118.016 131.025C118.489 130.816 118.876 130.649 119.259 130.474C119.69 130.278 119.982 130.429 120.076 130.866C120.24 131.639 120.365 132.42 120.492 133.2C120.588 133.786 120.652 134.377 120.75 134.962C121.003 136.475 121.761 137.695 123.039 138.507C123.919 139.065 124.866 139.556 125.842 139.91C127.757 140.605 129.747 141.038 131.779 141.246C133.231 141.394 133.899 141.986 134.41 143.64C134.561 144.129 134.374 144.432 133.926 144.542C132.941 144.785 131.944 144.977 130.955 145.205C130.261 145.365 129.573 145.552 128.881 145.721C128.723 145.76 128.559 145.779 128.397 145.795C125.914 146.025 123.434 146.273 120.949 146.473C119.805 146.565 118.653 146.542 117.507 146.609C116.775 146.653 116.311 146.392 116.125 145.657C116.072 145.444 115.945 145.25 115.773 144.872C115.386 146.027 114.542 146.015 113.688 146.037C112.967 146.054 112.25 146.161 111.53 146.198C110.882 146.231 110.606 146.015 110.564 145.371C110.522 144.748 110.581 144.118 110.581 143.492C110.583 141.843 110.608 140.193 110.563 138.545C110.535 137.543 110.187 136.612 109.706 135.732C109.26 134.915 109.267 134.91 110.04 134.221C109.763 133.735 109.473 133.229 109.186 132.723C108.78 132.006 108.37 131.292 107.972 130.572C107.741 130.154 107.634 129.656 106.964 129.671C106.771 129.675 106.537 129.301 106.377 129.062C105.481 127.722 104.603 126.371 103.678 124.963C103.505 125.119 103.354 125.224 103.24 125.362C101.416 127.569 99.609 129.79 97.7667 131.981C97.3523 132.474 96.7852 132.835 96.3417 133.307C94.9675 134.77 93.6176 136.257 92.2627 137.739C92.0884 137.93 91.9406 138.145 91.7761 138.355C93.0009 139.034 93.0058 139.07 92.0748 140.107C91.7047 140.52 91.3399 140.936 91.0072 141.313C91.1397 141.872 91.5353 141.848 91.8832 141.91C93.2381 142.156 94.6073 142.343 95.9416 142.673C96.8558 142.899 97.7491 143.267 98.6009 143.678C99.4219 144.074 100.004 144.742 100.211 145.826C99.8125 145.949 99.4301 146.099 99.0338 146.184C96.2982 146.772 93.5487 146.52 90.7979 146.318C89.9182 146.254 89.0323 146.247 88.1497 146.257C86.0826 146.278 84.0154 146.318 81.9482 146.365C78.639 146.44 75.3298 146.526 72.0207 146.61C71.1795 146.632 71.0597 146.53 71.0392 145.677C71.0322 145.382 71.0581 145.084 71.0786 144.788C71.1434 143.86 71.598 143.201 72.5139 143.016C73.5708 142.803 74.6471 142.685 75.7176 142.544C76.1049 142.492 76.4988 142.491 77.0109 142.459C76.4873 134.14 76.96 125.851 76.7709 117.518C76.4344 117.453 76.1197 117.39 75.8042 117.331C74.8038 117.144 74.6561 116.978 74.6143 115.984C74.5658 114.83 74.5199 113.676 74.4682 112.522C74.4596 112.328 74.4272 112.135 74.3972 111.862C74.0291 111.828 73.6775 111.776 73.325 111.765C69.1837 111.644 65.0896 111.099 61.0209 110.349C60.2175 110.201 59.4236 109.973 58.6477 109.714C57.8451 109.446 57.8274 109.281 57.8159 108.43C57.8032 107.475 57.6924 106.522 57.6112 105.569C57.5332 104.661 57.6838 104.449 58.6177 104.426C60.8153 104.372 63.0138 104.348 65.2119 104.316C65.7978 104.308 66.3833 104.315 66.9606 104.315C67.2987 102.412 66.5823 90.7133 65.4843 88.0109C64.7634 87.8714 64.038 87.7038 63.3035 87.5956C62.0069 87.4049 61.3467 86.6345 61.1908 85.3642C61.1793 85.2709 61.1358 85.1817 61.0804 85.0063C60.7419 85.0063 60.389 84.9889 60.0382 85.0092C58.5644 85.095 57.0913 85.1949 55.6179 85.2849C54.7 85.3415 54.5913 85.2466 54.5794 84.323C54.4969 77.9204 54.4173 71.5173 54.341 65.1142C54.3274 63.9777 54.4173 63.8773 55.5801 63.8711C58.8278 63.8546 62.0758 63.8534 65.3235 63.8464C65.7157 63.8456 66.1084 63.8464 66.5651 63.8464C66.8716 63.1429 67.1748 62.4543 67.4711 61.7632C67.9388 60.6729 68.3988 59.5793 68.8682 58.4898C69.3745 57.3128 70.2542 56.8133 71.541 56.663C73.7173 56.4087 75.8834 56.0124 78.0264 55.5496C79.1212 55.3135 79.8724 55.4204 80.7005 56.3109C81.9339 57.6373 83.4639 58.636 85.2718 59.0913C86.7571 59.4654 88.0701 59.0798 89.2272 58.1344C89.6819 57.7628 90.1537 57.3508 90.4479 56.8554C91.0556 55.8324 91.9677 55.7139 92.9808 55.806C93.5671 55.8592 94.1514 55.9641 94.7291 56.0818C96.5579 56.4521 98.4138 56.6969 100.163 57.421C102.86 58.5373 104.922 60.3501 106.107 63.0335C106.81 64.6225 107.301 66.3065 107.88 67.95C107.978 68.2278 108.043 68.5176 108.149 68.8954C108.351 68.724 108.511 68.5944 108.665 68.4573C109.253 67.9318 109.803 67.3555 110.432 66.8848C113.293 64.7443 114.491 61.7958 114.593 58.3152C114.63 57.0622 114.6 55.8068 114.586 54.553C114.571 53.0379 114.812 51.5988 115.695 50.319C116.075 49.7683 115.779 49.161 115.718 48.5975C115.615 47.6438 115.672 47.553 116.567 47.3561C117.971 47.0464 119.379 47.2223 120.782 47.2557C122.218 47.29 123.651 47.456 125.086 47.5418C125.62 47.5736 125.972 47.8015 126.064 48.3304C126.165 48.9129 126.106 49.5503 126.324 50.0775C126.54 50.5993 127.081 50.9754 127.362 51.4815C128.418 53.3818 128.543 55.3622 127.721 57.388C127.399 58.1814 127.1 58.9873 126.733 59.7593C125.988 61.3264 125.606 62.9897 125.342 64.6902C124.784 68.2782 123.853 71.7807 122.965 75.2947C122.433 77.4023 122.084 79.5548 121.308 81.6004C120.788 82.9706 120.129 84.2421 119.166 85.3539C118.348 86.2993 117.33 86.8475 116.099 86.9417C114.89 87.0341 113.677 87.0626 112.465 87.1117C110.434 87.1943 108.4 87.2269 106.373 87.3689C105.408 87.4366 104.456 87.7071 103.291 87.9246Z" fill="black"/>
<path fill-rule="evenodd" clip-rule="evenodd" d="M83.492 86.353C72.1387 86.2524 60.9371 86.1523 49.6393 86.0522C49.6393 86.7621 49.6398 87.3463 49.6398 87.9309C49.6398 88.5081 49.6393 89.0858 49.6393 89.6366C51.2226 89.8819 82.5219 89.7619 83.3359 89.5053C83.3838 88.5393 83.4329 87.5452 83.492 86.353ZM46.0384 145.994C46.1297 146.059 46.2206 146.124 46.3115 146.188C46.4672 146.06 46.6872 145.962 46.7633 145.798C46.8763 145.553 46.8924 145.262 46.942 144.989C47.6921 140.869 48.4405 136.748 49.1897 132.627C50.4721 125.576 51.7431 118.523 53.0424 111.476C54.14 105.521 55.2658 99.5713 56.3916 93.6215C56.609 92.4718 56.6351 92.4727 57.7957 92.4631C62.9408 92.4215 68.0859 92.3782 73.231 92.3444C75.2074 92.3318 77.1837 92.3422 79.2527 92.3422C79.4036 92.9186 79.6019 93.5054 79.708 94.1082C81.0591 101.778 82.3941 109.451 83.7386 117.122C85.4001 126.6 87.0669 136.076 88.731 145.554C88.875 146.372 89.0133 147.191 89.162 148.009C89.2402 148.438 89.4211 148.721 90.0556 148.415C87.8314 129.168 85.6036 109.893 83.3707 90.5708C82.9628 90.5708 82.688 90.5708 82.4132 90.5708C77.442 90.5827 72.4709 90.6 67.5002 90.6044C62.8069 90.6083 58.114 90.5974 53.4208 90.6005C53.0203 90.6009 52.6198 90.6585 52.1636 90.6936C50.1142 109.197 48.0765 127.596 46.0384 145.994ZM159.656 148.135H160.477C163.906 129.506 167.332 110.897 170.77 92.2183C171.31 92.2183 171.72 92.2191 172.131 92.2183C177.207 92.2061 182.283 92.1927 187.36 92.181C191.671 92.171 195.982 92.1606 200.293 92.1554C201.547 92.1537 201.706 92.2906 201.929 93.531C202.089 94.4172 202.241 95.3043 202.389 96.1923C203.609 103.535 204.822 110.88 206.047 118.222C207.559 127.273 209.08 136.322 210.6 145.37C210.66 145.726 210.763 146.075 210.856 146.468C211.551 146.277 211.351 145.851 211.317 145.513C210.81 140.449 210.288 135.385 209.785 130.32C209.258 125.013 208.755 119.705 208.229 114.398C207.543 107.471 206.846 100.545 206.15 93.6198C206.037 92.4883 205.904 91.3589 205.777 90.1883H166.618C164.295 109.522 161.981 128.791 159.656 148.135ZM205.577 85.9504C204.506 85.7714 85.0414 86.278 84.3274 86.4743V89.2102C84.4074 89.254 84.4665 89.3146 84.5252 89.3146C124.646 89.3081 164.767 89.2977 204.888 89.2852C205.094 89.2852 205.301 89.2535 205.507 89.2323C205.536 89.2293 205.566 89.1989 205.591 89.1777C205.617 89.1547 205.638 89.1266 205.699 89.0603C205.699 88.2442 205.707 87.3822 205.693 86.5211C205.69 86.3239 205.615 86.1272 205.577 85.9504ZM158.696 148.913C161.059 129.269 163.403 109.781 165.752 90.2516H84.2178C84.8013 95.2744 85.3736 100.185 85.942 105.096C86.5112 110.017 87.0778 114.937 87.6439 119.858C88.2058 124.743 88.7802 129.628 89.322 134.517C89.866 139.428 90.5891 144.321 90.9309 149.343C90.1143 149.396 89.4681 149.437 88.6715 149.489C87.8892 145.748 87.3178 142 86.6464 138.272C85.9715 134.524 85.3306 130.77 84.6718 127.02C84.0069 123.235 83.3359 119.451 82.6723 115.666C82.0153 111.913 81.3682 108.16 80.709 104.408C80.0507 100.666 79.3823 96.9251 78.7118 93.1461C71.5494 93.202 64.5002 93.2571 57.3165 93.313C55.4937 102.262 53.9908 111.238 52.3476 120.187C50.7099 129.105 49.0941 138.028 47.4538 147.03C46.7289 147.198 45.9753 147.025 45.123 146.87C47.1942 128.132 49.2584 109.46 51.3352 90.6724C50.8313 90.6486 50.4225 90.6507 50.0185 90.6065C49.0267 90.4986 48.8288 90.2811 48.8231 89.306C48.8162 88.096 48.8218 86.8864 48.8218 85.7289C49.4302 85.2708 50.0198 85.1937 50.6656 85.2011C61.4076 85.3194 72.15 85.4546 82.8924 85.5157C88.0696 85.546 93.2482 85.4047 98.4263 85.3861C123.011 85.2964 147.596 85.2258 172.182 85.1417C183.169 85.1044 194.156 85.0511 205.143 85.0056C205.386 85.0041 205.63 85.0013 205.873 85.0095C206.337 85.0255 206.558 85.2535 206.551 85.7328C206.541 86.4947 206.521 87.2605 206.577 88.0193C206.802 91.0919 207.027 94.1641 207.305 97.2324C207.586 100.335 207.933 103.432 208.246 106.532C208.65 110.529 209.052 114.526 209.45 118.523C209.82 122.244 210.181 125.966 210.552 129.687C210.941 133.582 211.336 137.475 211.728 141.368C211.887 142.953 212.054 144.537 212.197 146.123C212.273 146.973 212.048 147.207 211.154 147.309C210.303 147.407 210.082 147.276 209.939 146.444C209.311 142.793 208.697 139.139 208.085 135.485C206.941 128.655 205.8 121.824 204.659 114.993C203.505 108.094 202.352 101.195 201.196 94.2963C201.129 93.8937 201.035 93.4954 200.946 93.0638H171.499C171.318 94.0051 171.136 94.9113 170.969 95.8205C169.059 106.243 167.154 116.667 165.239 127.089C164.024 133.696 162.792 140.299 161.575 146.907C161.481 147.413 161.436 147.931 161.398 148.445C161.364 148.924 161.082 149.149 160.654 149.132C160.073 149.108 159.495 149.007 158.696 148.913Z" fill="black"/>
<path fill-rule="evenodd" clip-rule="evenodd" d="M178.674 85.938C176.453 85.8853 174.291 85.8247 172.127 85.7848C169.933 85.7445 167.737 85.7468 165.542 85.69C163.387 85.6341 161.233 85.5269 159.031 85.4398V86.635C161.316 87.0199 177.776 87.2203 178.721 86.8667C178.706 86.5814 178.691 86.2845 178.674 85.938ZM175.835 79.8518C175.79 79.1334 175.745 78.4338 175.701 77.7349C174.85 77.5677 162.503 78.1297 161.222 78.4013V80.1068C166.146 80.021 170.988 79.9364 175.835 79.8518ZM177.299 82.4111C176.121 82.3179 174.982 82.1691 173.841 82.1474C169.605 82.0661 165.369 82.0258 161.134 81.9741C161.023 81.9729 160.911 82.0195 160.851 82.0325C160.822 82.6699 160.796 83.2421 160.767 83.8635C166.313 83.9423 171.832 84.0208 177.374 84.0997C177.633 83.5747 177.52 83.0395 177.299 82.4111ZM159.992 83.7642C160.338 82.9801 160.342 82.9255 160.107 82.0038C159.923 81.9454 159.715 81.8746 159.504 81.8139C159.227 81.7345 158.954 81.6355 158.987 81.2733C159.021 80.8894 159.318 80.8913 159.604 80.8945C159.974 80.8992 160.344 80.8957 160.659 80.8957C160.627 80.0251 160.537 79.2183 160.583 78.4201C160.636 77.5003 160.706 77.4879 161.612 77.3468C165.534 76.736 169.481 76.4088 173.444 76.2825C174.84 76.2378 176.235 76.1934 177.63 76.1503C177.83 76.1443 178.03 76.1443 178.229 76.1484C178.477 76.1532 178.751 76.1258 178.847 76.4449C178.953 76.7928 178.905 77.1384 178.585 77.3219C178.312 77.4783 177.989 77.5734 177.677 77.6226C177.289 77.6842 176.889 77.6704 176.475 77.6902C176.231 78.4367 176.357 79.1133 176.624 79.8263C176.98 79.8263 177.302 79.8138 177.623 79.8288C178.147 79.854 178.471 80.0794 178.543 80.4445C178.624 80.8613 178.429 81.1128 177.843 81.3512C177.778 81.3777 177.721 81.4239 177.599 81.4992C178.154 82.5199 178.319 83.5983 177.875 84.7568C178.149 84.8037 178.312 84.8452 178.477 84.858C179.143 84.9093 179.21 84.9537 179.263 85.6019C179.3 86.0586 179.309 86.5198 179.295 86.9777C179.281 87.4686 179.158 87.6096 178.66 87.6294C177.614 87.6712 176.566 87.7108 175.52 87.6885C170.51 87.5812 165.5 87.4526 160.49 87.3342C160.043 87.3237 159.595 87.3326 159.225 87.3326C159.04 87.5589 158.895 87.7351 158.75 87.9116C158.582 87.7584 158.413 87.6055 158.244 87.452C158.014 87.1855 157.522 87.4916 157.332 86.971C157.554 86.5558 157.97 86.8009 158.324 86.6372V85.5039C158.185 85.4615 157.987 85.4347 157.826 85.3411C157.693 85.2642 157.604 85.1082 157.496 84.9872C157.624 84.8966 157.742 84.7565 157.883 84.7274C158.096 84.6831 158.326 84.7159 158.505 84.7159C158.683 84.3933 158.772 84.0164 159 83.8763C159.247 83.7247 159.624 83.7949 159.992 83.7642Z" fill="black"/>
<path fill-rule="evenodd" clip-rule="evenodd" d="M117.949 88.0258C121.708 75.9311 123.959 68.8372 124.7 66.744C125.442 64.6508 130.22 63.9267 139.033 64.5716H154.78C156.213 64.2983 156.929 64.7262 156.929 65.8555C156.929 66.9848 154.881 74.5833 150.785 88.6511L117.949 88.0258Z" fill="white"/>
<path fill-rule="evenodd" clip-rule="evenodd" d="M117.826 87.6697C117.538 87.5358 117.435 87.446 117.332 87.4456C114.146 87.4374 110.959 87.3863 107.706 87.4287C108.012 88.0034 108.012 88.0302 108.536 88.0253C111.38 87.9977 114.223 87.9589 117.066 87.9103C117.261 87.907 117.453 87.7917 117.826 87.6697ZM150.739 86.4984C151.006 85.7268 151.272 85.0235 151.494 84.3071C152.489 81.1109 153.489 77.9171 154.451 74.7114C155.157 72.3565 155.81 69.9855 156.479 67.6194C156.577 67.2726 156.649 66.9158 156.7 66.559C156.845 65.5599 156.505 65.0552 155.497 64.9337C154.361 64.7973 153.214 64.6832 152.072 64.6795C145.936 64.6618 139.8 64.6803 133.665 64.6881C131.833 64.6906 130.007 64.7013 128.177 64.895C126.298 65.0931 124.954 65.8582 124.301 67.7039C123.907 68.8171 123.387 69.8883 123.038 71.0134C122.454 72.8929 121.96 74.8004 121.432 76.6972C120.887 78.6575 120.349 80.6202 119.804 82.5804C119.437 83.9041 119.063 85.2262 118.652 86.6892C129.413 86.6253 140.066 86.5623 150.739 86.4984ZM150.509 87.3747C150.161 87.35 149.939 87.3191 149.717 87.3204C141.811 87.3566 133.905 87.3941 125.998 87.4353C123.735 87.4472 121.472 87.4691 119.208 87.4905C118.944 87.4934 118.606 87.3854 118.499 87.9453C118.884 87.9635 119.224 87.9935 119.564 87.9931C127.767 87.9898 135.97 87.9828 144.173 87.9771C145.781 87.9758 147.389 87.9717 148.996 87.9865C149.33 87.989 149.737 87.8654 149.932 88.3112C149.734 88.7743 149.325 88.649 148.99 88.6519C146.793 88.67 144.595 88.6721 142.398 88.6774C135.742 88.6947 129.087 88.7046 122.432 88.731C118.072 88.7487 113.713 88.7932 109.353 88.8175C108.829 88.8208 108.299 88.8142 107.782 88.7425C107.063 88.6437 106.834 88.3495 106.871 87.7155C106.915 86.9627 107.219 86.6414 107.96 86.6402C110.913 86.6364 113.866 86.6463 116.82 86.6505C117.177 86.6513 117.533 86.6509 117.952 86.6509C118.177 85.9237 118.403 85.2472 118.593 84.5604C119.576 81.0198 120.547 77.4763 121.525 73.9344C121.962 72.3507 122.323 70.739 122.873 69.1961C123.277 68.0644 123.874 66.9883 124.492 65.9505C125.286 64.6132 126.601 64.1196 128.086 64.0846C130.218 64.0339 132.35 64.0215 134.482 64.0121C141.273 63.9816 148.064 63.963 154.854 63.9288C155.463 63.926 156.016 64.008 156.517 64.3948C157.456 65.1203 157.788 66.2376 157.35 67.6915C156.698 69.8607 155.978 72.0092 155.301 74.1709C154.634 76.2992 153.99 78.435 153.326 80.5646C152.613 82.8503 151.887 85.1315 151.169 87.4155C151.051 87.7904 150.975 88.1826 150.817 88.539C150.764 88.6589 150.518 88.6923 150.36 88.7652C150.299 88.6264 150.17 88.4752 150.192 88.3507C150.242 88.0669 150.366 87.7962 150.509 87.3747Z" fill="black"/>
<path fill-rule="evenodd" clip-rule="evenodd" d="M140.494 75.7628C140.479 76.761 139.61 77.6439 138.686 77.5994C137.9 77.5615 137.232 76.8784 137.252 76.1323C137.28 75.1324 138.142 74.2054 139.02 74.231C139.856 74.2561 140.507 74.9318 140.494 75.7628Z" fill="black"/>
</svg>
