<svg width="222" height="148" viewBox="0 0 222 148" fill="none" xmlns="http://www.w3.org/2000/svg">
<g clip-path="url(#clip0_2293_14621)">
<path fill-rule="evenodd" clip-rule="evenodd" d="M84.0556 141.083H222.023C201.38 49.5264 182.671 3.74805 165.896 3.74805C140.734 3.74805 131.523 32.253 117.721 43.2617C103.918 54.2704 95.8935 59.1311 73.3263 51.1964C50.7592 43.2617 3.79883 46.6263 3.79883 73.2168C3.79883 90.9438 10.3984 113.537 23.5974 140.996L84.0556 141.083Z" fill="#FBF9FF"/>
<path fill-rule="evenodd" clip-rule="evenodd" d="M10.0391 124.118C10.0391 124.118 17.4265 89.0443 26.0308 83.9493C30.3455 81.394 41.3048 78.5283 41.3048 78.5283C41.3048 78.5283 47.0311 89.4925 53.0445 86.418C57.3291 84.228 57.1144 79.127 57.1144 79.127C57.1144 79.127 75.8656 79.1119 79.1073 80.8627C79.8129 81.2446 85.1811 91.9074 89.5588 102.785C90.2034 104.387 94.1645 110.862 90.5153 111.889C87.8398 113.047 76.907 114.306 76.907 114.306C76.907 114.306 77.7968 121.584 77.1583 121.958C75.1625 123.127 66.0601 122.652 62.1102 122.971C61.5221 123.018 62.649 118.083 63.1135 115.62C64.2581 115.179 65.3636 113.676 65.2074 113.763C64.423 114.2 62.8001 107.816 62.007 108.249C61.3899 108.587 44.2778 108.871 43.6592 109.204C40.2359 116.694 46.8948 137.895 44.0311 137.102C34.482 134.458 27.0921 133.259 27.0921 133.259C27.0921 133.259 26.1916 125.696 24.5453 125.449C21.0716 124.925 10.0391 124.118 10.0391 124.118Z" fill="#5274EF"/>
<path fill-rule="evenodd" clip-rule="evenodd" d="M46.8183 108.642C48.0555 108.882 49.3483 108.742 50.3484 108.274C50.1994 108.091 50.0936 107.835 49.9201 107.775C49.4403 107.61 47.4344 108.173 46.8183 108.642ZM45.0387 110.06C48.2148 111.287 58.6399 110.776 60.6764 109.301C55.4231 109.058 50.3586 109.275 45.0387 110.06ZM45.6721 133.18C45.7911 134.144 45.9092 134.972 45.9926 135.805C46.0491 136.375 46.3823 136.642 46.9073 136.759C48.3277 137.077 49.7344 137.483 51.1706 137.701C52.62 137.92 54.0989 137.979 55.559 137.575C55.2685 137.429 54.9724 137.338 54.6712 137.313C54.0251 137.261 53.3734 137.269 52.7283 137.206C50.7056 137.007 49.9435 137.313 50.3947 134.443C49.3198 134.369 48.5114 133.844 48.0169 132.856C47.2451 132.963 46.5334 133.061 45.6721 133.18ZM76.9083 114.308C77.5803 114.308 78.0769 114.38 78.5444 114.296C82.011 113.674 85.4801 113.063 88.9283 112.354C90.1076 112.111 91.2324 111.606 92.376 111.204C92.7342 111.078 93.0517 110.859 92.9901 110.418C92.87 109.559 92.7184 108.705 92.5683 107.775C87.0928 108.956 81.7718 110.104 76.3263 111.279C76.5104 112.24 76.7043 113.249 76.9083 114.308ZM24.4846 124.428C24.3508 122.968 24.2287 121.635 24.0984 120.212C19.4368 120.407 14.9156 120.493 10.3695 118.885C10.4794 120.377 10.5888 121.65 10.6621 122.924C10.7022 123.636 11.1001 124.05 11.7411 124.207C12.6436 124.426 13.5578 124.633 14.4802 124.733C17.2787 125.038 20.0743 124.742 22.8688 124.602C23.3496 124.577 23.8283 124.5 24.4846 124.428ZM61.4019 120.524C61.9279 118.485 62.136 116.503 61.9289 115.622C55.9553 117.008 49.9364 118.032 43.66 117.635C43.8803 118.904 44.0701 119.996 44.2675 121.138C50.0544 121.601 55.7233 121.796 61.4019 120.524ZM44.3682 122.06C44.4684 122.995 44.5452 123.782 44.6378 124.568C44.9008 126.802 45.1674 129.036 45.4396 131.27C45.5413 132.106 45.6858 132.211 46.5415 132.11C46.9048 132.067 47.2772 132.046 47.6231 131.942C47.8933 131.86 48.1293 131.667 48.3949 131.516C46.9694 129.564 47.6969 129.189 49.07 128.237C48.5836 127.199 49.3381 125.918 50.3484 125.829C51.4448 125.734 57.1941 125.674 60.9811 124.88C61.0956 123.718 61.1999 122.669 61.3184 121.468C55.6516 122.662 50.1332 122.4 44.3682 122.06ZM43.5242 111.101C43.0892 112.894 42.6761 114.597 42.2651 116.293C46.6652 117.5 60.6652 115.813 63.8255 113.704C63.1743 112.493 62.5185 111.274 61.8908 110.106C55.8016 112.331 49.7217 111.615 43.5242 111.101ZM61.3281 130.907C61.004 131.036 60.7425 131.2 60.4632 131.239C59.4981 131.377 58.527 131.472 57.5568 131.58C55.0497 131.86 52.5411 132.116 50.0183 131.754C49.6474 131.701 49.2475 131.637 49.0868 132.082C48.9118 132.566 49.0807 133.009 49.5635 133.173C50.205 133.391 50.8811 133.586 51.5536 133.629C54.2403 133.802 56.9188 133.735 59.5561 133.109C59.7917 133.054 60.0384 132.965 60.2679 132.991C60.4307 133.011 60.6723 133.183 60.6947 133.317C60.7171 133.455 60.5492 133.714 60.4057 133.769C60.0308 133.913 59.6258 133.99 59.2285 134.069C57.1869 134.475 55.127 134.672 53.0438 134.575C52.505 134.551 51.0408 134.423 51.1283 135.644C51.1492 135.936 51.6356 136.042 51.9021 136.061C54.2881 136.232 56.6757 136.411 59.0657 136.48C60.1122 136.51 61.1653 136.288 62.2164 136.183C63.5467 136.05 64.1343 134.918 64.234 133.834C64.3246 132.853 64.1714 131.904 63.765 131.01C63.2272 129.829 63.0578 128.575 63.3493 127.352C63.8067 125.436 63.2394 125.251 61.4578 125.7C58.2009 126.522 54.893 126.804 51.5389 126.583C51.2169 126.562 50.8867 126.56 50.5677 126.604C49.7334 126.718 49.5899 126.943 49.6876 128.078C51.4809 128.157 53.2991 128.291 55.1184 128.301C56.5388 128.309 57.9597 128.153 59.3816 128.095C59.7525 128.08 60.127 128.158 60.5696 128.201C60.3304 129.079 59.7215 128.974 59.2443 128.981C56.6446 129.021 54.045 129.021 51.4458 129.045C50.6338 129.052 49.8132 129.026 49.014 129.136C48.2713 129.24 48.1263 129.835 48.6782 130.34C48.8772 130.522 49.1549 130.67 49.419 130.722C50.0936 130.853 50.7783 130.966 51.4636 131.007C54.3227 131.181 57.1381 130.681 59.9692 130.425C60.4378 130.383 60.9313 130.203 61.3281 130.907ZM77.1855 115.535C77.4226 118.187 78.2402 120.878 78.3913 123.615C77.4389 123.915 77.6302 122.932 77.2364 122.824C76.571 122.897 76.0088 122.989 75.4436 123.014C73.4936 123.1 71.5426 123.167 69.5921 123.235C67.3974 123.312 65.2032 123.379 63.0085 123.46C62.0871 123.494 62.0286 123.578 62.168 124.531C62.3685 124.531 62.5725 124.516 62.7734 124.533C63.9888 124.64 64.6191 125.282 64.3714 126.45C64.0041 128.178 64.2559 129.772 64.8674 131.401C65.1798 132.234 65.165 133.187 65.3151 134.205C67.4762 134.001 69.617 133.841 71.7471 133.59C76.1854 133.067 80.6206 132.517 85.0502 131.93C86.6176 131.722 88.1764 131.42 89.7194 131.074C91.0574 130.773 91.9563 129.949 92.1802 128.552C92.2885 127.88 92.371 127.199 92.3974 126.52C92.5617 122.312 91.8958 118.186 91.091 114.077C91.0111 113.669 90.7837 113.29 90.6865 113.05C86.0987 113.894 81.6777 114.708 77.1855 115.535ZM56.2926 77.8884C56.9784 78.0087 57.5583 78.1712 58.1464 78.2039C60.8662 78.3573 63.5874 78.5082 66.3102 78.5953C69.4847 78.6969 72.6435 78.875 75.756 79.5678C78.7672 80.2379 81.0896 81.8484 82.7695 84.3991C84.4427 86.9398 85.679 89.7014 86.8384 92.4881C88.678 96.9114 90.4154 101.376 92.1939 105.824C92.3694 106.263 92.4203 106.773 92.987 106.958C93.1203 107.001 93.2821 107.169 93.304 107.301C93.507 108.519 93.7364 109.737 93.8266 110.965C93.8463 111.244 93.4047 111.628 93.0918 111.843C92.6665 112.135 92.1609 112.313 91.6531 112.557C92.3715 115.462 92.8726 118.387 93.0934 121.342C93.2485 123.423 93.3182 125.526 93.2022 127.605C93.045 130.411 91.8963 131.653 89.0784 132.169C86.4838 132.643 83.8607 132.974 81.2438 133.326C78.3445 133.716 75.4406 134.077 72.5336 134.412C70.3537 134.664 68.1681 134.878 65.9805 135.059C65.3634 135.109 64.8984 135.225 64.6018 135.825C64.2762 136.485 63.6418 136.829 62.953 136.961C61.8791 137.166 60.7888 137.295 59.7011 137.416C59.1807 137.475 58.7447 137.617 58.2538 137.852C57.3268 138.294 56.2615 138.531 55.2293 138.661C52.0929 139.056 49.0888 138.331 46.1183 137.435C45.5027 137.248 45.2137 136.825 45.1399 136.195C44.9532 134.598 44.7299 133.005 44.5315 131.41C44.0207 127.3 43.5211 123.189 43.0032 119.08C42.9386 118.567 42.7911 118.063 42.6766 117.53C42.1577 117.37 41.6632 117.217 41.1112 117.047C41.446 115.679 41.7695 114.359 42.0926 113.037C42.2549 112.374 42.4009 111.706 42.5825 111.047C42.8577 110.047 43.3639 109.299 44.5559 109.246C44.9889 109.226 45.4152 109.067 45.8949 108.961V107.585C47.326 107.267 48.7195 106.879 50.1633 106.764C50.4192 106.744 50.7732 107.105 50.9666 107.373C51.1711 107.654 51.2367 108.033 51.34 108.308C52.8118 108.308 54.2286 108.275 55.6434 108.317C57.6301 108.375 59.6162 108.468 61.5998 108.6C61.9025 108.62 62.3176 108.861 62.457 109.117C63.3005 110.673 64.0794 112.264 64.8761 113.836C64.6334 114.67 63.9094 114.879 63.1748 115.167C62.8543 117.565 62.5333 119.973 62.1884 122.556C67.2793 122.441 72.1734 122.271 77.1591 121.961C77.1209 121.469 77.1245 121.157 77.0695 120.855C76.4413 117.415 75.8048 113.976 75.1674 110.537C75.0178 109.73 75.0127 109.731 75.7168 109.321C75.8893 109.571 76.0638 109.825 76.2734 110.129C81.3984 109.533 86.3663 108.175 91.4456 106.982C91.3916 106.65 91.3916 106.37 91.3006 106.124C88.9268 99.7474 86.437 93.4183 83.3851 87.3212C82.624 85.8008 81.7021 84.3906 80.5254 83.1408C79.1651 81.6949 77.4394 80.9528 75.5586 80.4844C72.8999 79.8229 70.1782 79.6749 67.4559 79.5441C64.2065 79.3887 60.9562 79.2468 57.7059 79.1029C57.511 79.0949 57.3141 79.12 57.1152 79.1296C56.7286 80.2746 56.3811 81.382 55.9777 82.4697C55.7406 83.1091 55.4623 83.7436 55.1209 84.3337C53.614 86.9373 50.9605 87.6431 48.3537 86.1067C46.3411 84.9203 44.6439 83.3602 43.2245 81.5203C42.6832 80.8185 42.232 80.0503 41.7385 79.3132C41.5854 79.0848 41.4272 78.8599 41.2338 78.5787C39.4492 79.0752 37.6849 79.5311 35.9434 80.0593C32.7582 81.0253 29.5394 81.9279 26.608 83.5403C25.12 84.3589 23.7225 85.3394 22.2822 86.244C20.0127 87.6703 18.5613 89.7275 17.8114 92.23C17.1088 94.5765 16.5111 96.9592 15.9835 99.3514C14.8836 104.338 13.8549 109.34 12.8084 114.338C12.5307 115.669 12.2941 117.008 12.0153 118.463C15.9642 119.691 19.9191 119.446 23.9804 119.339C23.9804 118.57 23.9809 117.94 23.9804 117.31C23.9789 116.627 23.9626 115.943 23.9804 115.26C23.9895 114.903 24.0018 114.441 24.4835 114.44C25.0172 114.438 24.8946 114.911 24.9124 115.259C25.037 117.708 25.1876 120.156 25.2899 122.606C25.4125 125.558 26.2499 128.39 26.7301 131.281C26.84 131.947 26.9723 132.609 27.0929 133.262C26.5592 133.607 26.2697 133.446 26.1563 132.94C25.997 132.234 25.8933 131.516 25.7223 130.813C25.4959 129.884 25.1953 128.972 24.9862 128.041C24.803 127.225 24.7018 126.389 24.5461 125.451C20.2676 125.58 16.0206 126.233 11.6622 125.229C11.7024 125.996 11.6917 126.631 11.7757 127.253C12.0703 129.442 12.4081 131.627 12.6965 133.817C12.7245 134.032 12.523 134.276 12.4284 134.507C12.2163 134.36 11.8581 134.246 11.8174 134.062C11.6165 133.162 11.4872 132.246 11.356 131.331C11.1006 129.543 10.803 127.757 10.6437 125.96C10.5817 125.267 10.6219 124.616 10.0399 124.12C10.0104 124.096 9.98848 124.054 9.97984 124.016C9.47262 121.897 9.4772 119.76 9.60693 117.444C10.1869 117.684 10.5674 117.842 11.0986 118.062C11.2578 117.327 11.4007 116.676 11.5381 116.025C12.9941 109.141 14.4328 102.254 15.9138 95.3754C16.3284 93.448 16.9297 91.5704 17.8307 89.7939C18.5735 88.3274 19.593 87.1149 20.8964 86.0981C24.3548 83.402 28.1907 81.4268 32.396 80.1614C35.2719 79.2956 38.1621 78.4791 41.0507 77.657C41.9323 77.4059 41.9222 77.4381 42.2803 78.2476C42.4909 78.7241 42.7377 79.1915 43.02 79.6307C44.3896 81.7653 46.1523 83.5287 48.2575 84.9561C48.6574 85.2267 49.0852 85.4743 49.5309 85.6594C51.4056 86.4397 53.1307 85.9039 54.1477 84.1793C55.0543 82.6418 55.6516 80.975 56.0184 79.2307C56.1074 78.8066 56.1918 78.3825 56.2926 77.8884Z" fill="black"/>
<path fill-rule="evenodd" clip-rule="evenodd" d="M58.624 54.2506C58.5034 55.0651 58.2613 55.7242 57.9418 56.255C57.9367 55.9592 57.9245 55.6618 57.9082 55.365C58.4175 54.3714 58.6774 53.256 58.4846 52.457C58.6601 53.0039 58.7191 53.6112 58.624 54.2506Z" fill="black"/>
<path fill-rule="evenodd" clip-rule="evenodd" d="M54.2312 58.0688C53.2188 57.9646 51.6438 57.3609 51.3212 56.498C51.2037 56.1851 51.2612 55.8566 51.4851 55.5205C51.3273 56.007 51.4571 56.7335 52.0879 57.1772C53.2199 57.9727 55.2543 58.0637 56.4331 57.2029C56.6294 57.06 56.8177 56.8844 56.9983 56.6902C56.9967 56.9046 56.9901 57.1189 56.9835 57.3337C56.1451 57.9661 55.1297 58.1618 54.2312 58.0688Z" fill="black"/>
<path fill-rule="evenodd" clip-rule="evenodd" d="M52.8101 50.5529C53.3687 50.1227 54.0596 49.9336 54.87 49.9793C53.7467 50.0236 52.5197 50.6027 51.7031 52.2639C51.8832 51.6552 52.2251 51.0032 52.8101 50.5529Z" fill="black"/>
<path fill-rule="evenodd" clip-rule="evenodd" d="M58.4699 52.393C58.4637 52.3669 58.455 52.3419 58.4473 52.3164C58.4565 52.3409 58.4617 52.368 58.4699 52.393Z" fill="black"/>
<path fill-rule="evenodd" clip-rule="evenodd" d="M56.3714 50.1551C54.862 49.6561 53.6364 49.7577 52.7314 50.4545C52.0583 50.9727 51.689 51.7299 51.5221 52.4091C51.4824 52.4136 51.4427 52.4186 51.403 52.4231C50.1607 51.9648 48.8802 52.1414 47.8261 52.723C47.353 52.9846 47.0904 53.3157 46.6204 53.5843C46.2734 53.7961 45.9259 54.0074 45.579 54.2197C44.532 55.0906 43.6554 56.0797 43.6488 57.4452C43.6468 57.8426 43.7836 58.8317 43.9892 59.7821C43.8126 59.7539 43.7078 59.7444 43.6152 59.7142C42.1373 59.2302 41.0115 60.0528 41.0685 61.5918C41.1107 62.7368 41.6662 63.6203 42.6924 64.0972C43.2917 64.3765 43.4301 64.7015 43.3777 65.3027C43.047 69.1097 42.4212 72.8704 41.6347 76.6085C41.5436 77.0387 41.622 77.5035 41.622 77.9845C42.4222 77.9573 42.3917 77.4663 42.4823 77.0512C43.3298 73.1607 43.9785 69.24 44.3351 65.2735C44.4465 64.0333 44.4333 63.9961 43.2276 63.3788C42.3001 62.9039 41.7624 61.8836 42.0926 61.1037C42.2055 60.8381 42.4813 60.5096 42.7275 60.4673C42.9467 60.4296 43.252 60.7219 43.4738 60.9186C43.6163 61.0454 43.6376 61.3065 43.7816 61.4293C44.0014 61.6169 44.2802 61.7367 44.534 61.8851C44.5605 61.8328 44.5905 61.7814 44.6215 61.7296C44.6403 61.7598 44.6597 61.7925 44.679 61.8161C44.7085 61.6949 44.7426 61.5777 44.7741 61.4584C44.8194 61.3704 44.8586 61.2813 44.8734 61.1888C44.8825 61.1299 44.8901 61.0705 44.8993 61.0112C45.9331 57.5825 48.0713 55.078 51.5231 53.5687C51.5541 53.5924 51.6615 53.7056 51.7932 53.7679C51.9652 53.8494 52.1656 53.8716 52.3376 53.9526C52.8316 54.186 53.174 54.6574 52.887 55.0725C52.5045 55.6239 52.0278 55.6506 51.8014 55.1394C51.7897 55.1138 51.7251 55.157 51.6854 55.1676L51.6396 55.1243C51.1772 55.6068 51.0301 56.0827 51.2011 56.5406C51.5577 57.4924 53.2121 58.0891 54.2179 58.1923C54.3619 58.2069 54.5089 58.2149 54.658 58.2149C55.4368 58.2149 56.2646 58.0011 56.9773 57.494C56.9621 57.8763 56.9407 58.2582 56.9056 58.638C56.5998 61.9238 56.1638 65.19 54.6646 68.2061C53.9737 69.5952 53.2503 69.9046 51.7118 69.4357C50.5809 69.0906 49.5019 68.6343 48.5882 67.8565C48.3262 67.6336 47.998 67.2593 47.6689 67.6899C47.3687 68.0823 47.7528 68.3671 48.0377 68.5749C48.5256 68.9306 49.0252 69.2868 49.5639 69.5564C50.9131 70.2326 52.3193 70.7232 53.8582 70.4424C53.9986 70.8484 54.1167 71.1468 54.2062 71.4532C54.7439 73.3061 55.2644 75.1641 55.8169 77.0125C55.9542 77.4713 55.9227 78.0761 56.8868 78.315C56.8135 77.7646 56.8059 77.3772 56.7051 77.0145C56.1465 75.0016 55.5528 72.9977 54.9998 70.9823C54.8793 70.543 54.6203 70.1144 54.9449 69.6068C56.2234 67.6014 56.8333 65.356 57.2688 63.0523C57.6799 60.8819 57.9587 58.6984 57.9439 56.4968C58.327 55.9253 58.615 55.1922 58.7518 54.267C59.0326 52.3698 58.0762 50.7171 56.3714 50.1551Z" fill="black"/>
<path fill-rule="evenodd" clip-rule="evenodd" d="M53.089 58.6201L53.8664 61.6614L52.7324 61.7736L53.089 58.6201Z" fill="black"/>
<path fill-rule="evenodd" clip-rule="evenodd" d="M53.0942 58.646L52.7422 61.7638L53.8629 61.6531L53.0942 58.646ZM52.7356 61.7754C52.7345 61.7754 52.733 61.7749 52.732 61.7739C52.731 61.7723 52.7305 61.7708 52.7305 61.7693L53.0866 58.6159C53.0871 58.6133 53.0891 58.6113 53.0917 58.6113C53.0942 58.6113 53.0968 58.6128 53.0973 58.6148L53.8746 61.6561C53.8751 61.6576 53.8746 61.6596 53.8741 61.6607C53.8731 61.6622 53.8716 61.6627 53.87 61.6632L52.7366 61.7754H52.7356Z" fill="black"/>
<path fill-rule="evenodd" clip-rule="evenodd" d="M52.1919 56.3887C52.1919 56.3887 52.2387 57.3199 52.0301 57.5151C51.1551 57.4195 49.1852 57.741 48.1973 58.1722C48.5859 57.2802 52.1919 56.3887 52.1919 56.3887Z" fill="black"/>
<path fill-rule="evenodd" clip-rule="evenodd" d="M52.1883 56.3936C52.1054 56.4147 51.241 56.6336 50.3436 56.949C49.116 57.3817 48.3793 57.7998 48.2094 58.16C49.173 57.7444 51.1286 57.4104 52.0295 57.5085C52.2234 57.3218 52.1918 56.4766 52.1883 56.3936ZM48.1987 58.1761C48.1972 58.1761 48.1962 58.1751 48.1952 58.1741C48.1931 58.1726 48.1931 58.1706 48.1936 58.1681C48.3554 57.7973 49.0778 57.3837 50.34 56.9395C51.2797 56.6089 52.1832 56.384 52.1918 56.382C52.1939 56.3815 52.1954 56.382 52.1964 56.383C52.1979 56.3835 52.199 56.3851 52.199 56.3866C52.2005 56.4248 52.2437 57.3228 52.0351 57.5175C52.0341 57.5186 52.0321 57.5196 52.0306 57.5191C51.1281 57.4199 49.1597 57.7575 48.2013 58.1756C48.2003 58.1756 48.1997 58.1761 48.1987 58.1761Z" fill="black"/>
<path fill-rule="evenodd" clip-rule="evenodd" d="M50.6865 60.5594C50.4046 60.5765 50.1238 60.5246 49.8618 60.4391C49.9584 60.4673 50.0617 60.4829 50.1691 60.4829C50.7048 60.4829 51.1408 60.1045 51.1408 59.6402C51.1408 59.453 50.9937 59.2291 50.8549 59.0742C51.5417 59.1366 52.1445 59.4903 52.3668 59.6356C52.1679 59.8691 51.5483 60.507 50.6865 60.5594ZM49.2233 59.4087C49.2075 59.4887 49.1979 59.5763 49.1979 59.6402C49.1979 59.9773 49.4273 60.2686 49.7575 60.4029C49.2523 60.2177 48.8341 59.9199 48.6556 59.781C48.7593 59.6935 48.9532 59.5466 49.2233 59.4087ZM52.5881 59.5275C52.552 59.5008 51.6902 58.8639 50.6783 58.8508C49.2874 58.8352 48.4485 59.6754 48.4129 59.7111C48.3925 59.7317 48.3819 59.7604 48.3829 59.7896C48.3839 59.8183 48.3971 59.8459 48.419 59.8651C48.4633 59.9038 49.4741 60.7762 50.5756 60.7762C50.6168 60.7762 50.6585 60.7747 50.6997 60.7722C51.855 60.7012 52.5805 59.7166 52.611 59.6749C52.6451 59.6276 52.6349 59.5627 52.5881 59.5275Z" fill="black"/>
<path fill-rule="evenodd" clip-rule="evenodd" d="M55.4273 60.342C55.18 60.3591 54.9323 60.2993 54.7054 60.2057C54.7445 60.2132 54.7842 60.2183 54.8239 60.2183C55.2558 60.2183 55.6063 59.8711 55.6063 59.4445C55.6063 59.2578 55.5402 59.0828 55.4212 58.9444C55.469 58.9414 55.5178 58.9399 55.5667 58.9399H55.5672C56.1115 58.9399 56.6101 59.3197 56.7846 59.4691C56.6294 59.682 56.1263 60.2922 55.4273 60.342ZM53.7978 59.6171C53.8542 59.5693 53.9392 59.5024 54.0486 59.4289C54.0699 59.608 54.1478 59.7881 54.2709 59.9345C54.304 59.9748 54.3396 60.0095 54.3767 60.0412C54.1147 59.8882 53.9061 59.7142 53.7978 59.6171ZM57.0028 59.3766C56.9754 59.3499 56.3308 58.7266 55.5672 58.7266H55.5667C54.3849 58.7266 53.5953 59.5074 53.5622 59.5406C53.521 59.5818 53.521 59.6483 53.5617 59.69C53.5714 59.6996 53.7952 59.9255 54.1366 60.1453C54.5614 60.4195 54.9653 60.5584 55.3382 60.5584C55.3733 60.5584 55.4079 60.5574 55.4425 60.5549C56.3979 60.4869 56.9937 59.5481 57.0186 59.5084C57.0451 59.4661 57.0385 59.4113 57.0028 59.3766Z" fill="black"/>
<path fill-rule="evenodd" clip-rule="evenodd" d="M53.6921 56.3887C53.6921 56.3887 53.6448 57.3199 53.8539 57.5151C54.7284 57.4195 56.1371 57.6489 57.1251 58.0796C56.7364 57.1881 53.6921 56.3887 53.6921 56.3887Z" fill="black"/>
<path fill-rule="evenodd" clip-rule="evenodd" d="M54.29 57.4869C55.162 57.4869 56.2945 57.7133 57.1141 58.0679C56.9462 57.7077 56.3062 57.3057 55.2602 56.9033C54.4996 56.6109 53.7726 56.4142 53.6963 56.3941C53.6933 56.4776 53.6617 57.3218 53.8556 57.5085C53.9899 57.4939 54.1359 57.4869 54.29 57.4869ZM57.1242 58.084C57.1237 58.084 57.1227 58.084 57.1222 58.0835C56.1581 57.6634 54.7535 57.4204 53.854 57.5191C53.8525 57.5196 53.851 57.5186 53.85 57.5181C53.762 57.4355 53.708 57.2207 53.6887 56.8776C53.6745 56.623 53.6862 56.3891 53.6862 56.3866C53.6862 56.3856 53.6872 56.384 53.6882 56.383C53.6897 56.382 53.6912 56.3815 53.6933 56.382C53.7004 56.384 54.4635 56.5853 55.2643 56.8932C56.004 57.178 56.9279 57.6141 57.1293 58.0765C57.1303 58.0785 57.1299 58.081 57.1283 58.0825C57.1273 58.0835 57.1258 58.084 57.1242 58.084Z" fill="black"/>
<path fill-rule="evenodd" clip-rule="evenodd" d="M51.2344 62.9023C51.7721 63.4054 52.2091 63.6852 52.9376 63.733C53.6662 63.7813 54.1764 63.5176 54.1764 63.5176C54.1764 63.5176 53.5934 64.4962 52.8888 64.6778C51.4318 65.0546 51.5004 63.9242 51.2344 62.9023Z" fill="black"/>
<path fill-rule="evenodd" clip-rule="evenodd" d="M51.2397 62.9202C51.2814 63.0812 51.3145 63.2452 51.3465 63.4037C51.4523 63.9229 51.5521 64.414 51.9016 64.6293C52.1305 64.7712 52.4515 64.7858 52.8829 64.6741C53.529 64.507 54.0795 63.6573 54.1578 63.5315C54.0637 63.5758 53.5819 63.7821 52.9328 63.7398C52.2002 63.691 51.7698 63.4143 51.2397 62.9202ZM52.3747 64.7586C52.1839 64.7586 52.0252 64.7183 51.896 64.6383C51.5424 64.42 51.4422 63.9275 51.3358 63.4057C51.3028 63.2417 51.2682 63.0717 51.2249 62.9051C51.2239 62.9026 51.2254 62.9006 51.2275 62.8991C51.229 62.8981 51.2321 62.8981 51.2336 62.9001C51.7688 63.4002 52.1976 63.6804 52.9338 63.7287C53.6526 63.7765 54.1644 63.5169 54.1695 63.5144C54.1721 63.5129 54.1746 63.5134 54.1756 63.5154C54.1777 63.5169 54.1777 63.5194 54.1766 63.5214C54.171 63.5315 53.5845 64.5035 52.886 64.6846C52.6947 64.7334 52.5248 64.7586 52.3747 64.7586Z" fill="black"/>
<path fill-rule="evenodd" clip-rule="evenodd" d="M57.7021 61.7739C57.4297 62.0108 57.1087 62.0957 56.7191 62.0331C55.1728 61.7847 54.2698 60.279 53.9213 58.8958C56.1536 58.7949 58.0757 58.7083 58.6041 58.685C58.5984 59.2085 58.5207 61.06 57.7021 61.7739ZM52.6041 59.5595C52.6647 59.3669 52.7195 59.1664 52.7704 58.9573C52.9971 58.9613 53.397 58.9522 53.6443 58.922C53.6894 59.1031 53.7426 59.2854 53.8054 59.4672L52.6041 59.5595ZM50.084 62.1385C48.5635 62.2826 47.2486 61.035 46.9789 59.2171C48.4075 59.1487 50.4787 59.053 52.4865 58.9613C52.2272 59.9936 51.5383 61.9994 50.084 62.1385ZM58.8788 58.538L58.8748 58.3984L58.7354 58.4047C58.692 58.407 56.4838 58.5055 53.8585 58.6246L53.8534 58.6018L53.73 58.6303C53.3804 58.6463 53.024 58.6622 52.6647 58.6787L52.555 58.6713L52.5516 58.6839C50.4484 58.7796 48.2653 58.8804 46.8161 58.9505L46.6699 58.9579L46.6871 59.1031C46.7984 60.0688 47.2006 60.9387 47.8186 61.5528C48.3892 62.1197 49.101 62.4233 49.847 62.4233C49.9343 62.4233 50.0223 62.4193 50.1097 62.4108C51.1213 62.3145 51.9707 61.3933 52.5116 59.8415L53.9042 59.7344C54.3857 60.9495 55.2899 62.0809 56.6751 62.3037C57.1435 62.3789 57.5496 62.2701 57.8826 61.9795C58.3287 61.5916 58.6309 60.8908 58.7829 59.8984C58.8937 59.1715 58.8794 58.5636 58.8788 58.538Z" fill="#F7B500"/>
<path fill-rule="evenodd" clip-rule="evenodd" d="M152.586 121.136C152.575 121.218 152.565 121.3 152.554 121.382C151.881 121.382 151.204 121.421 150.535 121.37C150 121.33 150.047 120.997 150.265 120.563C151.07 120.763 151.828 120.949 152.586 121.136ZM136.066 119.107C136.848 118.107 137.457 117.328 138.065 116.55C138.156 116.601 138.245 116.652 138.335 116.704C138.018 117.498 137.701 118.291 137.376 119.107H136.066ZM133.369 118.806C134.543 117.605 135.843 116.734 137.18 115.884C136.724 116.867 136.013 117.658 135.348 118.487C134.835 119.127 134.252 119.191 133.369 118.806ZM130.755 119.061C130.969 118.603 130.989 118.464 131.07 118.398C132.374 117.321 133.677 116.242 135.002 115.193C135.344 114.923 135.773 114.905 136.539 115.143C136.101 115.438 135.851 115.573 135.641 115.752C134.481 116.744 133.353 117.775 132.161 118.726C131.879 118.95 131.39 118.921 130.755 119.061ZM146.746 119.544C143.983 119.387 141.236 119.517 138.425 119.098C138.984 117.642 139.496 116.313 140.041 114.893C142.692 115.998 144.25 118.398 146.746 119.544ZM148.901 120.876C147.424 121.289 123.017 120.836 121.947 120.545C122.148 119.884 122.148 119.874 122.88 119.869C131.011 119.82 139.132 120.091 147.242 120.655C147.798 120.694 148.348 120.801 148.901 120.876ZM135.548 111.729C135.689 110.774 135.774 110.078 135.901 109.388C135.975 108.988 136.27 108.765 136.681 108.777C136.999 108.786 137.322 108.838 137.63 108.918C142.178 110.089 146.724 111.266 151.268 112.448C151.606 112.536 151.931 112.676 152.3 112.805C152.238 113.425 152.185 113.963 152.116 114.652C151.442 114.354 150.932 114.132 150.425 113.902C148.805 113.168 147.186 112.435 145.569 111.694C143.546 110.766 141.474 110.558 139.294 111.113C138.169 111.399 136.995 111.498 135.548 111.729ZM189.239 110.141C195.354 111.568 201.031 111.169 206.052 106.875C206.474 108.015 206.83 108.974 207.23 110.052C206.615 110.243 206.167 110.409 205.706 110.523C200.901 111.71 196.015 112.145 191.074 112.011C189.602 111.971 189.563 111.898 189.239 110.141ZM106.526 86.9131L106.718 86.807C106.877 86.9987 107.078 87.1697 107.187 87.3866C107.732 88.4632 108.286 89.5368 108.777 90.6386C110.642 94.8255 112.475 99.0274 114.339 103.215C115.614 106.079 116.955 108.916 118.2 111.793C119.11 113.895 119.913 116.043 120.759 118.172C120.831 118.351 120.866 118.544 120.923 118.747C120.064 119.213 119.906 118.558 119.697 118.067C115.407 108.005 111.123 97.9422 106.843 87.8776C106.711 87.5667 106.63 87.2346 106.526 86.9131ZM126.788 115.863C126.764 115.777 126.739 115.691 126.715 115.604C126.986 115.464 127.245 115.294 127.528 115.188C131.256 113.793 135.042 112.616 139.047 112.294C139.324 112.272 139.599 112.191 139.866 112.108C141.308 111.66 142.754 111.588 144.16 112.188C146.21 113.062 148.252 113.957 150.269 114.902C151.17 115.324 152.059 115.564 153.069 115.57C156.688 115.591 160.307 115.682 163.926 115.747C164.768 115.761 165.613 115.817 166.454 115.778C174.918 115.385 183.365 115.579 191.794 116.447C192.521 116.521 193.245 116.634 193.974 116.692C194.35 116.722 194.911 116.918 194.997 116.37C195.086 115.806 194.522 115.848 194.13 115.798C194.049 115.787 193.968 115.781 193.888 115.77C192.768 115.613 191.65 115.456 190.532 115.299C190.374 114.493 190.232 113.772 190.067 112.936C195.373 113.144 200.477 112.597 205.549 111.564C205.702 112.008 205.83 112.302 205.904 112.61C206.817 116.441 207.767 120.268 208.025 124.214C208.139 125.977 208.306 127.74 207.911 129.502C207.559 131.065 206.679 132.178 205.26 132.914C204.013 133.561 202.684 133.873 201.283 133.933C197.722 134.085 194.363 133.189 191.042 132.05C184.865 129.932 178.988 127.039 172.725 125.151C170.99 124.627 169.222 124.208 167.469 123.742C167.43 123.731 167.389 123.727 167.35 123.719C165.323 123.301 163.282 122.943 161.275 122.452C157.648 121.566 154.047 120.581 150.425 119.673C147.975 119.06 145.788 117.994 143.887 116.328C143.1 115.639 142.229 115.034 141.349 114.462C140.629 113.993 139.804 113.74 138.921 113.788C136.854 113.9 134.788 113.991 132.779 114.59C131.576 114.949 130.345 115.226 129.117 115.494C128.35 115.661 127.565 115.743 126.788 115.863ZM189.606 115.184C189.246 115.199 189.087 115.221 188.931 115.211C182.071 114.776 175.214 114.538 168.332 114.762C163.42 114.922 158.495 114.698 153.576 114.637C153.429 114.635 153.283 114.539 153.086 114.469C153.219 113.083 153.319 111.721 153.489 110.367C153.724 108.488 153.688 107.12 153.237 106.259C152.434 107.06 152.826 108.023 152.712 108.861C152.584 109.797 152.496 110.739 152.378 111.804C147.385 110.487 142.57 109.217 137.674 107.926C137.77 107.573 137.832 107.265 137.938 106.974C139.535 102.547 141.1 98.1078 142.754 93.7016C143.927 90.5753 145.249 87.5038 146.455 84.3896C147.465 81.7835 149.227 80.0804 152.058 79.5874C154.496 79.1628 156.934 78.7397 159.38 78.3654C160.573 78.1832 161.783 78.1133 163.03 77.988C163.18 78.5294 163.256 78.9656 163.421 79.366C163.908 80.5514 164.27 81.8272 164.972 82.8787C166.663 85.4119 169.589 86.5776 172.713 84.7719C174.021 84.0157 175.247 83.1584 176.234 82.0139C177.257 80.8276 178.238 79.6055 179.284 78.3412C184.316 79.0702 189.091 80.6988 193.574 83.1313C196.296 84.6089 198.255 86.8437 199.475 89.6717C200.033 90.9626 200.556 92.2758 200.985 93.6135C202.125 97.176 203.201 100.759 204.311 104.331C205.068 106.769 205.084 106.787 202.786 108.041C198.926 110.145 194.822 110.385 190.604 109.456C188.786 109.056 188.798 109.004 188.167 107.272C187.948 106.668 187.758 106.049 187.488 105.467C187.399 105.274 187.104 105.173 186.902 105.03C186.823 105.271 186.684 105.512 186.682 105.754C186.681 105.982 186.829 106.209 186.904 106.438C187.699 108.885 188.497 111.332 189.28 113.783C189.412 114.194 189.478 114.626 189.606 115.184ZM136.736 107.717C135.256 107.931 135.268 107.933 134.993 109.219C134.792 110.157 134.553 111.085 134.33 112.019C133.436 112.276 132.544 112.533 131.65 112.791C129.503 113.411 127.372 114.079 125.392 115.133C124.973 115.357 124.374 115.512 124.453 116.103C124.544 116.783 125.186 116.747 125.709 116.777C127.397 116.873 129.019 116.472 130.644 116.11C131.229 115.98 131.815 115.858 132.662 115.676C132.346 116.044 132.219 116.218 132.064 116.365C131.25 117.145 130.442 117.933 129.601 118.684C129.415 118.85 129.103 118.957 128.849 118.959C126.856 118.974 124.862 118.944 122.869 118.959C122.338 118.963 122.05 118.747 121.858 118.28C121.29 116.903 120.65 115.554 120.128 114.161C118.814 110.652 117.309 107.231 115.706 103.841C113.59 99.364 111.665 94.7983 109.635 90.2809C109.075 89.0327 108.454 87.8097 107.823 86.5947C107.436 85.8506 106.332 85.5517 105.635 85.9708C105.255 86.1997 105.268 86.5413 105.433 86.9212C105.915 88.029 106.374 89.1469 106.848 90.2583C111.046 100.111 115.246 109.963 119.444 119.816C119.568 120.108 119.669 120.408 119.844 120.871C119.323 120.889 118.902 120.921 118.482 120.916C113.154 120.843 107.827 120.764 102.5 120.689C102.174 120.684 101.837 120.643 101.529 120.715C101.337 120.761 101.19 120.989 101.023 121.135C101.177 121.283 101.312 121.52 101.491 121.56C101.843 121.637 102.218 121.612 102.584 121.617C107.994 121.701 113.403 121.784 118.812 121.865C129.55 122.025 140.288 122.182 151.026 122.341C152.815 122.368 154.61 122.498 156.391 122.394C157.326 122.339 158.11 122.544 158.919 123.065C158.503 123.065 158.087 123.07 157.67 123.064C147.623 122.925 137.576 122.778 127.529 122.644C119.272 122.534 111.014 122.437 102.756 122.345C102.305 122.34 101.853 122.433 101.402 122.481C101.381 122.575 101.359 122.668 101.338 122.762C101.532 122.913 101.706 123.14 101.925 123.198C102.231 123.279 102.57 123.237 102.896 123.241C116.848 123.425 130.801 123.608 144.753 123.792C150.042 123.862 155.33 123.942 160.618 123.995C161.172 124.001 161.727 123.838 162.284 123.789C162.559 123.765 162.849 123.792 163.12 123.851C166.296 124.539 169.492 125.147 172.632 125.969C174.466 126.45 176.21 127.269 177.987 127.953C182.607 129.728 187.198 131.58 191.851 133.269C194.955 134.395 198.185 135.039 201.534 134.839C203.057 134.748 204.503 134.393 205.845 133.661C207.344 132.842 208.24 131.621 208.784 129.991C209.469 127.935 209.009 125.932 208.874 123.906C208.598 119.796 207.566 115.822 206.605 111.837C206.568 111.685 206.571 111.524 206.559 111.394C206.639 111.306 206.681 111.225 206.747 111.195C208.277 110.51 208.319 110.452 207.779 108.83C207.539 108.108 207.23 107.405 206.916 106.709C206.803 106.461 206.62 106.111 206.41 106.063C205.604 105.88 205.518 105.246 205.33 104.64C204.105 100.682 202.938 96.7046 201.612 92.7799C200.986 90.9224 200.157 89.1117 199.23 87.378C197.917 84.9218 195.803 83.1906 193.343 81.9319C189.022 79.7202 184.426 78.2642 179.662 77.3028C178.991 77.1675 178.69 77.5413 178.363 77.9598C177.641 78.882 176.926 79.8088 176.201 80.7284C175.161 82.0466 173.859 83.0614 172.427 83.9342C169.943 85.4471 167.69 84.7035 166.039 82.7469C164.886 81.381 164.383 79.7232 164.064 78.0051C163.892 77.0804 163.781 76.9491 162.897 77.0382C159.259 77.4044 155.636 77.8305 152.048 78.5998C148.78 79.3011 146.747 81.1878 145.596 84.1959C143.727 89.082 141.806 93.9486 139.951 98.8403C138.838 101.775 137.811 104.74 136.736 107.717Z" fill="black"/>
<path fill-rule="evenodd" clip-rule="evenodd" d="M183.809 63.9173C184.4 64.7922 183.691 65.0744 184.125 66.3236C184.213 66.5757 184.354 66.7749 184.528 66.944C184.519 66.7669 184.53 66.5631 184.542 66.3417C184.581 65.6324 184.629 64.7494 184.148 63.8685C183.858 63.3362 183.275 63.0313 182.422 62.9407C182.961 63.0942 183.45 63.385 183.809 63.9173ZM188.8 69.0515C189.353 69.6658 189.643 70.3897 189.66 71.0981C189.744 70.4068 189.708 69.4399 189.096 68.6575C188.367 67.7283 187.006 67.7006 185.998 67.687C186.964 67.9909 188.07 68.241 188.8 69.0515ZM189.006 73.7349C189.755 73.3077 189.559 72.375 189.486 72.1099C189.284 72.6426 188.907 73.1276 188.343 73.4974C188.005 73.7178 187.647 73.908 187.298 74.1137C187.031 74.2717 186.894 74.4594 186.852 74.72C187.131 74.5162 187.543 74.3547 187.973 74.1892C188.332 74.0508 188.703 73.908 189.006 73.7349ZM162.92 54.4981C163.296 52.9153 164.406 51.8452 166.048 52.0102C166.936 52.0998 168.077 51.9061 168.948 51.8331C171.51 51.6183 173.392 52.8952 175.13 54.7195C175.844 55.4686 176.287 56.3299 176.467 57.3653C176.624 58.2744 176.728 59.0794 176.699 59.904C176.929 59.8647 177.045 59.8582 177.151 59.8235C178.629 59.34 179.755 60.1626 179.698 61.7016C179.678 62.2429 179.538 62.7229 179.294 63.1324C179.334 63.1249 179.392 63.1123 179.472 63.0942C179.82 63.0157 180.146 62.9543 180.458 62.9055C180.796 62.8326 181.142 62.7858 181.508 62.7994C182.922 62.7309 183.852 63.062 184.259 63.8086C184.758 64.7207 184.707 65.6615 184.669 66.3488C184.653 66.636 184.641 66.8821 184.667 67.0722C184.926 67.2775 185.249 67.4254 185.601 67.5537C185.717 67.5567 185.839 67.5587 185.966 67.5608C187.003 67.5743 188.421 67.5935 189.196 68.5806C190.253 69.9299 189.665 71.7974 189.59 72.0158C189.645 72.1873 189.966 73.3324 189.07 73.8441C188.759 74.0217 188.382 74.1666 188.019 74.3064C187.545 74.4885 187.094 74.6651 186.841 74.89C186.84 74.96 186.837 75.0269 186.847 75.1074C187.017 76.4708 186.255 77.4181 184.879 77.645C184.442 77.717 183.989 77.7175 183.545 77.7109C182.41 77.6938 181.276 77.6269 180.141 77.633C179.766 77.635 179.444 77.5635 179.17 77.4262C179.161 77.644 179.144 77.8669 179.144 78.0943C178.344 78.0671 178.374 77.5761 178.284 77.1605C177.437 73.27 176.788 69.3493 176.431 65.3828C176.319 64.1432 176.333 64.1059 177.538 63.4881C178.466 63.0132 179.004 61.9929 178.673 61.2131C178.561 60.9474 178.285 60.6194 178.039 60.5766C177.82 60.5394 177.514 60.8312 177.292 61.0279C177.166 61.1401 176.632 61.694 176.335 61.9224C176.223 62.2193 176.099 62.4618 175.932 62.9885C175.586 62.4618 172.796 57.3718 169.951 55.6225C168.994 55.0339 168.311 54.4116 167.372 53.7454C166.717 54.3331 166.709 54.7154 165.559 56.1629C165.067 56.7399 164.412 57.2214 163.795 57.8035C163.81 58.119 163.831 58.4339 163.86 58.7473C164.167 62.0331 164.602 65.2998 166.101 68.3159C166.792 69.705 167.516 70.0139 169.054 69.5455C170.186 69.1999 171.264 68.7436 172.178 67.9658C172.44 67.7434 172.768 67.3686 173.097 67.7992C173.397 68.1917 173.013 68.4769 172.729 68.6842C172.24 69.0399 171.741 69.3961 171.203 69.6658C169.853 70.3419 168.447 70.833 166.908 70.5517C166.767 70.9582 166.649 71.2561 166.56 71.563C166.022 73.4154 165.502 75.2739 164.949 77.1223C164.812 77.5811 164.844 78.1854 163.879 78.4243C163.953 77.8739 163.96 77.4866 164.061 77.1243C164.62 75.1109 165.213 73.107 165.766 71.0921C165.887 70.6524 166.145 70.2242 165.822 69.7161C164.543 67.7112 163.933 65.4658 163.497 63.1621C163.224 61.7167 163.01 60.2657 162.9 58.8077C162.899 58.8097 162.898 58.8107 162.897 58.8122C162.682 57.3427 162.637 55.6965 162.92 54.4981Z" fill="black"/>
<path fill-rule="evenodd" clip-rule="evenodd" d="M167.632 58.6348L166.854 61.6761L167.988 61.7882L167.632 58.6348Z" fill="black"/>
<path fill-rule="evenodd" clip-rule="evenodd" d="M167.63 58.6597L167.982 61.7775L166.862 61.6668L167.63 58.6597ZM167.989 61.789C167.99 61.789 167.992 61.7885 167.993 61.7875C167.994 61.786 167.994 61.7845 167.994 61.783L167.638 58.6295C167.638 58.627 167.635 58.625 167.633 58.625C167.63 58.625 167.628 58.6265 167.627 58.6285L166.85 61.6698C166.849 61.6713 166.85 61.6733 166.851 61.6743C166.852 61.6758 166.853 61.6763 166.855 61.6769L167.988 61.789H167.989Z" fill="black"/>
<path fill-rule="evenodd" clip-rule="evenodd" d="M168.359 56.9866C168.359 56.9866 168.571 57.8944 168.826 58.0242C169.64 57.6902 171.622 57.4538 172.691 57.5947C172.071 56.8451 168.359 56.9866 168.359 56.9866Z" fill="black"/>
<path fill-rule="evenodd" clip-rule="evenodd" d="M168.364 56.9921C168.449 56.9894 169.34 56.9605 170.29 57.0152C171.589 57.0912 172.413 57.289 172.676 57.5881C171.635 57.4555 169.663 57.6758 168.825 58.0195C168.587 57.8938 168.383 57.0728 168.364 56.9921ZM172.691 57.6007C172.692 57.6002 172.693 57.599 172.694 57.5977C172.695 57.5957 172.695 57.5938 172.693 57.5915C172.435 57.28 171.627 57.0826 170.291 57.005C169.296 56.9475 168.366 56.9815 168.357 56.982C168.355 56.982 168.354 56.9829 168.353 56.9842C168.352 56.9851 168.351 56.9868 168.351 56.9883C168.361 57.0254 168.568 57.9004 168.822 58.0297C168.823 58.0304 168.825 58.0308 168.827 58.0299C169.667 57.6849 171.651 57.4644 172.688 57.6009C172.689 57.6006 172.69 57.6009 172.691 57.6007Z" fill="black"/>
<path fill-rule="evenodd" clip-rule="evenodd" d="M170.036 60.5711C170.318 60.5882 170.599 60.5364 170.861 60.4508C170.764 60.479 170.661 60.4946 170.554 60.4946C170.018 60.4946 169.582 60.1163 169.582 59.6519C169.582 59.4647 169.729 59.2409 169.868 59.0859C169.181 59.1483 168.578 59.502 168.356 59.6474C168.555 59.8808 169.174 60.5187 170.036 60.5711ZM171.499 59.4205C171.515 59.5005 171.525 59.588 171.525 59.6519C171.525 59.989 171.295 60.2803 170.965 60.4146C171.47 60.2295 171.889 59.9316 172.067 59.7928C171.963 59.7052 171.769 59.5583 171.499 59.4205ZM168.135 59.5392C168.171 59.5125 169.032 58.8756 170.044 58.8625C171.435 58.8469 172.274 59.6871 172.31 59.7228C172.33 59.7435 172.341 59.7721 172.34 59.8013C172.339 59.83 172.326 59.8577 172.304 59.8768C172.259 59.9155 171.249 60.7879 170.147 60.7879C170.106 60.7879 170.064 60.7864 170.023 60.7839C168.868 60.7129 168.142 59.7284 168.112 59.6866C168.078 59.6393 168.088 59.5744 168.135 59.5392Z" fill="black"/>
<path fill-rule="evenodd" clip-rule="evenodd" d="M165.291 60.3538C165.539 60.3709 165.786 60.311 166.013 60.2174C165.974 60.225 165.935 60.23 165.895 60.23C165.463 60.23 165.112 59.8828 165.112 59.4562C165.112 59.2696 165.179 59.0945 165.298 58.9561C165.25 58.9531 165.201 58.9516 165.152 58.9516H165.152C164.607 58.9516 164.109 59.3314 163.934 59.4809C164.089 59.6937 164.592 60.3039 165.291 60.3538ZM166.921 59.6288C166.865 59.581 166.78 59.5141 166.67 59.4406C166.649 59.6197 166.571 59.7998 166.448 59.9462C166.415 59.9865 166.379 60.0212 166.342 60.0529C166.604 59.9 166.813 59.7259 166.921 59.6288ZM163.716 59.3883C163.743 59.3616 164.388 58.7383 165.152 58.7383H165.152C166.334 58.7383 167.123 59.5191 167.157 59.5523C167.198 59.5936 167.198 59.66 167.157 59.7017C167.147 59.7113 166.924 59.9372 166.582 60.157C166.157 60.4312 165.753 60.5701 165.38 60.5701C165.345 60.5701 165.311 60.5691 165.276 60.5666C164.321 60.4987 163.725 59.5599 163.7 59.5201C163.674 59.4778 163.68 59.423 163.716 59.3883Z" fill="black"/>
<path fill-rule="evenodd" clip-rule="evenodd" d="M167.212 57.0326C167.212 57.0326 166.942 57.9249 166.679 58.0377C165.888 57.6515 164.485 57.3902 163.41 57.4608C164.077 56.7536 167.212 57.0326 167.212 57.0326Z" fill="black"/>
<path fill-rule="evenodd" clip-rule="evenodd" d="M166.28 57.861C165.459 57.5656 164.317 57.395 163.426 57.4512C163.706 57.1691 164.444 57.0076 165.565 56.9832C166.379 56.9658 167.13 57.027 167.209 57.0339C167.183 57.1135 166.927 57.9185 166.681 58.0285C166.56 57.9693 166.425 57.9132 166.28 57.861ZM163.411 57.4629C163.411 57.463 163.412 57.4634 163.413 57.4631C164.462 57.3944 165.866 57.6415 166.679 58.0389C166.68 58.0399 166.682 58.0395 166.683 58.0394C166.794 57.9916 166.918 57.8077 167.052 57.4914C167.152 57.2567 167.22 57.0326 167.221 57.0303C167.221 57.0293 167.221 57.0275 167.22 57.0263C167.219 57.0248 167.218 57.0238 167.216 57.0236C167.208 57.0231 166.422 56.9539 165.564 56.9724C164.772 56.9898 163.755 57.0872 163.409 57.454C163.407 57.4556 163.407 57.4581 163.408 57.4601C163.408 57.4613 163.409 57.4623 163.411 57.4629Z" fill="black"/>
<path fill-rule="evenodd" clip-rule="evenodd" d="M169.486 62.915C168.949 63.4181 168.512 63.6979 167.783 63.7457C167.055 63.794 166.544 63.5303 166.544 63.5303C166.544 63.5303 167.127 64.5089 167.832 64.6905C169.289 65.0673 169.22 63.9369 169.486 62.915Z" fill="black"/>
<path fill-rule="evenodd" clip-rule="evenodd" d="M169.477 62.9349C169.435 63.0959 169.402 63.2599 169.37 63.4184C169.264 63.9376 169.165 64.4286 168.815 64.6439C168.586 64.7858 168.265 64.8004 167.834 64.6887C167.188 64.5217 166.637 63.6719 166.559 63.5462C166.653 63.5904 167.135 63.7967 167.784 63.7544C168.517 63.7056 168.947 63.4289 169.477 62.9349ZM168.342 64.7732C168.533 64.7732 168.692 64.733 168.821 64.653C169.174 64.4346 169.275 63.9421 169.381 63.4204C169.414 63.2564 169.449 63.0863 169.492 62.9198C169.493 62.9173 169.491 62.9153 169.489 62.9137C169.488 62.9127 169.485 62.9127 169.483 62.9148C168.948 63.4148 168.519 63.6951 167.783 63.7434C167.064 63.7912 166.552 63.5316 166.547 63.529C166.545 63.5275 166.542 63.528 166.541 63.5301C166.539 63.5316 166.539 63.5341 166.54 63.5361C166.546 63.5462 167.132 64.5182 167.831 64.6993C168.022 64.7481 168.192 64.7732 168.342 64.7732Z" fill="black"/>
<path fill-rule="evenodd" clip-rule="evenodd" d="M87.6404 50.2314C87.9875 50.1876 88.3312 50.1185 88.6771 50.1054C89.4278 50.0767 90.1808 50.1002 90.9306 50.0605C93.9303 49.9011 96.9279 49.7076 99.9279 49.5616C102.726 49.4258 105.489 49.0283 108.211 48.4128C112.186 47.5149 116.144 46.5486 120.026 45.2892C123.875 44.0403 127.385 42.1755 130.69 39.8909C131.174 39.5569 131.365 39.1477 131.36 38.6097C131.356 38.1698 131.347 37.7275 131.301 37.2899C131.202 36.3219 131.086 35.3553 130.962 34.3898C130.638 31.8559 130.063 29.3728 129.351 26.921C128.018 22.3294 126.098 17.9902 123.642 13.8734C122.966 12.7405 122.023 12.1267 120.748 11.901C118.128 11.437 115.475 11.3699 112.828 11.2298C111.987 11.1851 111.136 11.1964 110.295 11.2626C107.816 11.4567 105.342 11.7202 102.862 11.9021C100.049 12.1085 97.273 12.5684 94.4871 12.9663C92.6991 13.2213 90.9056 13.443 89.1229 13.7303C86.4621 14.1592 83.7955 14.5707 81.1556 15.1061C78.814 15.5811 76.4983 16.1876 74.1846 16.7866C72.5532 17.2091 70.935 17.6882 69.3297 18.1989C68.6892 18.4026 68.0833 18.7328 67.4898 19.0564C66.8155 19.4241 66.5761 20.0271 66.7286 20.7694C66.8548 21.3822 66.967 22.0015 67.1456 22.6001C67.7021 24.4666 68.3027 26.3203 68.8578 28.1871C69.9218 31.7657 70.8498 35.3843 72.1238 38.9008C72.8184 40.8186 73.3277 42.8023 74.2539 44.6383C74.8522 45.8229 75.4469 47.0025 76.3385 48.0115C76.7359 48.461 77.182 48.8269 77.7744 48.9598C78.9849 49.2314 80.1973 49.4966 81.4548 49.4345C81.8046 49.4171 82.1573 49.4752 82.5089 49.4798C83.0345 49.4873 83.3823 49.7418 83.6325 50.1844C84.3558 51.4638 85.0163 52.7656 85.2551 54.2348C85.283 54.4074 85.3476 54.574 85.4363 54.8886C86.4472 53.3988 87.2143 51.9606 87.6404 50.2314ZM88.5978 51.0645C88.2116 51.875 87.8466 52.6005 87.5174 53.3413C87.0102 54.4814 86.2395 55.4428 85.4692 56.41C85.1602 56.7977 84.8149 56.8906 84.2815 56.6924C84.2815 56.2731 84.2895 55.8392 84.2804 55.4057C84.2472 53.8131 83.8066 52.35 82.8892 51.0262C82.636 50.6611 82.3373 50.5317 81.8992 50.4975C80.6152 50.3971 79.3294 50.2819 78.0554 50.0988C76.5717 49.8858 75.4357 49.0785 74.6883 47.8127C74.0874 46.7941 73.513 45.7471 73.0604 44.6586C71.3923 40.6448 70.0272 36.5302 68.9415 32.322C68.3215 29.9201 67.5535 27.5559 66.9121 25.1593C66.5054 23.6381 66.1847 22.0929 65.8722 20.5494C65.7195 19.7943 66.128 19.1995 66.6731 18.7244C67.4974 18.0068 68.513 17.6171 69.5209 17.2384C71.2125 16.6026 72.9755 16.2105 74.7344 15.802C76.8111 15.3197 78.8648 14.7349 80.9514 14.3014C83.4055 13.7915 85.8809 13.3786 88.3529 12.9558C90.594 12.5728 92.8442 12.2431 95.0874 11.8723C97.9585 11.3969 100.837 10.9918 103.745 10.8096C106.087 10.6633 108.425 10.4492 110.768 10.3462C113.585 10.222 116.401 10.298 119.191 10.7591C120.252 10.9344 121.305 11.1645 122.356 11.3943C122.592 11.4463 122.817 11.5824 123.027 11.7124C124.669 12.7274 125.759 14.2141 126.696 15.8475C127.664 17.5341 128.318 19.326 128.804 21.2006C129.258 22.9501 129.837 24.6677 130.352 26.4022C131.007 28.6087 131.389 30.8734 131.743 33.14C132.05 35.1092 132.267 37.0923 132.553 39.0653C132.609 39.4611 132.425 39.6776 132.165 39.8889C129.95 41.6929 127.634 43.3389 124.983 44.4871C120.501 46.4288 115.904 48.0205 111.084 48.9012C108.179 49.4319 105.262 49.9249 102.33 50.272C98.977 50.6687 95.6043 50.9145 92.2354 51.1614C91.1911 51.238 90.1306 51.1019 89.0777 51.0654C88.9153 51.0596 88.7526 51.0645 88.5978 51.0645Z" fill="black"/>
<path fill-rule="evenodd" clip-rule="evenodd" d="M89.999 18.5287C89.6654 20.2359 90.2198 22.445 91.1443 23.2069C91.7419 21.4424 90.9736 20.0432 89.999 18.5287ZM91.592 23.7842C92.974 24.57 94.3634 24.8395 95.8512 24.3544C96.5057 24.141 96.9757 23.6863 97.2975 23.0943C97.4634 22.7897 97.6018 22.47 97.7772 22.1709C98.0457 21.7133 98.3295 21.6267 98.6721 21.9967C99.3343 22.7119 100.119 22.8222 100.998 22.5708C101.721 22.3641 102.433 22.1188 103.141 21.8662C103.382 21.7801 103.594 21.6232 103.884 21.8392C103.729 22.3359 103.265 22.5173 102.884 22.6846C102.375 22.908 101.797 22.9846 101.249 23.124C100.197 23.3912 99.1838 23.4468 98.3254 22.5389C98.219 22.6895 98.123 22.7876 98.0711 22.904C97.0951 25.1004 95.0363 25.5289 93.0522 25.0843C92.4377 24.9467 91.8566 24.6685 91.1834 24.4272C91.136 24.4675 91.0112 24.5637 90.8977 24.6711C89.2754 26.2038 87.4093 26.7748 85.2568 25.898C84.2772 25.4989 83.4437 25.5729 82.5966 26.1704C82.2191 26.4368 81.7805 26.6401 81.3423 26.8019C80.659 27.0544 80.0355 26.8903 79.5179 26.3907C79.2663 26.1477 79.0429 25.8773 78.7949 25.6308C78.4094 25.2473 78.2215 25.2098 77.8523 25.6167C77.4185 26.0953 77.0671 26.645 76.689 27.1705C76.5518 27.3614 76.542 27.7642 76.1995 27.6297C75.8226 27.482 76.0273 27.1284 76.1657 26.9243C76.5803 26.3138 76.9895 25.6855 77.5015 25.1563C78.0991 24.5378 78.6565 24.5902 79.2802 25.1857C79.5336 25.4272 79.7757 25.6801 80.0284 25.9225C80.3407 26.2223 80.7114 26.3426 81.1316 26.184C81.5038 26.0434 81.9047 25.9254 82.2205 25.7014C83.2985 24.9354 84.3848 24.8675 85.6243 25.3596C87.3435 26.0423 89.2858 25.5456 90.4838 24.2458C90.5596 24.1635 90.6162 24.065 90.6897 23.9622C90.4459 23.6005 90.1712 23.2774 89.9901 22.9106C89.2387 21.3871 89.1219 19.7732 89.3714 18.1267C89.4005 17.9352 89.583 17.7017 89.7593 17.6196C89.8692 17.5684 90.1718 17.7192 90.2672 17.858C91.0471 18.9885 91.7641 20.1455 91.9476 21.542C92.0468 22.2984 91.883 23.0002 91.592 23.7842Z" fill="black"/>
<path fill-rule="evenodd" clip-rule="evenodd" d="M109.333 30.7432C109.333 30.2985 109.387 29.902 109.319 29.528C109.234 29.0559 109.103 28.5763 108.895 28.1477C108.683 27.7121 108.356 27.7538 108.144 28.187C107.659 29.1793 108.194 30.4587 109.333 30.7432ZM117.061 28.1196C116.83 28.9553 116.497 29.6885 115.864 30.2489C115.061 30.9606 114.122 31.3976 113.086 31.6337C111.937 31.8954 110.782 31.8761 109.665 31.6599C109.204 32.0955 108.804 32.5574 108.325 32.9122C106.451 34.301 104.45 34.6353 102.319 33.5088C102.11 33.3985 101.738 33.3314 101.892 32.9991C102.041 32.679 102.341 32.9008 102.567 32.9813C103.025 33.1441 103.464 33.393 103.935 33.4831C106 33.8782 107.574 32.9845 109.003 31.4624C108.745 31.2853 108.542 31.1496 108.343 31.0084C107.211 30.2084 107.194 28.8876 107.541 28.0114C107.694 27.6242 107.919 27.2948 108.376 27.2692C108.867 27.2417 109.215 27.4903 109.439 27.9221C109.823 28.6658 109.944 29.4656 109.933 30.2912C109.93 30.4993 109.905 30.707 109.888 30.9334C109.972 30.9868 110.042 31.0656 110.122 31.0773C111.805 31.3162 113.412 31.1207 114.882 30.2011C115.663 29.7124 116.197 29.0355 116.419 28.124C116.501 27.7841 116.469 27.5023 116.226 27.2204C116.016 26.978 115.828 26.6909 115.728 26.3912C115.669 26.2124 115.732 25.9092 115.859 25.7704C116.064 25.5463 116.371 25.6531 116.534 25.8605C116.728 26.1073 116.912 26.4049 116.971 26.706C117.049 27.1072 117.238 27.3812 117.549 27.614C118.318 28.19 119.122 28.6863 120.069 28.917C120.537 29.0311 120.988 29.0332 121.437 28.8523C121.501 28.826 121.563 28.7913 121.629 28.7717C121.836 28.7111 122.085 28.6472 122.144 28.9211C122.168 29.0326 121.996 29.2531 121.861 29.3208C121.185 29.6619 120.471 29.6429 119.754 29.4591C118.933 29.2476 118.202 28.8473 117.507 28.3714C117.377 28.2824 117.232 28.2156 117.061 28.1196Z" fill="black"/>
<path fill-rule="evenodd" clip-rule="evenodd" d="M88.4099 35.697C88.1448 35.5827 88.0802 35.3765 88.2589 35.1747C88.9379 34.407 89.6871 33.7074 90.8295 33.6879C91.2559 33.6802 91.6918 33.7963 92.1116 33.899C92.78 34.0621 93.431 34.2925 94.1025 34.4388C95.417 34.7252 96.7185 34.4803 98.0104 34.2609C98.5734 34.1654 99.1188 33.9762 99.6719 33.8293C99.7606 33.8057 99.8567 33.7463 99.9355 33.7628C100.074 33.7919 100.201 33.8666 100.333 33.9224C100.275 34.0314 100.244 34.1714 100.154 34.2414C100.033 34.3345 99.8697 34.3864 99.717 34.4325C97.9697 34.9589 96.1913 35.3252 94.3514 35.0816C93.6068 34.9828 92.8643 34.7725 92.161 34.5138C90.9294 34.061 89.912 34.2752 89.0453 35.2112C88.8943 35.3746 88.7188 35.5182 88.5493 35.6651C88.5204 35.6901 88.4636 35.6857 88.4099 35.697Z" fill="black"/>
</g>
<defs>
<clipPath id="clip0_2293_14621">
<rect width="222" height="148" fill="white"/>
</clipPath>
</defs>
</svg>
