<svg width="12" height="12" viewBox="0 0 12 12" fill="none" xmlns="http://www.w3.org/2000/svg">
<path d="M2.53033 5.26967C2.23744 4.97678 1.76256 4.97678 1.46967 5.26967C1.17678 5.56256 1.17678 6.03744 1.46967 6.33033L2.53033 5.26967ZM5.2 9L4.66967 9.53033L5.26219 10.1228L5.78565 9.46852L5.2 9ZM10.5857 3.46852C10.8444 3.14507 10.792 2.67311 10.4685 2.41435C10.1451 2.15559 9.67311 2.20803 9.41435 2.53148L10.5857 3.46852ZM1.46967 6.33033L4.66967 9.53033L5.73033 8.46967L2.53033 5.26967L1.46967 6.33033ZM5.78565 9.46852L10.5857 3.46852L9.41435 2.53148L4.61435 8.53148L5.78565 9.46852Z" fill="#5274EF"/>
</svg>
