<svg width="195" height="56" viewBox="0 0 195 56" fill="none" xmlns="http://www.w3.org/2000/svg">
<path d="M188.296 11.9385C185.071 27.2328 184.935 27.5075 184.571 34.422H188.887C191.43 27.5075 191.567 27.2328 194.792 11.9385H188.296ZM181.688 43.2597H187.888L189.25 36.4368H183.05L181.688 43.2597Z" fill="white"/>
<path d="M0 43.3809H6.35753V21.1792C6.35753 19.8512 6.02293 18.8138 5.64649 17.6933C5.52102 17.3198 5.64649 17.0708 6.02293 16.9878C6.23206 16.9463 6.44119 17.0708 6.52484 17.3613L14.4299 43.3809H23.0461L30.9512 17.3613C31.0348 17.0708 31.2439 16.9463 31.4531 16.9878C31.8295 17.0708 31.955 17.3198 31.8295 17.6933C31.4531 18.8138 31.1185 19.8512 31.1185 21.1792V43.3809H37.476V14.1659H26.0993L19.4909 36.5751C19.2817 37.3221 19.2399 38.4011 19.2399 39.397C19.2399 39.729 19.0726 39.895 18.738 39.895C18.4034 39.895 18.2361 39.729 18.2361 39.397C18.2361 38.4011 18.1943 37.3221 17.9851 36.5751L11.3766 14.1659H0V43.3809Z" fill="white"/>
<path d="M40.4826 37.3636C40.4826 41.057 44.4142 43.7129 49.2242 43.7129C54.2433 43.7129 56.8365 41.804 59.1369 38.9406C59.3043 38.7331 59.4297 38.3181 59.9316 38.4841C60.3917 38.6501 60.1826 39.0651 59.9735 39.4385C59.5552 40.1855 59.2206 40.8495 59.2206 41.8455V43.3809H65.2435V31.2633C65.2435 22.7976 59.8062 21.1377 53.7414 21.1377C47.8858 21.1377 42.1975 23.2541 41.2773 28.7734H47.2166C47.593 26.989 48.6386 25.7855 53.5741 25.7855C58.4677 25.7855 59.1788 27.1135 59.2206 28.6074C59.2624 30.6409 54.7452 30.2674 50.0607 30.4749C44.4142 30.7239 40.4826 32.5083 40.4826 37.3636ZM59.2206 32.5298C59.2206 35.7429 54.6616 39.1896 51.6501 39.563C48.6805 39.9365 46.5055 38.8991 46.5055 37.0731C46.5055 35.1227 47.9694 34.3757 50.8554 34.1682C54.4106 33.9192 57.6312 33.8993 59.2206 32.5298Z" fill="white"/>
<path d="M68.8437 18.8138H74.8666V13.502H68.8437V18.8138ZM68.8437 43.3809H74.8666V21.4697H68.8437V43.3809Z" fill="white"/>
<path d="M78.0935 13.502V43.3809H84.1165V13.502H78.0935Z" fill="white"/>
<path d="M112.07 32.1348C112.07 24.1671 105.754 21.1377 99.6895 21.1377C91.7007 21.1377 86.6398 25.578 86.6398 32.4253C86.6398 38.9406 91.3243 43.7129 99.815 43.7129C106.8 43.7129 110.481 40.2685 111.61 35.7452H105.461C104.709 37.5711 103.077 38.8991 99.8986 38.8991C95.7579 38.8991 93.081 37.0731 92.5791 33.9192H111.903C112.028 33.2968 112.07 32.7158 112.07 32.1348ZM92.8719 29.9354C93.6247 27.5285 95.5905 25.6195 99.9404 25.6195C103.788 25.6195 105.796 27.404 106.047 29.9354H92.8719Z" fill="white"/>
<path d="M134.412 13.502V22.2996C134.412 23.1711 134.663 23.7936 134.998 24.5821C135.165 24.9971 135.458 25.495 135.039 25.7025C134.705 25.8685 134.37 25.3705 134.245 25.2045C132.488 22.9221 129.686 21.1377 125.545 21.1377C118.686 21.1377 114.336 26.1175 114.336 32.4253C114.336 38.7331 118.686 43.7129 125.545 43.7129C129.56 43.7129 132.655 41.97 134.245 39.6045C134.328 39.48 134.579 39.0651 134.914 39.1896C135.416 39.397 135.207 39.7705 134.998 40.1855C134.621 40.9325 134.412 41.5965 134.412 42.4264V43.3809H140.435V13.502H134.412ZM127.176 38.5671C122.534 38.5671 120.359 35.7452 120.359 32.4253C120.359 29.1054 122.534 26.2835 127.176 26.2835C130.982 26.2835 134.412 29.1054 134.412 32.4253C134.412 35.7452 131.526 38.5671 127.176 38.5671Z" fill="white"/>
<path fill-rule="evenodd" clip-rule="evenodd" d="M154.569 43.3515H144.834V12.0859H154.569V43.3515ZM178.207 27.1389H171.107V34.2727C171.107 34.5465 171.107 34.7714 171.111 34.9655C171.231 34.968 171.368 34.9691 171.524 34.9691H178.207V43.3515H169.79C167.546 43.3515 165.369 43.0076 163.806 41.5356C162.219 40.041 161.695 37.7986 161.695 35.1072V27.1389H156.531V18.7565H161.695V13.0344H171.107V18.7565H178.207V27.1389ZM158.332 20.5635H163.496V14.8414H169.305V20.5635H176.406V25.3319H169.305V34.2727C169.305 36.5774 169.346 36.7761 171.524 36.7761H176.406V41.5445H169.79C165.513 41.5445 163.496 40.1537 163.496 35.1072V25.3319H158.332V20.5635ZM152.768 13.8929V41.5445H146.635V13.8929H152.768Z" fill="white"/>
</svg>
