<svg width="44" height="44" viewBox="0 0 44 44" fill="none" xmlns="http://www.w3.org/2000/svg">
<g clip-path="url(#clip0_1187_10346)">
<g filter="url(#filter0_d_1187_10346)">
<circle cx="22.1655" cy="22.1655" r="20.1655" fill="#50575E"/>
<path fill-rule="evenodd" clip-rule="evenodd" d="M22.8263 15.1169C22.0192 14.9785 21.1892 15.1301 20.4833 15.545C19.7773 15.9599 19.241 16.6113 18.9692 17.3838C18.6515 18.287 17.6617 18.7616 16.7585 18.4439C15.8552 18.1261 15.3806 17.1364 15.6983 16.2331C16.2418 14.6882 17.3145 13.3855 18.7264 12.5557C20.1383 11.7259 21.7984 11.4226 23.4125 11.6994C25.0266 11.9763 26.4907 12.8155 27.5454 14.0684C28.5998 15.321 29.1771 16.9064 29.1749 18.5437C29.1741 21.1969 27.207 22.949 25.8023 23.8854C25.0471 24.3889 24.3042 24.7592 23.7569 25.0024C23.4808 25.1251 23.2483 25.2182 23.0808 25.282C22.9969 25.314 22.9288 25.3388 22.8793 25.3564L22.8191 25.3775L22.7999 25.384L22.7932 25.3863L22.7905 25.3872C22.79 25.3874 22.7884 25.3879 22.2401 23.7432L22.7884 25.3879C21.88 25.6907 20.8982 25.1998 20.5954 24.2914C20.2928 23.3837 20.7829 22.4026 21.6901 22.0991L21.6878 22.0998C21.688 22.0998 21.6882 22.0997 21.6901 22.0991L21.7177 22.0894C21.7444 22.0799 21.7881 22.064 21.8464 22.0418C21.9633 21.9973 22.1372 21.9279 22.3487 21.8339C22.7766 21.6437 23.3339 21.3638 23.879 21.0004C25.0745 20.2034 25.7075 19.3555 25.7075 18.5421L25.7075 18.5395C25.7087 17.7207 25.4201 16.9278 24.8927 16.3014C24.3654 15.6749 23.6334 15.2553 22.8263 15.1169Z" fill="#BAC8FF"/>
<path fill-rule="evenodd" clip-rule="evenodd" d="M22.1868 22.0898C23.1443 22.0898 23.9205 22.866 23.9205 23.8235V25.904C23.9205 26.8614 23.1443 27.6376 22.1868 27.6376C21.2293 27.6376 20.4531 26.8614 20.4531 25.904V23.8235C20.4531 22.866 21.2293 22.0898 22.1868 22.0898Z" fill="#BAC8FF"/>
<path fill-rule="evenodd" clip-rule="evenodd" d="M20.4531 31.0169C20.4531 30.0594 21.2293 29.2832 22.1868 29.2832H22.2042C23.1616 29.2832 23.9378 30.0594 23.9378 31.0169C23.9378 31.9744 23.1616 32.7506 22.2042 32.7506H22.1868C21.2293 32.7506 20.4531 31.9744 20.4531 31.0169Z" fill="#BAC8FF"/>
</g>
</g>
<defs>
<filter id="filter0_d_1187_10346" x="-2" y="-2" width="48.3301" height="48.3301" filterUnits="userSpaceOnUse" color-interpolation-filters="sRGB">
<feFlood flood-opacity="0" result="BackgroundImageFix"/>
<feColorMatrix in="SourceAlpha" type="matrix" values="0 0 0 0 0 0 0 0 0 0 0 0 0 0 0 0 0 0 127 0" result="hardAlpha"/>
<feOffset/>
<feGaussianBlur stdDeviation="2"/>
<feComposite in2="hardAlpha" operator="out"/>
<feColorMatrix type="matrix" values="0 0 0 0 0 0 0 0 0 0 0 0 0 0 0 0 0 0 0.25 0"/>
<feBlend mode="normal" in2="BackgroundImageFix" result="effect1_dropShadow_1187_10346"/>
<feBlend mode="normal" in="SourceGraphic" in2="effect1_dropShadow_1187_10346" result="shape"/>
</filter>
<clipPath id="clip0_1187_10346">
<rect width="44" height="44" fill="white"/>
</clipPath>
</defs>
</svg>
