<svg width="24" height="24" viewBox="0 0 24 24" fill="none" xmlns="http://www.w3.org/2000/svg">
<path d="M12 22C17.5228 22 22 17.5228 22 12C22 6.47715 17.5228 2 12 2C6.47715 2 2 6.47715 2 12C2 17.5228 6.47715 22 12 22Z" stroke="#5274EF" stroke-width="2" stroke-linecap="round" stroke-linejoin="round"/>
<path d="M9.2002 8.80526C9.4353 8.13692 9.89935 7.57336 10.5101 7.21439C11.121 6.85542 11.8391 6.7242 12.5374 6.84397C13.2357 6.96374 13.869 7.32678 14.3253 7.86879C14.7815 8.41079 15.0313 9.09678 15.0302 9.80526C15.0302 11.8053 12.0302 12.8053 12.0302 12.8053" stroke="#5274EF" stroke-width="2" stroke-linecap="round" stroke-linejoin="round"/>
<path d="M13 12.8516C13 12.2993 12.5523 11.8516 12 11.8516C11.4477 11.8516 11 12.2993 11 12.8516H13ZM11 14.0516C11 14.6038 11.4477 15.0516 12 15.0516C12.5523 15.0516 13 14.6038 13 14.0516H11ZM11 12.8516V14.0516H13V12.8516H11Z" fill="#5274EF"/>
<path d="M12 17H12.01" stroke="#5274EF" stroke-width="2" stroke-linecap="round" stroke-linejoin="round"/>
</svg>
