<svg width="78" height="13" viewBox="0 0 78 13" fill="none" xmlns="http://www.w3.org/2000/svg">
<path d="M74.6067 0C73.3289 6.05986 73.2749 6.16872 73.1309 8.90836H74.8408C75.8486 6.16872 75.9026 6.05986 77.1804 0H74.6067ZM71.9883 12.41H74.4448L74.9847 9.70667H72.5282L71.9883 12.41Z" fill="#5274EF"/>
<path d="M0 12.4587H2.51897V3.66197C2.51897 3.13581 2.38639 2.72475 2.23724 2.2808C2.18752 2.13282 2.23724 2.03417 2.38639 2.00128C2.46925 1.98484 2.55211 2.03417 2.58525 2.14926L5.71739 12.4587H9.13125L12.2634 2.14926C12.2965 2.03417 12.3794 1.98484 12.4623 2.00128C12.6114 2.03417 12.6611 2.13282 12.6114 2.2808C12.4623 2.72475 12.3297 3.13581 12.3297 3.66197V12.4587H14.8486V0.883196H10.341L7.72262 9.76212C7.63976 10.0581 7.62319 10.4856 7.62319 10.8802C7.62319 11.0117 7.5569 11.0775 7.42432 11.0775C7.29174 11.0775 7.22545 11.0117 7.22545 10.8802C7.22545 10.4856 7.20888 10.0581 7.12602 9.76212L4.50762 0.883196H0V12.4587Z" fill="#5274EF"/>
<path d="M16.0399 10.0745C16.0399 11.5379 17.5977 12.5902 19.5035 12.5902C21.4921 12.5902 22.5196 11.8339 23.4311 10.6993C23.4974 10.6171 23.5471 10.4527 23.746 10.5185C23.9283 10.5842 23.8454 10.7487 23.7625 10.8966C23.5968 11.1926 23.4642 11.4557 23.4642 11.8503V12.4587H25.8506V7.65748C25.8506 4.30323 23.6962 3.64553 21.2933 3.64553C18.9732 3.64553 16.7194 4.48409 16.3548 6.67094H18.708C18.8572 5.96391 19.2715 5.48708 21.227 5.48708C23.1659 5.48708 23.4477 6.01324 23.4642 6.60517C23.4808 7.41085 21.691 7.26287 19.8349 7.34508C17.5977 7.44373 16.0399 8.15076 16.0399 10.0745ZM23.4642 8.1593C23.4642 9.43236 21.6579 10.798 20.4647 10.946C19.2881 11.094 18.4263 10.6829 18.4263 9.95943C18.4263 9.18663 19.0063 8.89067 20.1498 8.80846C21.5584 8.7098 22.8345 8.7019 23.4642 8.1593Z" fill="#5274EF"/>
<path d="M27.2771 2.72475H29.6634V0.620117H27.2771V2.72475ZM27.2771 12.4587H29.6634V3.77707H27.2771V12.4587Z" fill="#5274EF"/>
<path d="M30.942 0.620117V12.4587H33.3284V0.620117H30.942Z" fill="#5274EF"/>
<path d="M44.4041 8.00278C44.4041 4.84583 41.9017 3.64553 39.4987 3.64553C36.3334 3.64553 34.3282 5.40487 34.3282 8.11787C34.3282 10.6993 36.1843 12.5902 39.5484 12.5902C42.316 12.5902 43.7743 11.2255 44.2218 9.43327H41.7857C41.4874 10.1567 40.8411 10.6829 39.5816 10.6829C37.9409 10.6829 36.8803 9.95943 36.6814 8.7098H44.3378C44.3875 8.46316 44.4041 8.23297 44.4041 8.00278ZM36.7974 7.13133C37.0957 6.17766 37.8746 5.42131 39.5981 5.42131C41.1228 5.42131 41.9182 6.12834 42.0177 7.13133H36.7974Z" fill="#5274EF"/>
<path d="M53.2564 0.620117V4.10592C53.2564 4.45121 53.3558 4.69784 53.4884 5.01025C53.5547 5.17467 53.6707 5.37198 53.505 5.4542C53.3724 5.51997 53.2398 5.32266 53.1901 5.25689C52.4941 4.35255 51.3837 3.64553 49.7431 3.64553C47.0253 3.64553 45.3018 5.61862 45.3018 8.11787C45.3018 10.6171 47.0253 12.5902 49.7431 12.5902C51.334 12.5902 52.5604 11.8996 53.1901 10.9624C53.2232 10.9131 53.3227 10.7487 53.4553 10.798C53.6541 10.8802 53.5713 11.0282 53.4884 11.1926C53.3393 11.4886 53.2564 11.7517 53.2564 12.0805V12.4587H55.6428V0.620117H53.2564ZM50.3894 10.5514C48.5499 10.5514 47.6882 9.43327 47.6882 8.11787C47.6882 6.80248 48.5499 5.68439 50.3894 5.68439C51.8975 5.68439 53.2564 6.80248 53.2564 8.11787C53.2564 9.43327 52.1129 10.5514 50.3894 10.5514Z" fill="#5274EF"/>
<path fill-rule="evenodd" clip-rule="evenodd" d="M61.2419 12.4466H57.3848V0.0585938H61.2419V12.4466ZM70.6078 6.02284H67.7945V8.84937C67.7945 8.95787 67.7947 9.04697 67.7963 9.12385C67.8439 9.12487 67.8979 9.12531 67.9599 9.12531H70.6078V12.4466H67.2726C66.3836 12.4466 65.521 12.3103 64.9018 11.7271C64.2731 11.1349 64.0652 10.2464 64.0652 9.18V6.02284H62.0192V2.70159H64.0652V0.434394H67.7945V2.70159H70.6078V6.02284ZM62.7329 3.41755H64.7789V1.15036H67.0808V3.41755H69.8941V5.30688H67.0808V8.84937C67.0808 9.76255 67.0967 9.84127 67.9599 9.84127H69.8941V11.7306H67.2726C65.5782 11.7306 64.7789 11.1795 64.7789 9.18V5.30688H62.7329V3.41755ZM60.5282 0.774556V11.7306H58.0985V0.774556H60.5282Z" fill="#5274EF"/>
</svg>
